{"glyphs":{"0":{"ha":981,"x_min":63,"x_max":918,"o":"m 489 -17 q 321 22 399 -17 q 185 130 243 60 q 94 294 126 200 q 63 500 63 388 q 94 706 63 611 q 185 870 126 800 q 321 979 243 940 q 489 1018 399 1018 q 658 979 581 1018 q 794 870 736 940 q 885 706 853 800 q 918 500 918 611 q 885 294 918 388 q 794 130 853 200 q 658 22 736 60 q 489 -17 581 -17 m 489 29 q 579 49 542 29 q 639 121 617 69 q 672 264 661 172 q 682 500 682 356 q 672 735 682 643 q 639 879 661 828 q 579 951 617 931 q 489 971 542 971 q 398 951 435 971 q 340 879 361 931 q 308 735 318 828 q 299 500 299 643 q 308 264 299 356 q 340 121 318 172 q 398 49 361 69 q 489 29 435 29 z "},"1":{"ha":644,"x_min":13,"x_max":632,"o":"m 13 0 l 13 39 l 228 39 l 228 956 l 13 956 l 13 994 l 429 994 l 429 39 l 632 39 l 632 0 l 13 0 z "},"2":{"ha":843,"x_min":46,"x_max":768,"o":"m 46 0 l 46 125 l 360 388 q 474 499 433 450 q 529 597 514 549 q 544 701 544 644 q 493 887 544 819 q 349 954 442 954 q 250 933 296 954 q 177 881 204 913 q 150 815 150 849 q 156 794 150 800 q 169 788 161 788 q 196 796 181 788 q 240 804 211 804 q 304 780 282 804 q 326 714 326 756 q 293 634 326 658 q 215 610 260 610 q 140 633 169 610 q 96 692 110 656 q 82 767 82 728 q 132 904 82 849 q 260 988 182 960 q 426 1017 339 1017 q 549 1001 489 1017 q 659 954 610 986 q 738 872 708 922 q 768 750 768 821 q 753 665 768 708 q 702 574 739 621 q 599 478 665 528 l 201 179 l 201 174 l 644 174 q 696 182 678 174 q 722 222 714 190 q 729 319 729 253 l 768 319 l 768 0 l 46 0 z "},"3":{"ha":813,"x_min":35,"x_max":760,"o":"m 344 -17 q 180 8 250 -17 q 72 76 110 32 q 35 179 35 121 q 64 267 35 231 q 144 303 93 303 q 194 293 169 303 q 234 263 218 283 q 250 206 250 242 q 238 158 250 175 q 212 131 226 142 q 185 110 197 119 q 174 88 174 101 q 201 53 174 67 q 265 35 229 40 q 326 29 300 29 q 473 93 424 29 q 522 276 522 157 q 468 454 522 393 q 285 515 414 515 l 429 549 q 600 508 525 542 q 717 417 675 474 q 760 282 760 360 q 710 136 760 204 q 567 26 660 68 q 344 -17 474 -17 m 186 515 l 186 561 l 429 561 l 429 515 l 186 515 m 347 546 l 257 561 q 433 624 381 561 q 485 799 485 686 q 468 904 485 867 q 420 956 451 942 q 344 971 389 971 q 264 958 300 971 q 228 922 228 946 q 244 894 228 906 q 275 866 260 882 q 290 818 290 850 q 258 753 290 774 q 190 733 226 733 q 119 760 147 733 q 90 832 90 788 q 122 919 90 876 q 218 989 153 961 q 383 1017 283 1017 q 557 987 485 1017 q 668 906 629 957 q 707 790 707 854 q 667 675 707 726 q 548 590 628 624 q 347 546 468 556 z "},"4":{"ha":896,"x_min":22,"x_max":847,"o":"m 294 0 l 294 39 l 440 39 l 440 278 l 22 278 l 22 321 l 513 1017 l 642 1017 l 642 319 l 807 319 l 807 429 l 847 429 l 847 164 l 807 164 l 807 278 l 642 278 l 642 39 l 769 39 l 769 0 l 294 0 m 82 319 l 440 319 l 440 822 l 435 822 l 82 325 l 82 319 z "},"5":{"ha":829,"x_min":42,"x_max":785,"o":"m 357 -17 q 190 8 261 -17 q 81 76 119 32 q 42 176 42 119 q 74 262 42 229 q 156 294 106 294 q 230 272 197 294 q 263 200 263 249 q 251 153 263 171 q 223 126 239 136 q 195 106 207 115 q 183 83 183 97 q 205 53 183 65 q 259 35 226 42 q 324 29 292 29 q 489 94 431 29 q 547 288 547 158 q 481 495 547 431 q 313 560 415 560 q 214 548 264 560 q 140 518 164 536 l 154 581 q 199 596 165 588 q 282 610 233 604 q 383 617 331 617 q 606 575 517 617 q 740 465 694 533 q 785 310 785 396 q 727 138 785 211 q 573 24 669 64 q 357 -17 476 -17 m 140 518 l 117 533 l 161 994 l 214 994 l 171 563 l 140 518 m 200 821 l 165 994 l 600 994 q 663 1004 644 994 q 696 1044 682 1014 l 735 1044 l 685 821 l 200 821 z "},"6":{"ha":864,"x_min":65,"x_max":825,"o":"m 444 -17 q 253 35 339 -17 q 116 182 167 88 q 65 404 65 276 q 119 644 65 531 q 264 847 172 758 q 474 989 356 936 q 722 1046 592 1042 l 722 1001 q 519 934 607 992 q 378 787 432 876 q 308 588 325 697 l 313 586 q 392 633 350 617 q 490 649 435 649 q 659 606 583 649 q 780 492 735 564 q 825 329 825 419 q 794 191 825 254 q 709 81 763 128 q 587 9 656 35 q 444 -17 518 -17 m 440 29 q 533 55 500 29 q 581 143 567 81 q 596 314 596 206 q 582 492 596 431 q 540 576 568 553 q 468 599 511 599 q 366 569 408 599 q 299 497 324 540 q 287 399 289 451 q 285 307 285 347 q 300 139 285 199 q 350 54 315 79 q 440 29 385 29 z "},"7":{"ha":779,"x_min":54,"x_max":761,"o":"m 399 -17 q 307 15 339 -17 q 275 107 275 47 q 286 172 275 138 q 324 258 297 206 q 394 393 350 310 l 625 821 l 206 821 q 163 811 179 821 q 133 769 147 801 q 97 674 119 738 l 54 674 l 136 994 l 761 994 l 761 943 l 565 576 q 499 426 518 489 q 481 311 481 363 q 488 242 481 272 q 503 188 494 213 q 518 141 511 164 q 525 93 525 118 q 489 10 525 38 q 399 -17 453 -17 z "},"8":{"ha":874,"x_min":51,"x_max":822,"o":"m 436 -17 q 220 19 306 -17 q 93 117 135 56 q 51 254 51 179 q 89 376 51 322 q 193 466 126 429 q 344 519 260 503 l 344 525 l 531 525 l 531 519 q 681 465 615 503 q 785 375 747 428 q 822 254 822 322 q 780 117 822 179 q 652 19 738 56 q 436 -17 567 -17 m 436 25 q 559 79 522 25 q 596 260 596 133 q 560 436 596 375 q 436 497 525 497 q 313 437 349 497 q 278 260 278 376 q 315 79 278 133 q 436 25 351 25 m 438 540 q 539 599 510 540 q 568 765 568 657 q 539 922 568 874 q 438 971 510 971 q 335 922 365 971 q 306 765 306 874 q 335 599 306 657 q 438 540 365 540 m 438 515 q 263 547 342 515 q 139 635 185 578 q 93 771 93 693 q 132 894 93 839 q 247 983 171 950 q 436 1017 322 1017 q 629 983 553 1017 q 743 893 706 949 q 781 769 781 838 q 735 635 781 693 q 611 547 689 578 q 438 515 533 515 z "},"9":{"ha":864,"x_min":50,"x_max":810,"o":"m 146 -25 l 146 19 q 350 83 261 31 q 495 219 439 135 q 567 414 551 304 l 563 415 q 483 368 525 385 q 385 351 442 351 q 217 394 293 351 q 95 509 140 436 q 50 672 50 582 q 81 810 50 747 q 166 920 113 874 q 288 992 219 967 q 431 1018 357 1018 q 622 966 536 1018 q 759 819 708 914 q 810 597 810 725 q 756 358 810 469 q 608 163 701 247 q 394 28 514 78 q 146 -25 275 -21 m 407 403 q 509 432 467 403 q 576 504 551 461 q 588 602 586 550 q 590 694 590 654 q 575 863 590 801 q 526 948 560 924 q 435 972 492 972 q 342 947 376 972 q 294 859 308 921 q 279 686 279 797 q 293 510 279 571 q 336 426 307 449 q 407 403 365 403 z "},"A":{"ha":979,"x_min":-21,"x_max":1000,"o":"m 678 21 l 424 739 l 418 739 l 408 788 l 494 1061 l 532 1061 l 900 21 l 678 21 m -21 0 l -21 39 l 315 39 l 315 0 l -21 0 m 235 299 l 235 336 l 703 336 l 703 299 l 235 299 m 521 0 l 521 39 l 1000 39 l 1000 0 l 521 0 m 100 21 l 494 1061 l 532 1061 l 456 835 l 146 21 l 100 21 z "},"Á":{"ha":979,"x_min":-21,"x_max":1000,"o":"m 678 21 l 424 739 l 418 739 l 408 788 l 494 1061 l 532 1061 l 900 21 l 678 21 m -21 0 l -21 39 l 315 39 l 315 0 l -21 0 m 235 299 l 235 336 l 703 336 l 703 299 l 235 299 m 521 0 l 521 39 l 1000 39 l 1000 0 l 521 0 m 100 21 l 494 1061 l 532 1061 l 456 835 l 146 21 l 100 21 m 315 1172 l 535 1313 q 597 1349 575 1339 q 644 1360 619 1360 q 694 1342 676 1360 q 711 1297 711 1324 q 696 1251 711 1272 q 639 1221 681 1229 l 393 1172 l 315 1172 z "},"Ă":{"ha":979,"x_min":-21,"x_max":1000,"o":"m 678 21 l 424 739 l 418 739 l 408 788 l 494 1061 l 532 1061 l 900 21 l 678 21 m -21 0 l -21 39 l 315 39 l 315 0 l -21 0 m 235 299 l 235 336 l 703 336 l 703 299 l 235 299 m 521 0 l 521 39 l 1000 39 l 1000 0 l 521 0 m 100 21 l 494 1061 l 532 1061 l 456 835 l 146 21 l 100 21 m 514 1172 q 344 1224 401 1172 q 286 1360 286 1275 l 343 1360 q 392 1306 346 1322 q 511 1289 439 1289 q 633 1306 585 1289 q 683 1360 681 1324 l 739 1360 q 684 1226 739 1279 q 514 1172 629 1172 z "},"Ắ":{"ha":979,"x_min":-21,"x_max":1000,"o":"m 678 21 l 424 739 l 418 739 l 408 788 l 494 1061 l 532 1061 l 900 21 l 678 21 m -21 0 l -21 39 l 315 39 l 315 0 l -21 0 m 235 299 l 235 336 l 703 336 l 703 299 l 235 299 m 521 0 l 521 39 l 1000 39 l 1000 0 l 521 0 m 100 21 l 494 1061 l 532 1061 l 456 835 l 146 21 l 100 21 m 513 1143 q 365 1195 415 1143 q 314 1332 314 1247 l 369 1332 q 412 1277 372 1293 q 510 1261 451 1261 q 610 1278 569 1261 q 654 1332 651 1296 l 711 1332 q 690 1236 711 1279 q 624 1168 668 1193 q 513 1143 581 1143 m 315 1415 l 533 1556 q 596 1592 574 1582 q 643 1603 618 1603 q 693 1585 676 1603 q 710 1540 710 1567 q 695 1495 710 1517 q 638 1464 681 1474 l 393 1415 l 315 1415 z "},"Ặ":{"ha":979,"x_min":-21,"x_max":1000,"o":"m 678 21 l 424 739 l 418 739 l 408 788 l 494 1061 l 532 1061 l 900 21 l 678 21 m -21 0 l -21 39 l 315 39 l 315 0 l -21 0 m 235 299 l 235 336 l 703 336 l 703 299 l 235 299 m 521 0 l 521 39 l 1000 39 l 1000 0 l 521 0 m 100 21 l 494 1061 l 532 1061 l 456 835 l 146 21 l 100 21 m 489 -347 q 416 -316 447 -347 q 385 -243 385 -285 q 416 -169 385 -200 q 489 -137 447 -137 q 563 -169 532 -137 q 594 -243 594 -200 q 563 -316 594 -285 q 489 -347 532 -347 m 514 1172 q 344 1224 401 1172 q 286 1360 286 1275 l 343 1360 q 392 1306 346 1322 q 511 1289 439 1289 q 633 1306 585 1289 q 683 1360 681 1324 l 739 1360 q 684 1226 739 1279 q 514 1172 629 1172 z "},"Ằ":{"ha":979,"x_min":-21,"x_max":1000,"o":"m 678 21 l 424 739 l 418 739 l 408 788 l 494 1061 l 532 1061 l 900 21 l 678 21 m -21 0 l -21 39 l 315 39 l 315 0 l -21 0 m 235 299 l 235 336 l 703 336 l 703 299 l 235 299 m 521 0 l 521 39 l 1000 39 l 1000 0 l 521 0 m 100 21 l 494 1061 l 532 1061 l 456 835 l 146 21 l 100 21 m 513 1143 q 365 1195 415 1143 q 314 1332 314 1247 l 369 1332 q 412 1277 372 1293 q 510 1261 451 1261 q 610 1278 569 1261 q 654 1332 651 1296 l 711 1332 q 690 1236 711 1279 q 624 1168 668 1193 q 513 1143 581 1143 m 632 1419 l 388 1468 q 330 1499 344 1478 q 315 1544 315 1521 q 332 1589 315 1571 q 382 1607 349 1607 q 429 1597 407 1607 q 492 1560 451 1586 l 710 1419 l 632 1419 z "},"Ẳ":{"ha":979,"x_min":-21,"x_max":1000,"o":"m 678 21 l 424 739 l 418 739 l 408 788 l 494 1061 l 532 1061 l 900 21 l 678 21 m -21 0 l -21 39 l 315 39 l 315 0 l -21 0 m 235 299 l 235 336 l 703 336 l 703 299 l 235 299 m 521 0 l 521 39 l 1000 39 l 1000 0 l 521 0 m 100 21 l 494 1061 l 532 1061 l 456 835 l 146 21 l 100 21 m 513 1143 q 365 1195 415 1143 q 314 1332 314 1247 l 369 1332 q 412 1277 372 1293 q 510 1261 451 1261 q 610 1278 569 1261 q 654 1332 651 1296 l 711 1332 q 690 1236 711 1279 q 624 1168 668 1193 q 513 1143 581 1143 m 486 1335 q 495 1385 486 1365 q 517 1419 504 1406 q 540 1447 531 1433 q 550 1478 550 1460 q 533 1516 550 1503 q 489 1529 517 1529 q 447 1516 463 1529 q 431 1488 431 1503 q 437 1470 431 1474 q 449 1461 443 1467 q 456 1438 456 1456 q 440 1413 456 1421 q 406 1404 425 1404 q 363 1421 381 1404 q 346 1465 346 1438 q 366 1536 346 1510 q 418 1575 386 1563 q 489 1588 450 1588 q 597 1559 560 1588 q 635 1479 635 1531 q 620 1422 635 1442 q 586 1392 606 1403 q 551 1369 567 1381 q 535 1335 536 1357 l 486 1335 z "},"Ẵ":{"ha":979,"x_min":-21,"x_max":1000,"o":"m 678 21 l 424 739 l 418 739 l 408 788 l 494 1061 l 532 1061 l 900 21 l 678 21 m -21 0 l -21 39 l 315 39 l 315 0 l -21 0 m 235 299 l 235 336 l 703 336 l 703 299 l 235 299 m 521 0 l 521 39 l 1000 39 l 1000 0 l 521 0 m 100 21 l 494 1061 l 532 1061 l 456 835 l 146 21 l 100 21 m 513 1143 q 365 1195 415 1143 q 314 1332 314 1247 l 369 1332 q 412 1277 372 1293 q 510 1261 451 1261 q 610 1278 569 1261 q 654 1332 651 1296 l 711 1332 q 690 1236 711 1279 q 624 1168 668 1193 q 513 1143 581 1143 m 250 1392 q 282 1480 258 1438 q 344 1549 306 1522 q 432 1576 382 1576 q 501 1562 469 1576 q 561 1532 532 1547 q 622 1517 590 1517 q 695 1538 671 1517 q 729 1578 719 1558 l 776 1578 q 742 1490 765 1532 q 683 1420 719 1447 q 592 1393 647 1393 q 522 1408 553 1393 q 463 1438 492 1422 q 401 1453 435 1453 q 333 1435 361 1453 q 296 1392 304 1418 l 250 1392 z "},"Â":{"ha":979,"x_min":-21,"x_max":1000,"o":"m 678 21 l 424 739 l 418 739 l 408 788 l 494 1061 l 532 1061 l 900 21 l 678 21 m -21 0 l -21 39 l 315 39 l 315 0 l -21 0 m 235 299 l 235 336 l 703 336 l 703 299 l 235 299 m 521 0 l 521 39 l 1000 39 l 1000 0 l 521 0 m 100 21 l 494 1061 l 532 1061 l 456 835 l 146 21 l 100 21 m 251 1172 l 471 1358 l 557 1358 l 775 1172 l 707 1172 l 514 1239 l 321 1172 l 251 1172 z "},"Ấ":{"ha":979,"x_min":-21,"x_max":1000,"o":"m 678 21 l 424 739 l 418 739 l 408 788 l 494 1061 l 532 1061 l 900 21 l 678 21 m -21 0 l -21 39 l 315 39 l 315 0 l -21 0 m 235 299 l 235 336 l 703 336 l 703 299 l 235 299 m 521 0 l 521 39 l 1000 39 l 1000 0 l 521 0 m 100 21 l 494 1061 l 532 1061 l 456 835 l 146 21 l 100 21 m 285 1149 l 471 1308 l 557 1308 l 743 1149 l 675 1149 l 514 1211 l 353 1149 l 285 1149 m 315 1350 l 535 1490 q 597 1527 575 1517 q 644 1538 619 1538 q 694 1519 678 1538 q 711 1475 711 1501 q 696 1430 711 1451 q 639 1399 681 1408 l 394 1350 l 315 1350 z "},"Ậ":{"ha":979,"x_min":-21,"x_max":1000,"o":"m 678 21 l 424 739 l 418 739 l 408 788 l 494 1061 l 532 1061 l 900 21 l 678 21 m -21 0 l -21 39 l 315 39 l 315 0 l -21 0 m 235 299 l 235 336 l 703 336 l 703 299 l 235 299 m 521 0 l 521 39 l 1000 39 l 1000 0 l 521 0 m 100 21 l 494 1061 l 532 1061 l 456 835 l 146 21 l 100 21 m 489 -347 q 416 -316 447 -347 q 385 -243 385 -285 q 416 -169 385 -200 q 489 -137 447 -137 q 563 -169 532 -137 q 594 -243 594 -200 q 563 -316 594 -285 q 489 -347 532 -347 m 251 1172 l 471 1358 l 557 1358 l 775 1172 l 707 1172 l 514 1239 l 321 1172 l 251 1172 z "},"Ầ":{"ha":979,"x_min":-21,"x_max":1000,"o":"m 678 21 l 424 739 l 418 739 l 408 788 l 494 1061 l 532 1061 l 900 21 l 678 21 m -21 0 l -21 39 l 315 39 l 315 0 l -21 0 m 235 299 l 235 336 l 703 336 l 703 299 l 235 299 m 521 0 l 521 39 l 1000 39 l 1000 0 l 521 0 m 100 21 l 494 1061 l 532 1061 l 456 835 l 146 21 l 100 21 m 285 1149 l 471 1308 l 557 1308 l 743 1149 l 675 1149 l 514 1211 l 353 1149 l 285 1149 m 633 1354 l 388 1403 q 331 1434 346 1413 q 315 1479 315 1456 q 333 1524 315 1506 q 382 1542 350 1542 q 430 1531 408 1542 q 492 1494 451 1521 l 711 1354 l 633 1354 z "},"Ẩ":{"ha":979,"x_min":-21,"x_max":1000,"o":"m 678 21 l 424 739 l 418 739 l 408 788 l 494 1061 l 532 1061 l 900 21 l 678 21 m -21 0 l -21 39 l 315 39 l 315 0 l -21 0 m 235 299 l 235 336 l 703 336 l 703 299 l 235 299 m 521 0 l 521 39 l 1000 39 l 1000 0 l 521 0 m 100 21 l 494 1061 l 532 1061 l 456 835 l 146 21 l 100 21 m 285 1149 l 471 1308 l 557 1308 l 743 1149 l 675 1149 l 514 1211 l 353 1149 l 285 1149 m 690 1308 q 699 1358 690 1339 q 722 1391 708 1378 q 744 1415 735 1404 q 754 1438 754 1425 q 738 1488 754 1474 q 693 1503 721 1503 q 651 1490 667 1503 q 635 1461 635 1476 q 642 1444 635 1447 q 654 1435 649 1440 q 660 1411 660 1429 q 644 1386 660 1394 q 610 1378 629 1378 q 567 1394 585 1378 q 550 1439 550 1411 q 569 1510 550 1483 q 622 1549 589 1536 q 693 1561 654 1561 q 801 1530 764 1561 q 839 1431 839 1499 q 824 1387 839 1401 q 790 1363 810 1372 q 756 1342 771 1354 q 739 1308 740 1331 l 690 1308 z "},"Ẫ":{"ha":979,"x_min":-21,"x_max":1000,"o":"m 678 21 l 424 739 l 418 739 l 408 788 l 494 1061 l 532 1061 l 900 21 l 678 21 m -21 0 l -21 39 l 315 39 l 315 0 l -21 0 m 235 299 l 235 336 l 703 336 l 703 299 l 235 299 m 521 0 l 521 39 l 1000 39 l 1000 0 l 521 0 m 100 21 l 494 1061 l 532 1061 l 456 835 l 146 21 l 100 21 m 285 1146 l 471 1306 l 557 1306 l 743 1146 l 675 1146 l 514 1208 l 353 1146 l 285 1146 m 251 1386 q 283 1474 258 1432 q 344 1543 307 1515 q 433 1571 382 1571 q 502 1556 471 1571 q 563 1526 533 1540 q 624 1511 592 1511 q 697 1532 672 1511 q 729 1572 721 1553 l 776 1572 q 744 1484 767 1526 q 684 1415 721 1442 q 593 1388 647 1388 q 524 1402 554 1388 q 465 1431 493 1417 q 403 1446 436 1446 q 333 1429 361 1446 q 297 1386 306 1413 l 251 1386 z "},"Ȁ":{"ha":979,"x_min":-21,"x_max":1000,"o":"m 678 21 l 424 739 l 418 739 l 408 788 l 494 1061 l 532 1061 l 900 21 l 678 21 m -21 0 l -21 39 l 315 39 l 315 0 l -21 0 m 235 299 l 235 336 l 703 336 l 703 299 l 235 299 m 521 0 l 521 39 l 1000 39 l 1000 0 l 521 0 m 100 21 l 494 1061 l 532 1061 l 456 835 l 146 21 l 100 21 m 767 1172 l 540 1221 q 483 1251 499 1231 q 468 1297 468 1272 q 485 1342 468 1324 q 535 1360 503 1360 q 582 1349 561 1360 q 642 1311 603 1339 l 846 1172 l 767 1172 m 479 1172 l 253 1221 q 196 1251 211 1231 q 181 1297 181 1272 q 197 1342 181 1324 q 247 1360 214 1360 q 293 1349 272 1360 q 354 1311 314 1339 l 557 1172 l 479 1172 z "},"Ä":{"ha":979,"x_min":-21,"x_max":1000,"o":"m 678 21 l 424 739 l 418 739 l 408 788 l 494 1061 l 532 1061 l 900 21 l 678 21 m -21 0 l -21 39 l 315 39 l 315 0 l -21 0 m 235 299 l 235 336 l 703 336 l 703 299 l 235 299 m 521 0 l 521 39 l 1000 39 l 1000 0 l 521 0 m 100 21 l 494 1061 l 532 1061 l 456 835 l 146 21 l 100 21 m 657 1153 q 590 1181 618 1153 q 563 1246 563 1208 q 590 1313 563 1285 q 657 1340 618 1340 q 722 1313 694 1340 q 750 1246 750 1285 q 722 1181 750 1208 q 657 1153 694 1153 m 371 1153 q 306 1181 333 1153 q 278 1246 278 1208 q 306 1313 278 1285 q 371 1340 333 1340 q 438 1313 410 1340 q 465 1246 465 1285 q 438 1181 465 1208 q 371 1153 410 1153 z "},"Ạ":{"ha":979,"x_min":-21,"x_max":1000,"o":"m 678 21 l 424 739 l 418 739 l 408 788 l 494 1061 l 532 1061 l 900 21 l 678 21 m -21 0 l -21 39 l 315 39 l 315 0 l -21 0 m 235 299 l 235 336 l 703 336 l 703 299 l 235 299 m 521 0 l 521 39 l 1000 39 l 1000 0 l 521 0 m 100 21 l 494 1061 l 532 1061 l 456 835 l 146 21 l 100 21 m 489 -347 q 416 -316 447 -347 q 385 -243 385 -285 q 416 -169 385 -200 q 489 -137 447 -137 q 563 -169 532 -137 q 594 -243 594 -200 q 563 -316 594 -285 q 489 -347 532 -347 z "},"À":{"ha":979,"x_min":-21,"x_max":1000,"o":"m 678 21 l 424 739 l 418 739 l 408 788 l 494 1061 l 532 1061 l 900 21 l 678 21 m -21 0 l -21 39 l 315 39 l 315 0 l -21 0 m 235 299 l 235 336 l 703 336 l 703 299 l 235 299 m 521 0 l 521 39 l 1000 39 l 1000 0 l 521 0 m 100 21 l 494 1061 l 532 1061 l 456 835 l 146 21 l 100 21 m 632 1172 l 388 1221 q 331 1251 346 1229 q 315 1297 315 1272 q 332 1342 315 1324 q 382 1360 349 1360 q 429 1349 407 1360 q 492 1313 451 1339 l 711 1172 l 632 1172 z "},"Ả":{"ha":979,"x_min":-21,"x_max":1000,"o":"m 678 21 l 424 739 l 418 739 l 408 788 l 494 1061 l 532 1061 l 900 21 l 678 21 m -21 0 l -21 39 l 315 39 l 315 0 l -21 0 m 235 299 l 235 336 l 703 336 l 703 299 l 235 299 m 521 0 l 521 39 l 1000 39 l 1000 0 l 521 0 m 100 21 l 494 1061 l 532 1061 l 456 835 l 146 21 l 100 21 m 508 1131 q 518 1181 508 1161 q 541 1213 528 1200 q 563 1240 554 1226 q 572 1272 572 1253 q 556 1312 572 1299 q 513 1325 539 1325 q 469 1312 485 1325 q 453 1283 453 1299 q 459 1266 453 1269 q 472 1257 465 1263 q 479 1233 479 1251 q 463 1208 479 1217 q 428 1200 447 1200 q 386 1217 403 1200 q 369 1261 369 1233 q 389 1332 369 1306 q 441 1371 408 1358 q 511 1383 474 1383 q 620 1355 583 1383 q 657 1274 657 1326 q 643 1218 657 1238 q 610 1188 629 1199 q 575 1165 590 1176 q 557 1131 560 1153 l 508 1131 z "},"Ȃ":{"ha":979,"x_min":-21,"x_max":1000,"o":"m 678 21 l 424 739 l 418 739 l 408 788 l 494 1061 l 532 1061 l 900 21 l 678 21 m -21 0 l -21 39 l 315 39 l 315 0 l -21 0 m 235 299 l 235 336 l 703 336 l 703 299 l 235 299 m 521 0 l 521 39 l 1000 39 l 1000 0 l 521 0 m 100 21 l 494 1061 l 532 1061 l 456 835 l 146 21 l 100 21 m 286 1172 q 344 1308 286 1257 q 514 1360 401 1360 q 684 1306 629 1360 q 739 1172 739 1253 l 683 1172 q 633 1225 681 1208 q 511 1242 585 1242 q 392 1226 439 1242 q 343 1172 346 1210 l 286 1172 z "},"Ā":{"ha":979,"x_min":-21,"x_max":1000,"o":"m 678 21 l 424 739 l 418 739 l 408 788 l 494 1061 l 532 1061 l 900 21 l 678 21 m -21 0 l -21 39 l 315 39 l 315 0 l -21 0 m 235 299 l 235 336 l 703 336 l 703 299 l 235 299 m 521 0 l 521 39 l 1000 39 l 1000 0 l 521 0 m 100 21 l 494 1061 l 532 1061 l 456 835 l 146 21 l 100 21 m 289 1182 l 289 1292 l 751 1292 l 751 1182 l 289 1182 z "},"Ą":{"ha":979,"x_min":-21,"x_max":1000,"o":"m 678 21 l 424 739 l 418 739 l 408 788 l 494 1061 l 532 1061 l 900 21 l 678 21 m -21 0 l -21 39 l 315 39 l 315 0 l -21 0 m 235 299 l 235 336 l 703 336 l 703 299 l 235 299 m 521 0 l 521 39 l 1000 39 l 1000 0 l 521 0 m 100 21 l 494 1061 l 532 1061 l 456 835 l 146 21 l 100 21 m 732 -322 q 642 -291 676 -322 q 608 -207 608 -260 q 627 -136 608 -171 q 690 -62 646 -101 q 807 29 733 -22 l 867 29 q 761 -86 799 -28 q 724 -194 724 -144 q 779 -254 724 -254 q 818 -246 799 -254 q 863 -218 838 -237 l 868 -218 l 868 -262 q 808 -306 844 -290 q 732 -322 772 -322 z "},"Å":{"ha":979,"x_min":-21,"x_max":1000,"o":"m 678 21 l 424 739 l 418 739 l 408 788 l 494 1061 l 532 1061 l 900 21 l 678 21 m -21 0 l -21 39 l 315 39 l 315 0 l -21 0 m 235 299 l 235 336 l 703 336 l 703 299 l 235 299 m 521 0 l 521 39 l 1000 39 l 1000 0 l 521 0 m 100 21 l 494 1061 l 532 1061 l 456 835 l 146 21 l 100 21 m 513 1142 q 426 1178 463 1142 q 390 1265 390 1215 q 426 1352 390 1317 q 513 1388 463 1388 q 600 1352 564 1388 q 636 1267 636 1317 q 600 1178 636 1215 q 513 1142 564 1142 m 513 1207 q 554 1225 538 1207 q 571 1265 571 1243 q 553 1306 571 1289 q 513 1322 536 1322 q 473 1306 490 1322 q 456 1265 456 1289 q 473 1225 456 1243 q 513 1207 490 1207 z "},"Ǻ":{"ha":979,"x_min":-21,"x_max":1000,"o":"m 678 21 l 424 739 l 418 739 l 408 788 l 494 1061 l 532 1061 l 900 21 l 678 21 m -21 0 l -21 39 l 315 39 l 315 0 l -21 0 m 235 299 l 235 336 l 703 336 l 703 299 l 235 299 m 521 0 l 521 39 l 1000 39 l 1000 0 l 521 0 m 100 21 l 494 1061 l 532 1061 l 456 835 l 146 21 l 100 21 m 513 1142 q 426 1178 463 1142 q 390 1265 390 1215 q 426 1352 390 1317 q 513 1388 463 1388 q 600 1352 564 1388 q 636 1267 636 1317 q 600 1178 636 1215 q 513 1142 564 1142 m 513 1207 q 554 1225 538 1207 q 571 1265 571 1243 q 553 1306 571 1289 q 513 1322 536 1322 q 473 1306 490 1322 q 456 1265 456 1289 q 473 1225 456 1243 q 513 1207 490 1207 m 315 1488 l 535 1628 q 597 1665 575 1654 q 644 1675 619 1675 q 694 1657 676 1675 q 711 1613 711 1639 q 696 1566 711 1588 q 639 1536 681 1544 l 393 1488 l 315 1488 z "},"Ã":{"ha":979,"x_min":-21,"x_max":1000,"o":"m 678 21 l 424 739 l 418 739 l 408 788 l 494 1061 l 532 1061 l 900 21 l 678 21 m -21 0 l -21 39 l 315 39 l 315 0 l -21 0 m 235 299 l 235 336 l 703 336 l 703 299 l 235 299 m 521 0 l 521 39 l 1000 39 l 1000 0 l 521 0 m 100 21 l 494 1061 l 532 1061 l 456 835 l 146 21 l 100 21 m 250 1172 q 281 1260 257 1218 q 342 1329 304 1301 q 432 1357 381 1357 q 501 1342 469 1357 q 561 1312 532 1326 q 622 1297 590 1297 q 695 1318 671 1297 q 729 1358 719 1339 l 776 1358 q 742 1270 765 1313 q 683 1201 719 1228 q 592 1174 647 1174 q 522 1188 553 1174 q 463 1217 492 1203 q 401 1232 435 1232 q 333 1215 361 1232 q 296 1172 304 1199 l 250 1172 z "},"Æ":{"ha":1532,"x_min":14,"x_max":1482,"o":"m 14 0 l 14 39 l 144 39 l 640 1008 l 514 1008 l 514 1047 l 1454 1047 l 1454 767 l 1401 767 q 1373 888 1400 833 q 1297 975 1346 942 q 1178 1008 1247 1008 l 947 1008 l 947 538 q 1088 556 1036 538 q 1162 615 1139 575 q 1185 721 1185 656 l 1239 721 l 1239 300 l 1185 300 q 1160 413 1183 371 q 1087 476 1138 456 q 947 497 1036 497 l 947 39 l 1192 39 q 1319 81 1267 39 q 1399 190 1371 122 q 1429 336 1428 257 l 1482 336 l 1482 0 l 597 0 l 597 39 l 739 39 l 739 324 l 349 324 l 203 39 l 353 39 l 353 0 l 14 0 m 369 364 l 739 364 l 739 1008 l 700 1008 l 369 364 z "},"Ǽ":{"ha":1532,"x_min":14,"x_max":1482,"o":"m 14 0 l 14 39 l 144 39 l 640 1008 l 514 1008 l 514 1047 l 1454 1047 l 1454 767 l 1401 767 q 1373 888 1400 833 q 1297 975 1346 942 q 1178 1008 1247 1008 l 947 1008 l 947 538 q 1088 556 1036 538 q 1162 615 1139 575 q 1185 721 1185 656 l 1239 721 l 1239 300 l 1185 300 q 1160 413 1183 371 q 1087 476 1138 456 q 947 497 1036 497 l 947 39 l 1192 39 q 1319 81 1267 39 q 1399 190 1371 122 q 1429 336 1428 257 l 1482 336 l 1482 0 l 597 0 l 597 39 l 739 39 l 739 324 l 349 324 l 203 39 l 353 39 l 353 0 l 14 0 m 369 364 l 739 364 l 739 1008 l 700 1008 l 369 364 m 772 1172 l 992 1313 q 1054 1349 1032 1339 q 1101 1360 1076 1360 q 1151 1342 1133 1360 q 1168 1297 1168 1324 q 1153 1251 1168 1272 q 1096 1221 1138 1229 l 850 1172 l 772 1172 z "},"B":{"ha":1021,"x_min":21,"x_max":951,"o":"m 21 0 l 21 39 l 517 39 q 624 59 579 39 q 692 133 668 79 q 715 288 715 188 q 694 427 715 378 q 624 497 674 476 q 488 517 574 517 l 446 563 q 708 533 594 563 q 887 441 822 504 q 951 274 951 378 q 901 124 951 185 q 766 31 851 63 q 572 0 681 0 l 21 0 m 164 21 l 164 1047 l 372 1047 l 372 21 l 164 21 m 307 517 l 307 563 l 517 563 q 615 581 576 563 q 670 647 653 599 q 688 785 688 694 q 669 927 688 879 q 614 992 651 975 q 517 1008 576 1008 l 21 1008 l 21 1047 l 572 1047 q 744 1017 668 1047 q 867 928 821 986 q 913 788 913 871 q 861 640 913 701 q 721 548 810 579 q 517 517 632 517 l 307 517 z "},"C":{"ha":976,"x_min":68,"x_max":911,"o":"m 564 -18 q 366 26 457 -18 q 208 144 275 69 q 105 315 142 218 q 68 519 68 413 q 105 724 68 626 q 209 897 142 821 q 368 1017 276 972 q 568 1061 460 1061 q 692 1041 639 1061 q 801 978 746 1021 l 860 1047 l 894 1047 l 894 729 l 856 729 q 806 874 840 808 q 712 977 771 939 q 564 1015 653 1015 q 465 995 510 1015 q 387 921 419 975 q 336 767 354 867 q 318 508 318 668 q 333 269 318 363 q 381 122 349 175 q 458 49 413 69 q 564 29 504 29 q 722 66 660 29 q 821 165 785 103 q 872 299 857 226 l 911 299 l 911 0 l 872 0 l 815 64 q 694 1 757 21 q 564 -18 631 -18 z "},"Ć":{"ha":976,"x_min":68,"x_max":911,"o":"m 564 -18 q 366 26 457 -18 q 208 144 275 69 q 105 315 142 218 q 68 519 68 413 q 105 724 68 626 q 209 897 142 821 q 368 1017 276 972 q 568 1061 460 1061 q 692 1041 639 1061 q 801 978 746 1021 l 860 1047 l 894 1047 l 894 729 l 856 729 q 806 874 840 808 q 712 977 771 939 q 564 1015 653 1015 q 465 995 510 1015 q 387 921 419 975 q 336 767 354 867 q 318 508 318 668 q 333 269 318 363 q 381 122 349 175 q 458 49 413 69 q 564 29 504 29 q 722 66 660 29 q 821 165 785 103 q 872 299 857 226 l 911 299 l 911 0 l 872 0 l 815 64 q 694 1 757 21 q 564 -18 631 -18 m 365 1172 l 585 1313 q 647 1349 625 1339 q 694 1360 669 1360 q 744 1342 726 1360 q 761 1297 761 1324 q 746 1251 761 1272 q 689 1221 731 1229 l 443 1172 l 365 1172 z "},"Č":{"ha":976,"x_min":68,"x_max":911,"o":"m 564 -18 q 366 26 457 -18 q 208 144 275 69 q 105 315 142 218 q 68 519 68 413 q 105 724 68 626 q 209 897 142 821 q 368 1017 276 972 q 568 1061 460 1061 q 692 1041 639 1061 q 801 978 746 1021 l 860 1047 l 894 1047 l 894 729 l 856 729 q 806 874 840 808 q 712 977 771 939 q 564 1015 653 1015 q 465 995 510 1015 q 387 921 419 975 q 336 767 354 867 q 318 508 318 668 q 333 269 318 363 q 381 122 349 175 q 458 49 413 69 q 564 29 504 29 q 722 66 660 29 q 821 165 785 103 q 872 299 857 226 l 911 299 l 911 0 l 872 0 l 815 64 q 694 1 757 21 q 564 -18 631 -18 m 521 1172 l 301 1358 l 371 1358 l 564 1292 l 757 1358 l 825 1358 l 607 1172 l 521 1172 z "},"Ç":{"ha":976,"x_min":68,"x_max":911,"o":"m 564 -18 q 366 26 457 -18 q 208 144 275 69 q 105 315 142 218 q 68 519 68 413 q 105 724 68 626 q 209 897 142 821 q 368 1017 276 972 q 568 1061 460 1061 q 692 1041 639 1061 q 801 978 746 1021 l 860 1047 l 894 1047 l 894 729 l 856 729 q 806 874 840 808 q 712 977 771 939 q 564 1015 653 1015 q 465 995 510 1015 q 387 921 419 975 q 336 767 354 867 q 318 508 318 668 q 333 269 318 363 q 381 122 349 175 q 458 49 413 69 q 564 29 504 29 q 722 66 660 29 q 821 165 785 103 q 872 299 857 226 l 911 299 l 911 0 l 872 0 l 815 64 q 694 1 757 21 q 564 -18 631 -18 m 519 -325 q 449 -317 478 -325 q 408 -301 419 -308 l 424 -258 q 458 -269 435 -264 q 501 -274 481 -274 q 563 -258 540 -274 q 585 -208 585 -242 q 476 -137 585 -139 l 528 11 l 583 11 l 550 -94 l 576 -94 q 678 -120 640 -94 q 717 -194 717 -146 q 663 -290 717 -256 q 519 -325 608 -325 z "},"Ĉ":{"ha":976,"x_min":68,"x_max":911,"o":"m 564 -18 q 366 26 457 -18 q 208 144 275 69 q 105 315 142 218 q 68 519 68 413 q 105 724 68 626 q 209 897 142 821 q 368 1017 276 972 q 568 1061 460 1061 q 692 1041 639 1061 q 801 978 746 1021 l 860 1047 l 894 1047 l 894 729 l 856 729 q 806 874 840 808 q 712 977 771 939 q 564 1015 653 1015 q 465 995 510 1015 q 387 921 419 975 q 336 767 354 867 q 318 508 318 668 q 333 269 318 363 q 381 122 349 175 q 458 49 413 69 q 564 29 504 29 q 722 66 660 29 q 821 165 785 103 q 872 299 857 226 l 911 299 l 911 0 l 872 0 l 815 64 q 694 1 757 21 q 564 -18 631 -18 m 301 1172 l 521 1358 l 607 1358 l 825 1172 l 757 1172 l 564 1239 l 371 1172 l 301 1172 z "},"Ċ":{"ha":976,"x_min":68,"x_max":911,"o":"m 564 -18 q 366 26 457 -18 q 208 144 275 69 q 105 315 142 218 q 68 519 68 413 q 105 724 68 626 q 209 897 142 821 q 368 1017 276 972 q 568 1061 460 1061 q 692 1041 639 1061 q 801 978 746 1021 l 860 1047 l 894 1047 l 894 729 l 856 729 q 806 874 840 808 q 712 977 771 939 q 564 1015 653 1015 q 465 995 510 1015 q 387 921 419 975 q 336 767 354 867 q 318 508 318 668 q 333 269 318 363 q 381 122 349 175 q 458 49 413 69 q 564 29 504 29 q 722 66 660 29 q 821 165 785 103 q 872 299 857 226 l 911 299 l 911 0 l 872 0 l 815 64 q 694 1 757 21 q 564 -18 631 -18 m 563 1146 q 490 1177 521 1146 q 458 1251 458 1208 q 490 1326 458 1294 q 563 1357 521 1357 q 637 1326 606 1357 q 668 1251 668 1294 q 637 1177 668 1208 q 563 1146 606 1146 z "},"D":{"ha":1099,"x_min":24,"x_max":1050,"o":"m 24 0 l 24 39 l 513 39 q 647 60 592 39 q 735 134 701 81 q 785 283 769 188 q 800 525 800 378 q 785 766 800 672 q 737 913 771 860 q 650 988 703 967 q 521 1008 597 1008 l 24 1008 l 24 1047 l 564 1047 q 755 1005 667 1047 q 910 890 843 963 q 1013 723 976 817 q 1050 526 1050 629 q 1012 328 1050 424 q 906 160 974 233 q 749 43 839 86 q 554 0 658 0 l 24 0 m 163 21 l 163 1047 l 371 1047 l 371 21 l 163 21 z "},"Ǳ":{"ha":1975,"x_min":24,"x_max":1950,"o":"m 24 0 l 24 39 l 513 39 q 647 60 592 39 q 735 134 701 81 q 785 283 769 188 q 800 525 800 378 q 785 766 800 672 q 737 913 771 860 q 650 988 703 967 q 521 1008 597 1008 l 24 1008 l 24 1047 l 564 1047 q 755 1005 667 1047 q 910 890 843 963 q 1013 723 976 817 q 1050 526 1050 629 q 1012 328 1050 424 q 906 160 974 233 q 749 43 839 86 q 554 0 658 0 l 24 0 m 163 21 l 163 1047 l 371 1047 l 371 21 l 163 21 m 1121 10 l 1121 51 l 1697 1003 l 1697 1011 l 1950 1019 l 1950 994 l 1368 47 l 1368 29 l 1121 10 m 1121 0 l 1121 42 l 1632 42 q 1769 83 1713 42 q 1856 193 1825 125 q 1888 340 1886 261 l 1942 340 l 1942 0 l 1121 0 m 1186 763 l 1186 1047 l 1950 1047 l 1950 1008 l 1486 1008 q 1355 974 1410 1008 q 1270 885 1300 940 q 1239 763 1240 829 l 1186 763 z "},"Ǆ":{"ha":1975,"x_min":24,"x_max":1950,"o":"m 24 0 l 24 39 l 513 39 q 647 60 592 39 q 735 134 701 81 q 785 283 769 188 q 800 525 800 378 q 785 766 800 672 q 737 913 771 860 q 650 988 703 967 q 521 1008 597 1008 l 24 1008 l 24 1047 l 564 1047 q 755 1005 667 1047 q 910 890 843 963 q 1013 723 976 817 q 1050 526 1050 629 q 1012 328 1050 424 q 906 160 974 233 q 749 43 839 86 q 554 0 658 0 l 24 0 m 163 21 l 163 1047 l 371 1047 l 371 21 l 163 21 m 1121 10 l 1121 51 l 1697 1003 l 1697 1011 l 1950 1019 l 1950 994 l 1368 47 l 1368 29 l 1121 10 m 1121 0 l 1121 42 l 1632 42 q 1769 83 1713 42 q 1856 193 1825 125 q 1888 340 1886 261 l 1942 340 l 1942 0 l 1121 0 m 1186 763 l 1186 1047 l 1950 1047 l 1950 1008 l 1486 1008 q 1355 974 1410 1008 q 1270 885 1300 940 q 1239 763 1240 829 l 1186 763 m 1494 1172 l 1275 1358 l 1344 1358 l 1538 1292 l 1731 1358 l 1799 1358 l 1581 1172 l 1494 1172 z "},"Ð":{"ha":1099,"x_min":-12,"x_max":1050,"o":"m 24 0 l 24 39 l 513 39 q 647 60 592 39 q 735 134 701 81 q 785 283 769 188 q 800 525 800 378 q 785 766 800 672 q 737 913 771 860 q 650 988 703 967 q 521 1008 597 1008 l 24 1008 l 24 1047 l 564 1047 q 755 1005 667 1047 q 910 890 843 963 q 1013 723 976 817 q 1050 526 1050 629 q 1012 328 1050 424 q 906 160 974 233 q 749 43 839 86 q 554 0 658 0 l 24 0 m 163 21 l 163 1047 l 371 1047 l 371 21 l 163 21 m -12 517 l -12 576 l 522 576 l 522 517 l -12 517 z "},"Ď":{"ha":1099,"x_min":24,"x_max":1050,"o":"m 24 0 l 24 39 l 513 39 q 647 60 592 39 q 735 134 701 81 q 785 283 769 188 q 800 525 800 378 q 785 766 800 672 q 737 913 771 860 q 650 988 703 967 q 521 1008 597 1008 l 24 1008 l 24 1047 l 564 1047 q 755 1005 667 1047 q 910 890 843 963 q 1013 723 976 817 q 1050 526 1050 629 q 1012 328 1050 424 q 906 160 974 233 q 749 43 839 86 q 554 0 658 0 l 24 0 m 163 21 l 163 1047 l 371 1047 l 371 21 l 163 21 m 507 1172 l 288 1358 l 357 1358 l 550 1292 l 743 1358 l 811 1358 l 593 1172 l 507 1172 z "},"Đ":{"ha":1099,"x_min":-12,"x_max":1050,"o":"m 24 0 l 24 39 l 513 39 q 647 60 592 39 q 735 134 701 81 q 785 283 769 188 q 800 525 800 378 q 785 766 800 672 q 737 913 771 860 q 650 988 703 967 q 521 1008 597 1008 l 24 1008 l 24 1047 l 564 1047 q 755 1005 667 1047 q 910 890 843 963 q 1013 723 976 817 q 1050 526 1050 629 q 1012 328 1050 424 q 906 160 974 233 q 749 43 839 86 q 554 0 658 0 l 24 0 m 163 21 l 163 1047 l 371 1047 l 371 21 l 163 21 m -12 517 l -12 576 l 522 576 l 522 517 l -12 517 z "},"Ḍ":{"ha":1099,"x_min":24,"x_max":1050,"o":"m 24 0 l 24 39 l 513 39 q 647 60 592 39 q 735 134 701 81 q 785 283 769 188 q 800 525 800 378 q 785 766 800 672 q 737 913 771 860 q 650 988 703 967 q 521 1008 597 1008 l 24 1008 l 24 1047 l 564 1047 q 755 1005 667 1047 q 910 890 843 963 q 1013 723 976 817 q 1050 526 1050 629 q 1012 328 1050 424 q 906 160 974 233 q 749 43 839 86 q 554 0 658 0 l 24 0 m 163 21 l 163 1047 l 371 1047 l 371 21 l 163 21 m 549 -347 q 476 -316 507 -347 q 444 -243 444 -285 q 476 -169 444 -200 q 549 -137 507 -137 q 623 -169 592 -137 q 654 -243 654 -200 q 623 -316 654 -285 q 549 -347 592 -347 z "},"ǲ":{"ha":1761,"x_min":24,"x_max":1707,"o":"m 24 0 l 24 39 l 513 39 q 647 60 592 39 q 735 134 701 81 q 785 283 769 188 q 800 525 800 378 q 785 766 800 672 q 737 913 771 860 q 650 988 703 967 q 521 1008 597 1008 l 24 1008 l 24 1047 l 564 1047 q 755 1005 667 1047 q 910 890 843 963 q 1013 723 976 817 q 1050 526 1050 629 q 1012 328 1050 424 q 906 160 974 233 q 749 43 839 86 q 554 0 658 0 l 24 0 m 163 21 l 163 1047 l 371 1047 l 371 21 l 163 21 m 1147 21 l 1143 49 l 1525 613 l 1688 613 l 1707 578 l 1335 21 l 1147 21 m 1143 0 l 1143 49 l 1154 39 l 1475 39 q 1607 88 1553 39 q 1665 235 1661 138 l 1667 257 l 1706 257 l 1706 0 l 1143 0 m 1183 382 l 1183 625 l 1707 625 l 1707 578 l 1696 586 l 1414 586 q 1312 558 1354 586 q 1247 484 1269 531 q 1222 382 1224 438 l 1183 382 z "},"ǅ":{"ha":1761,"x_min":24,"x_max":1707,"o":"m 24 0 l 24 39 l 513 39 q 647 60 592 39 q 735 134 701 81 q 785 283 769 188 q 800 525 800 378 q 785 766 800 672 q 737 913 771 860 q 650 988 703 967 q 521 1008 597 1008 l 24 1008 l 24 1047 l 564 1047 q 755 1005 667 1047 q 910 890 843 963 q 1013 723 976 817 q 1050 526 1050 629 q 1012 328 1050 424 q 906 160 974 233 q 749 43 839 86 q 554 0 658 0 l 24 0 m 163 21 l 163 1047 l 371 1047 l 371 21 l 163 21 m 1147 21 l 1143 49 l 1525 613 l 1688 613 l 1707 578 l 1335 21 l 1147 21 m 1143 0 l 1143 49 l 1154 39 l 1475 39 q 1607 88 1553 39 q 1665 235 1661 138 l 1667 257 l 1706 257 l 1706 0 l 1143 0 m 1183 382 l 1183 625 l 1707 625 l 1707 578 l 1696 586 l 1414 586 q 1312 558 1354 586 q 1247 484 1269 531 q 1222 382 1224 438 l 1183 382 m 1386 728 l 1186 1006 l 1246 1006 l 1429 876 l 1614 1006 l 1674 1006 l 1472 728 l 1386 728 z "},"E":{"ha":964,"x_min":22,"x_max":908,"o":"m 22 0 l 22 39 l 617 39 q 744 81 692 39 q 824 190 796 122 q 856 336 853 257 l 908 336 l 908 0 l 22 0 m 165 21 l 165 1043 l 374 1043 l 374 21 l 165 21 m 611 300 q 586 414 610 371 q 510 477 563 457 q 368 497 458 497 l 368 538 q 511 556 458 538 q 587 615 564 574 q 611 721 610 656 l 664 721 l 664 300 l 611 300 m 826 767 q 798 888 825 833 q 722 975 771 942 q 603 1008 674 1008 l 22 1008 l 22 1047 l 881 1047 l 881 767 l 826 767 z "},"É":{"ha":964,"x_min":22,"x_max":908,"o":"m 22 0 l 22 39 l 617 39 q 744 81 692 39 q 824 190 796 122 q 856 336 853 257 l 908 336 l 908 0 l 22 0 m 165 21 l 165 1043 l 374 1043 l 374 21 l 165 21 m 611 300 q 586 414 610 371 q 510 477 563 457 q 368 497 458 497 l 368 538 q 511 556 458 538 q 587 615 564 574 q 611 721 610 656 l 664 721 l 664 300 l 611 300 m 826 767 q 798 888 825 833 q 722 975 771 942 q 603 1008 674 1008 l 22 1008 l 22 1047 l 881 1047 l 881 767 l 826 767 m 285 1172 l 504 1313 q 567 1349 544 1339 q 614 1360 589 1360 q 663 1342 646 1360 q 681 1297 681 1324 q 665 1251 681 1272 q 608 1221 650 1229 l 363 1172 l 285 1172 z "},"Ĕ":{"ha":964,"x_min":22,"x_max":908,"o":"m 22 0 l 22 39 l 617 39 q 744 81 692 39 q 824 190 796 122 q 856 336 853 257 l 908 336 l 908 0 l 22 0 m 165 21 l 165 1043 l 374 1043 l 374 21 l 165 21 m 611 300 q 586 414 610 371 q 510 477 563 457 q 368 497 458 497 l 368 538 q 511 556 458 538 q 587 615 564 574 q 611 721 610 656 l 664 721 l 664 300 l 611 300 m 826 767 q 798 888 825 833 q 722 975 771 942 q 603 1008 674 1008 l 22 1008 l 22 1047 l 881 1047 l 881 767 l 826 767 m 483 1172 q 313 1224 371 1172 q 256 1360 256 1275 l 313 1360 q 362 1306 315 1322 q 481 1289 408 1289 q 602 1306 554 1289 q 653 1360 650 1324 l 708 1360 q 653 1226 708 1279 q 483 1172 599 1172 z "},"Ě":{"ha":964,"x_min":22,"x_max":908,"o":"m 22 0 l 22 39 l 617 39 q 744 81 692 39 q 824 190 796 122 q 856 336 853 257 l 908 336 l 908 0 l 22 0 m 165 21 l 165 1043 l 374 1043 l 374 21 l 165 21 m 611 300 q 586 414 610 371 q 510 477 563 457 q 368 497 458 497 l 368 538 q 511 556 458 538 q 587 615 564 574 q 611 721 610 656 l 664 721 l 664 300 l 611 300 m 826 767 q 798 888 825 833 q 722 975 771 942 q 603 1008 674 1008 l 22 1008 l 22 1047 l 881 1047 l 881 767 l 826 767 m 440 1172 l 221 1358 l 290 1358 l 483 1292 l 676 1358 l 744 1358 l 526 1172 l 440 1172 z "},"Ê":{"ha":964,"x_min":22,"x_max":908,"o":"m 22 0 l 22 39 l 617 39 q 744 81 692 39 q 824 190 796 122 q 856 336 853 257 l 908 336 l 908 0 l 22 0 m 165 21 l 165 1043 l 374 1043 l 374 21 l 165 21 m 611 300 q 586 414 610 371 q 510 477 563 457 q 368 497 458 497 l 368 538 q 511 556 458 538 q 587 615 564 574 q 611 721 610 656 l 664 721 l 664 300 l 611 300 m 826 767 q 798 888 825 833 q 722 975 771 942 q 603 1008 674 1008 l 22 1008 l 22 1047 l 881 1047 l 881 767 l 826 767 m 221 1172 l 440 1358 l 526 1358 l 744 1172 l 676 1172 l 483 1239 l 290 1172 l 221 1172 z "},"Ế":{"ha":964,"x_min":22,"x_max":908,"o":"m 22 0 l 22 39 l 617 39 q 744 81 692 39 q 824 190 796 122 q 856 336 853 257 l 908 336 l 908 0 l 22 0 m 165 21 l 165 1043 l 374 1043 l 374 21 l 165 21 m 611 300 q 586 414 610 371 q 510 477 563 457 q 368 497 458 497 l 368 538 q 511 556 458 538 q 587 615 564 574 q 611 721 610 656 l 664 721 l 664 300 l 611 300 m 826 767 q 798 888 825 833 q 722 975 771 942 q 603 1008 674 1008 l 22 1008 l 22 1047 l 881 1047 l 881 767 l 826 767 m 253 1149 l 439 1308 l 525 1308 l 711 1149 l 643 1149 l 482 1211 l 321 1149 l 253 1149 m 283 1350 l 503 1490 q 565 1527 543 1517 q 613 1538 588 1538 q 663 1519 646 1538 q 679 1475 679 1501 q 664 1430 679 1451 q 607 1399 649 1408 l 363 1350 l 283 1350 z "},"Ệ":{"ha":964,"x_min":22,"x_max":908,"o":"m 22 0 l 22 39 l 617 39 q 744 81 692 39 q 824 190 796 122 q 856 336 853 257 l 908 336 l 908 0 l 22 0 m 165 21 l 165 1043 l 374 1043 l 374 21 l 165 21 m 611 300 q 586 414 610 371 q 510 477 563 457 q 368 497 458 497 l 368 538 q 511 556 458 538 q 587 615 564 574 q 611 721 610 656 l 664 721 l 664 300 l 611 300 m 826 767 q 798 888 825 833 q 722 975 771 942 q 603 1008 674 1008 l 22 1008 l 22 1047 l 881 1047 l 881 767 l 826 767 m 481 -347 q 408 -316 439 -347 q 376 -243 376 -285 q 408 -169 376 -200 q 481 -137 439 -137 q 555 -169 524 -137 q 586 -243 586 -200 q 555 -316 586 -285 q 481 -347 524 -347 m 221 1172 l 440 1358 l 526 1358 l 744 1172 l 676 1172 l 483 1239 l 290 1172 l 221 1172 z "},"Ề":{"ha":964,"x_min":22,"x_max":908,"o":"m 22 0 l 22 39 l 617 39 q 744 81 692 39 q 824 190 796 122 q 856 336 853 257 l 908 336 l 908 0 l 22 0 m 165 21 l 165 1043 l 374 1043 l 374 21 l 165 21 m 611 300 q 586 414 610 371 q 510 477 563 457 q 368 497 458 497 l 368 538 q 511 556 458 538 q 587 615 564 574 q 611 721 610 656 l 664 721 l 664 300 l 611 300 m 826 767 q 798 888 825 833 q 722 975 771 942 q 603 1008 674 1008 l 22 1008 l 22 1047 l 881 1047 l 881 767 l 826 767 m 253 1149 l 439 1308 l 525 1308 l 711 1149 l 643 1149 l 482 1211 l 321 1149 l 253 1149 m 601 1354 l 356 1403 q 299 1434 314 1413 q 283 1479 283 1456 q 301 1524 283 1506 q 350 1542 318 1542 q 398 1531 376 1542 q 460 1494 419 1521 l 679 1354 l 601 1354 z "},"Ể":{"ha":964,"x_min":22,"x_max":908,"o":"m 22 0 l 22 39 l 617 39 q 744 81 692 39 q 824 190 796 122 q 856 336 853 257 l 908 336 l 908 0 l 22 0 m 165 21 l 165 1043 l 374 1043 l 374 21 l 165 21 m 611 300 q 586 414 610 371 q 510 477 563 457 q 368 497 458 497 l 368 538 q 511 556 458 538 q 587 615 564 574 q 611 721 610 656 l 664 721 l 664 300 l 611 300 m 826 767 q 798 888 825 833 q 722 975 771 942 q 603 1008 674 1008 l 22 1008 l 22 1047 l 881 1047 l 881 767 l 826 767 m 253 1149 l 439 1308 l 525 1308 l 711 1149 l 643 1149 l 482 1211 l 321 1149 l 253 1149 m 658 1308 q 667 1358 658 1339 q 690 1391 676 1378 q 713 1415 703 1404 q 722 1438 722 1425 q 706 1488 722 1474 q 661 1503 689 1503 q 619 1490 635 1503 q 603 1461 603 1476 q 610 1444 603 1447 q 622 1435 617 1440 q 628 1411 628 1429 q 613 1386 628 1394 q 578 1378 597 1378 q 535 1394 553 1378 q 518 1439 518 1411 q 538 1510 518 1483 q 590 1549 557 1536 q 661 1561 622 1561 q 769 1530 732 1561 q 807 1431 807 1499 q 792 1387 807 1401 q 758 1363 778 1372 q 724 1342 739 1354 q 707 1308 708 1331 l 658 1308 z "},"Ễ":{"ha":964,"x_min":22,"x_max":908,"o":"m 22 0 l 22 39 l 617 39 q 744 81 692 39 q 824 190 796 122 q 856 336 853 257 l 908 336 l 908 0 l 22 0 m 165 21 l 165 1043 l 374 1043 l 374 21 l 165 21 m 611 300 q 586 414 610 371 q 510 477 563 457 q 368 497 458 497 l 368 538 q 511 556 458 538 q 587 615 564 574 q 611 721 610 656 l 664 721 l 664 300 l 611 300 m 826 767 q 798 888 825 833 q 722 975 771 942 q 603 1008 674 1008 l 22 1008 l 22 1047 l 881 1047 l 881 767 l 826 767 m 253 1146 l 439 1306 l 525 1306 l 711 1146 l 643 1146 l 482 1208 l 321 1146 l 253 1146 m 219 1386 q 251 1474 226 1432 q 313 1543 275 1515 q 401 1571 350 1571 q 470 1556 439 1571 q 531 1526 501 1540 q 592 1511 560 1511 q 665 1532 640 1511 q 697 1572 689 1553 l 744 1572 q 712 1484 735 1526 q 652 1415 689 1442 q 561 1388 615 1388 q 492 1402 522 1388 q 433 1431 461 1417 q 371 1446 404 1446 q 301 1429 329 1446 q 265 1386 274 1413 l 219 1386 z "},"Ȅ":{"ha":964,"x_min":22,"x_max":908,"o":"m 22 0 l 22 39 l 617 39 q 744 81 692 39 q 824 190 796 122 q 856 336 853 257 l 908 336 l 908 0 l 22 0 m 165 21 l 165 1043 l 374 1043 l 374 21 l 165 21 m 611 300 q 586 414 610 371 q 510 477 563 457 q 368 497 458 497 l 368 538 q 511 556 458 538 q 587 615 564 574 q 611 721 610 656 l 664 721 l 664 300 l 611 300 m 826 767 q 798 888 825 833 q 722 975 771 942 q 603 1008 674 1008 l 22 1008 l 22 1047 l 881 1047 l 881 767 l 826 767 m 736 1172 l 510 1221 q 453 1251 468 1231 q 438 1297 438 1272 q 455 1342 438 1324 q 504 1360 472 1360 q 551 1349 531 1360 q 611 1311 572 1339 l 815 1172 l 736 1172 m 449 1172 l 222 1221 q 165 1251 181 1231 q 150 1297 150 1272 q 167 1342 150 1324 q 217 1360 183 1360 q 263 1349 242 1360 q 324 1311 283 1339 l 526 1172 l 449 1172 z "},"Ë":{"ha":964,"x_min":22,"x_max":908,"o":"m 22 0 l 22 39 l 617 39 q 744 81 692 39 q 824 190 796 122 q 856 336 853 257 l 908 336 l 908 0 l 22 0 m 165 21 l 165 1043 l 374 1043 l 374 21 l 165 21 m 611 300 q 586 414 610 371 q 510 477 563 457 q 368 497 458 497 l 368 538 q 511 556 458 538 q 587 615 564 574 q 611 721 610 656 l 664 721 l 664 300 l 611 300 m 826 767 q 798 888 825 833 q 722 975 771 942 q 603 1008 674 1008 l 22 1008 l 22 1047 l 881 1047 l 881 767 l 826 767 m 625 1153 q 558 1181 586 1153 q 531 1246 531 1208 q 558 1313 531 1285 q 625 1340 586 1340 q 690 1313 663 1340 q 718 1246 718 1285 q 690 1181 718 1208 q 625 1153 663 1153 m 339 1153 q 274 1181 301 1153 q 246 1246 246 1208 q 274 1313 246 1285 q 339 1340 301 1340 q 406 1313 378 1340 q 433 1246 433 1285 q 406 1181 433 1208 q 339 1153 378 1153 z "},"Ė":{"ha":964,"x_min":22,"x_max":908,"o":"m 22 0 l 22 39 l 617 39 q 744 81 692 39 q 824 190 796 122 q 856 336 853 257 l 908 336 l 908 0 l 22 0 m 165 21 l 165 1043 l 374 1043 l 374 21 l 165 21 m 611 300 q 586 414 610 371 q 510 477 563 457 q 368 497 458 497 l 368 538 q 511 556 458 538 q 587 615 564 574 q 611 721 610 656 l 664 721 l 664 300 l 611 300 m 826 767 q 798 888 825 833 q 722 975 771 942 q 603 1008 674 1008 l 22 1008 l 22 1047 l 881 1047 l 881 767 l 826 767 m 481 1146 q 408 1177 439 1146 q 376 1251 376 1208 q 408 1326 376 1294 q 481 1357 439 1357 q 555 1326 524 1357 q 586 1251 586 1294 q 555 1177 586 1208 q 481 1146 524 1146 z "},"Ẹ":{"ha":964,"x_min":22,"x_max":908,"o":"m 22 0 l 22 39 l 617 39 q 744 81 692 39 q 824 190 796 122 q 856 336 853 257 l 908 336 l 908 0 l 22 0 m 165 21 l 165 1043 l 374 1043 l 374 21 l 165 21 m 611 300 q 586 414 610 371 q 510 477 563 457 q 368 497 458 497 l 368 538 q 511 556 458 538 q 587 615 564 574 q 611 721 610 656 l 664 721 l 664 300 l 611 300 m 826 767 q 798 888 825 833 q 722 975 771 942 q 603 1008 674 1008 l 22 1008 l 22 1047 l 881 1047 l 881 767 l 826 767 m 481 -347 q 408 -316 439 -347 q 376 -243 376 -285 q 408 -169 376 -200 q 481 -137 439 -137 q 555 -169 524 -137 q 586 -243 586 -200 q 555 -316 586 -285 q 481 -347 524 -347 z "},"È":{"ha":964,"x_min":22,"x_max":908,"o":"m 22 0 l 22 39 l 617 39 q 744 81 692 39 q 824 190 796 122 q 856 336 853 257 l 908 336 l 908 0 l 22 0 m 165 21 l 165 1043 l 374 1043 l 374 21 l 165 21 m 611 300 q 586 414 610 371 q 510 477 563 457 q 368 497 458 497 l 368 538 q 511 556 458 538 q 587 615 564 574 q 611 721 610 656 l 664 721 l 664 300 l 611 300 m 826 767 q 798 888 825 833 q 722 975 771 942 q 603 1008 674 1008 l 22 1008 l 22 1047 l 881 1047 l 881 767 l 826 767 m 601 1172 l 357 1221 q 300 1251 315 1229 q 285 1297 285 1272 q 301 1342 285 1324 q 351 1360 318 1360 q 399 1349 376 1360 q 461 1313 421 1339 l 681 1172 l 601 1172 z "},"Ẻ":{"ha":964,"x_min":22,"x_max":908,"o":"m 22 0 l 22 39 l 617 39 q 744 81 692 39 q 824 190 796 122 q 856 336 853 257 l 908 336 l 908 0 l 22 0 m 165 21 l 165 1043 l 374 1043 l 374 21 l 165 21 m 611 300 q 586 414 610 371 q 510 477 563 457 q 368 497 458 497 l 368 538 q 511 556 458 538 q 587 615 564 574 q 611 721 610 656 l 664 721 l 664 300 l 611 300 m 826 767 q 798 888 825 833 q 722 975 771 942 q 603 1008 674 1008 l 22 1008 l 22 1047 l 881 1047 l 881 767 l 826 767 m 476 1131 q 486 1181 476 1161 q 509 1213 496 1200 q 531 1240 522 1226 q 540 1272 540 1253 q 524 1312 540 1299 q 481 1325 507 1325 q 437 1312 453 1325 q 421 1283 421 1299 q 427 1266 421 1269 q 440 1257 433 1263 q 447 1233 447 1251 q 431 1208 447 1217 q 396 1200 415 1200 q 354 1217 371 1200 q 338 1261 338 1233 q 357 1332 338 1306 q 409 1371 376 1358 q 479 1383 442 1383 q 588 1355 551 1383 q 625 1274 625 1326 q 611 1218 625 1238 q 578 1188 597 1199 q 543 1165 558 1176 q 525 1131 528 1153 l 476 1131 z "},"Ȇ":{"ha":964,"x_min":22,"x_max":908,"o":"m 22 0 l 22 39 l 617 39 q 744 81 692 39 q 824 190 796 122 q 856 336 853 257 l 908 336 l 908 0 l 22 0 m 165 21 l 165 1043 l 374 1043 l 374 21 l 165 21 m 611 300 q 586 414 610 371 q 510 477 563 457 q 368 497 458 497 l 368 538 q 511 556 458 538 q 587 615 564 574 q 611 721 610 656 l 664 721 l 664 300 l 611 300 m 826 767 q 798 888 825 833 q 722 975 771 942 q 603 1008 674 1008 l 22 1008 l 22 1047 l 881 1047 l 881 767 l 826 767 m 256 1172 q 313 1308 256 1257 q 483 1360 371 1360 q 653 1306 599 1360 q 708 1172 708 1253 l 653 1172 q 602 1225 650 1208 q 481 1242 554 1242 q 362 1226 408 1242 q 313 1172 315 1210 l 256 1172 z "},"Ē":{"ha":964,"x_min":22,"x_max":908,"o":"m 22 0 l 22 39 l 617 39 q 744 81 692 39 q 824 190 796 122 q 856 336 853 257 l 908 336 l 908 0 l 22 0 m 165 21 l 165 1043 l 374 1043 l 374 21 l 165 21 m 611 300 q 586 414 610 371 q 510 477 563 457 q 368 497 458 497 l 368 538 q 511 556 458 538 q 587 615 564 574 q 611 721 610 656 l 664 721 l 664 300 l 611 300 m 826 767 q 798 888 825 833 q 722 975 771 942 q 603 1008 674 1008 l 22 1008 l 22 1047 l 881 1047 l 881 767 l 826 767 m 257 1182 l 257 1292 l 719 1292 l 719 1182 l 257 1182 z "},"Ę":{"ha":964,"x_min":22,"x_max":908,"o":"m 22 0 l 22 39 l 617 39 q 744 81 692 39 q 824 190 796 122 q 856 336 853 257 l 908 336 l 908 0 l 22 0 m 165 21 l 165 1043 l 374 1043 l 374 21 l 165 21 m 611 300 q 586 414 610 371 q 510 477 563 457 q 368 497 458 497 l 368 538 q 511 556 458 538 q 587 615 564 574 q 611 721 610 656 l 664 721 l 664 300 l 611 300 m 826 767 q 798 888 825 833 q 722 975 771 942 q 603 1008 674 1008 l 22 1008 l 22 1047 l 881 1047 l 881 767 l 826 767 m 732 -337 q 642 -306 676 -337 q 608 -222 608 -275 q 627 -151 608 -186 q 690 -77 646 -117 q 807 14 733 -37 l 867 14 q 761 -101 799 -43 q 724 -210 724 -160 q 779 -269 724 -269 q 818 -261 799 -269 q 863 -233 838 -253 l 868 -233 l 868 -278 q 808 -322 844 -306 q 732 -337 772 -337 z "},"Ẽ":{"ha":964,"x_min":22,"x_max":908,"o":"m 22 0 l 22 39 l 617 39 q 744 81 692 39 q 824 190 796 122 q 856 336 853 257 l 908 336 l 908 0 l 22 0 m 165 21 l 165 1043 l 374 1043 l 374 21 l 165 21 m 611 300 q 586 414 610 371 q 510 477 563 457 q 368 497 458 497 l 368 538 q 511 556 458 538 q 587 615 564 574 q 611 721 610 656 l 664 721 l 664 300 l 611 300 m 826 767 q 798 888 825 833 q 722 975 771 942 q 603 1008 674 1008 l 22 1008 l 22 1047 l 881 1047 l 881 767 l 826 767 m 219 1172 q 250 1260 226 1218 q 312 1329 274 1301 q 401 1357 350 1357 q 470 1342 439 1357 q 531 1312 501 1326 q 592 1297 560 1297 q 665 1318 640 1297 q 699 1358 689 1339 l 746 1358 q 712 1270 735 1313 q 653 1201 689 1228 q 561 1174 617 1174 q 492 1188 522 1174 q 433 1217 461 1203 q 371 1232 404 1232 q 302 1215 331 1232 q 265 1172 274 1199 l 219 1172 z "},"Ə":{"ha":1085,"x_min":61,"x_max":1033,"o":"m 532 -18 q 354 15 439 -18 q 203 111 269 49 q 99 263 138 174 q 61 463 61 351 l 61 481 l 835 481 l 835 429 l 306 429 l 306 254 q 363 83 306 139 q 535 28 419 28 q 647 49 600 28 q 725 124 694 69 q 770 274 756 178 q 785 519 785 371 q 760 812 785 704 q 681 967 736 919 q 533 1014 626 1014 q 365 976 444 1014 q 228 870 286 938 q 139 713 169 803 l 86 713 q 184 896 117 818 q 342 1017 251 974 q 531 1061 432 1061 q 728 1017 636 1061 q 888 899 819 974 q 995 727 957 824 q 1033 525 1033 631 q 998 328 1033 425 q 897 153 963 232 q 738 28 831 75 q 532 -18 646 -18 z "},"F":{"ha":954,"x_min":24,"x_max":886,"o":"m 833 735 q 805 870 832 808 q 728 970 778 932 q 610 1008 679 1008 l 24 1008 l 24 1047 l 886 1047 l 886 735 l 833 735 m 24 0 l 24 39 l 544 39 l 544 0 l 24 0 m 167 19 l 167 1047 l 375 1047 l 375 19 l 167 19 m 613 299 q 588 413 611 369 q 512 477 564 457 q 369 497 460 497 l 369 536 q 513 555 460 536 q 588 614 565 574 q 613 721 611 654 l 665 721 l 665 299 l 613 299 z "},"G":{"ha":1072,"x_min":67,"x_max":1056,"o":"m 544 -18 q 353 24 440 -18 q 202 140 267 65 q 102 309 138 214 q 67 511 67 404 q 106 724 67 624 q 215 899 146 824 q 376 1018 283 975 q 578 1061 469 1061 q 697 1042 644 1061 q 807 978 750 1022 l 864 1047 l 903 1047 l 903 724 l 864 724 q 818 865 851 799 q 725 973 785 931 q 571 1015 665 1015 q 469 994 515 1015 q 389 919 424 974 q 335 763 354 864 q 317 500 317 663 q 332 268 317 360 q 376 125 347 176 q 446 53 404 74 q 540 32 488 32 q 674 76 628 32 q 719 199 719 119 l 719 392 l 957 392 l 957 278 q 881 124 942 190 q 731 20 819 58 q 544 -18 642 -18 m 574 374 l 574 414 l 1056 414 l 1056 374 l 574 374 z "},"Ǵ":{"ha":1072,"x_min":67,"x_max":1056,"o":"m 544 -18 q 353 24 440 -18 q 202 140 267 65 q 102 309 138 214 q 67 511 67 404 q 106 724 67 624 q 215 899 146 824 q 376 1018 283 975 q 578 1061 469 1061 q 697 1042 644 1061 q 807 978 750 1022 l 864 1047 l 903 1047 l 903 724 l 864 724 q 818 865 851 799 q 725 973 785 931 q 571 1015 665 1015 q 469 994 515 1015 q 389 919 424 974 q 335 763 354 864 q 317 500 317 663 q 332 268 317 360 q 376 125 347 176 q 446 53 404 74 q 540 32 488 32 q 674 76 628 32 q 719 199 719 119 l 719 392 l 957 392 l 957 278 q 881 124 942 190 q 731 20 819 58 q 544 -18 642 -18 m 574 374 l 574 414 l 1056 414 l 1056 374 l 574 374 m 339 1172 l 558 1313 q 621 1349 599 1339 q 668 1360 643 1360 q 717 1342 700 1360 q 735 1297 735 1324 q 719 1251 735 1272 q 663 1221 704 1229 l 417 1172 l 339 1172 z "},"Ğ":{"ha":1072,"x_min":67,"x_max":1056,"o":"m 544 -18 q 353 24 440 -18 q 202 140 267 65 q 102 309 138 214 q 67 511 67 404 q 106 724 67 624 q 215 899 146 824 q 376 1018 283 975 q 578 1061 469 1061 q 697 1042 644 1061 q 807 978 750 1022 l 864 1047 l 903 1047 l 903 724 l 864 724 q 818 865 851 799 q 725 973 785 931 q 571 1015 665 1015 q 469 994 515 1015 q 389 919 424 974 q 335 763 354 864 q 317 500 317 663 q 332 268 317 360 q 376 125 347 176 q 446 53 404 74 q 540 32 488 32 q 674 76 628 32 q 719 199 719 119 l 719 392 l 957 392 l 957 278 q 881 124 942 190 q 731 20 819 58 q 544 -18 642 -18 m 574 374 l 574 414 l 1056 414 l 1056 374 l 574 374 m 538 1172 q 367 1224 425 1172 q 310 1360 310 1275 l 367 1360 q 416 1306 369 1322 q 535 1289 463 1289 q 656 1306 608 1289 q 707 1360 704 1324 l 763 1360 q 708 1226 763 1279 q 538 1172 653 1172 z "},"Ĝ":{"ha":1072,"x_min":67,"x_max":1056,"o":"m 544 -18 q 353 24 440 -18 q 202 140 267 65 q 102 309 138 214 q 67 511 67 404 q 106 724 67 624 q 215 899 146 824 q 376 1018 283 975 q 578 1061 469 1061 q 697 1042 644 1061 q 807 978 750 1022 l 864 1047 l 903 1047 l 903 724 l 864 724 q 818 865 851 799 q 725 973 785 931 q 571 1015 665 1015 q 469 994 515 1015 q 389 919 424 974 q 335 763 354 864 q 317 500 317 663 q 332 268 317 360 q 376 125 347 176 q 446 53 404 74 q 540 32 488 32 q 674 76 628 32 q 719 199 719 119 l 719 392 l 957 392 l 957 278 q 881 124 942 190 q 731 20 819 58 q 544 -18 642 -18 m 574 374 l 574 414 l 1056 414 l 1056 374 l 574 374 m 275 1172 l 494 1358 l 581 1358 l 799 1172 l 731 1172 l 538 1239 l 344 1172 l 275 1172 z "},"Ģ":{"ha":1072,"x_min":67,"x_max":1056,"o":"m 544 -18 q 353 24 440 -18 q 202 140 267 65 q 102 309 138 214 q 67 511 67 404 q 106 724 67 624 q 215 899 146 824 q 376 1018 283 975 q 578 1061 469 1061 q 697 1042 644 1061 q 807 978 750 1022 l 864 1047 l 903 1047 l 903 724 l 864 724 q 818 865 851 799 q 725 973 785 931 q 571 1015 665 1015 q 469 994 515 1015 q 389 919 424 974 q 335 763 354 864 q 317 500 317 663 q 332 268 317 360 q 376 125 347 176 q 446 53 404 74 q 540 32 488 32 q 674 76 628 32 q 719 199 719 119 l 719 392 l 957 392 l 957 278 q 881 124 942 190 q 731 20 819 58 q 544 -18 642 -18 m 574 374 l 574 414 l 1056 414 l 1056 374 l 574 374 m 488 -433 l 460 -403 q 566 -330 535 -364 q 597 -257 597 -296 q 592 -237 597 -242 q 581 -232 586 -232 q 565 -242 574 -232 q 541 -263 556 -253 q 501 -274 526 -274 q 446 -249 467 -274 q 425 -192 425 -225 q 453 -126 425 -153 q 526 -100 481 -100 q 617 -142 586 -100 q 649 -240 649 -183 q 608 -349 649 -304 q 488 -433 567 -394 z "},"Ġ":{"ha":1072,"x_min":67,"x_max":1056,"o":"m 544 -18 q 353 24 440 -18 q 202 140 267 65 q 102 309 138 214 q 67 511 67 404 q 106 724 67 624 q 215 899 146 824 q 376 1018 283 975 q 578 1061 469 1061 q 697 1042 644 1061 q 807 978 750 1022 l 864 1047 l 903 1047 l 903 724 l 864 724 q 818 865 851 799 q 725 973 785 931 q 571 1015 665 1015 q 469 994 515 1015 q 389 919 424 974 q 335 763 354 864 q 317 500 317 663 q 332 268 317 360 q 376 125 347 176 q 446 53 404 74 q 540 32 488 32 q 674 76 628 32 q 719 199 719 119 l 719 392 l 957 392 l 957 278 q 881 124 942 190 q 731 20 819 58 q 544 -18 642 -18 m 574 374 l 574 414 l 1056 414 l 1056 374 l 574 374 m 535 1146 q 462 1177 493 1146 q 431 1251 431 1208 q 462 1326 431 1294 q 535 1357 493 1357 q 609 1326 578 1357 q 640 1251 640 1294 q 609 1177 640 1208 q 535 1146 578 1146 z "},"H":{"ha":1136,"x_min":25,"x_max":1117,"o":"m 25 0 l 25 39 l 164 39 l 164 1008 l 25 1008 l 25 1047 l 514 1047 l 514 1008 l 372 1008 l 372 560 l 767 560 l 767 1008 l 625 1008 l 625 1047 l 1117 1047 l 1117 1008 l 975 1008 l 975 39 l 1117 39 l 1117 0 l 625 0 l 625 39 l 767 39 l 767 519 l 372 519 l 372 39 l 514 39 l 514 0 l 25 0 z "},"Ħ":{"ha":1136,"x_min":25,"x_max":1117,"o":"m 28 754 l 28 803 l 1096 803 l 1096 754 l 28 754 m 25 0 l 25 39 l 164 39 l 164 1008 l 25 1008 l 25 1047 l 514 1047 l 514 1008 l 372 1008 l 372 560 l 767 560 l 767 1008 l 625 1008 l 625 1047 l 1117 1047 l 1117 1008 l 975 1008 l 975 39 l 1117 39 l 1117 0 l 625 0 l 625 39 l 767 39 l 767 519 l 372 519 l 372 39 l 514 39 l 514 0 l 25 0 z "},"Ĥ":{"ha":1136,"x_min":25,"x_max":1117,"o":"m 25 0 l 25 39 l 164 39 l 164 1008 l 25 1008 l 25 1047 l 514 1047 l 514 1008 l 372 1008 l 372 560 l 767 560 l 767 1008 l 625 1008 l 625 1047 l 1117 1047 l 1117 1008 l 975 1008 l 975 39 l 1117 39 l 1117 0 l 625 0 l 625 39 l 767 39 l 767 519 l 372 519 l 372 39 l 514 39 l 514 0 l 25 0 m 306 1172 l 525 1358 l 611 1358 l 829 1172 l 761 1172 l 568 1239 l 375 1172 l 306 1172 z "},"Ḥ":{"ha":1136,"x_min":25,"x_max":1117,"o":"m 25 0 l 25 39 l 164 39 l 164 1008 l 25 1008 l 25 1047 l 514 1047 l 514 1008 l 372 1008 l 372 560 l 767 560 l 767 1008 l 625 1008 l 625 1047 l 1117 1047 l 1117 1008 l 975 1008 l 975 39 l 1117 39 l 1117 0 l 625 0 l 625 39 l 767 39 l 767 519 l 372 519 l 372 39 l 514 39 l 514 0 l 25 0 m 567 -347 q 494 -316 525 -347 q 463 -243 463 -285 q 494 -169 463 -200 q 567 -137 525 -137 q 641 -169 610 -137 q 672 -243 672 -200 q 641 -316 672 -285 q 567 -347 610 -347 z "},"I":{"ha":533,"x_min":25,"x_max":514,"o":"m 164 21 l 164 1047 l 372 1047 l 372 21 l 164 21 m 25 0 l 25 39 l 514 39 l 514 0 l 25 0 m 25 1008 l 25 1047 l 514 1047 l 514 1008 l 25 1008 z "},"Ĳ":{"ha":1103,"x_min":25,"x_max":1061,"o":"m 164 21 l 164 1047 l 372 1047 l 372 21 l 164 21 m 25 0 l 25 39 l 514 39 l 514 0 l 25 0 m 25 1008 l 25 1047 l 514 1047 l 514 1008 l 25 1008 m 608 -144 q 465 -104 515 -144 q 414 -1 414 -64 q 444 84 414 51 q 519 117 475 117 q 588 91 557 117 q 618 22 618 65 q 606 -30 618 -10 q 593 -67 593 -50 q 605 -87 593 -81 q 631 -94 617 -94 q 671 -79 650 -94 q 706 -26 692 -64 q 721 83 721 13 l 721 1047 l 929 1047 l 929 185 q 904 46 929 107 q 835 -58 879 -15 q 732 -122 790 -100 q 608 -144 674 -144 m 574 1008 l 574 1047 l 1063 1047 l 1063 1008 l 574 1008 z "},"Í":{"ha":533,"x_min":25,"x_max":514,"o":"m 164 21 l 164 1047 l 372 1047 l 372 21 l 164 21 m 25 0 l 25 39 l 514 39 l 514 0 l 25 0 m 25 1008 l 25 1047 l 514 1047 l 514 1008 l 25 1008 m 68 1172 l 288 1313 q 350 1349 328 1339 q 397 1360 372 1360 q 447 1342 429 1360 q 464 1297 464 1324 q 449 1251 464 1272 q 392 1221 433 1229 l 146 1172 l 68 1172 z "},"Ĭ":{"ha":533,"x_min":25,"x_max":514,"o":"m 164 21 l 164 1047 l 372 1047 l 372 21 l 164 21 m 25 0 l 25 39 l 514 39 l 514 0 l 25 0 m 25 1008 l 25 1047 l 514 1047 l 514 1008 l 25 1008 m 267 1172 q 97 1224 154 1172 q 39 1360 39 1275 l 96 1360 q 145 1306 99 1322 q 264 1289 192 1289 q 385 1306 338 1289 q 436 1360 433 1324 l 492 1360 q 437 1226 492 1279 q 267 1172 382 1172 z "},"Î":{"ha":533,"x_min":4,"x_max":529,"o":"m 164 21 l 164 1047 l 372 1047 l 372 21 l 164 21 m 25 0 l 25 39 l 514 39 l 514 0 l 25 0 m 25 1008 l 25 1047 l 514 1047 l 514 1008 l 25 1008 m 4 1172 l 224 1358 l 310 1358 l 528 1172 l 460 1172 l 267 1239 l 74 1172 l 4 1172 z "},"Ȉ":{"ha":533,"x_min":-67,"x_max":599,"o":"m 164 21 l 164 1047 l 372 1047 l 372 21 l 164 21 m 25 0 l 25 39 l 514 39 l 514 0 l 25 0 m 25 1008 l 25 1047 l 514 1047 l 514 1008 l 25 1008 m 519 1172 l 293 1221 q 236 1251 251 1231 q 221 1297 221 1272 q 238 1342 221 1324 q 288 1360 256 1360 q 335 1349 314 1360 q 394 1311 356 1339 l 599 1172 l 519 1172 m 232 1172 l 6 1221 q -51 1251 -36 1231 q -67 1297 -67 1272 q -50 1342 -67 1324 q 0 1360 -33 1360 q 46 1349 25 1360 q 107 1311 67 1339 l 310 1172 l 232 1172 z "},"Ï":{"ha":533,"x_min":25,"x_max":514,"o":"m 164 21 l 164 1047 l 372 1047 l 372 21 l 164 21 m 25 0 l 25 39 l 514 39 l 514 0 l 25 0 m 25 1008 l 25 1047 l 514 1047 l 514 1008 l 25 1008 m 410 1153 q 343 1181 371 1153 q 315 1246 315 1208 q 343 1313 315 1285 q 410 1340 371 1340 q 475 1313 447 1340 q 503 1246 503 1285 q 475 1181 503 1208 q 410 1153 447 1153 m 124 1153 q 58 1181 86 1153 q 31 1246 31 1208 q 58 1313 31 1285 q 124 1340 86 1340 q 190 1313 163 1340 q 218 1246 218 1285 q 190 1181 218 1208 q 124 1153 163 1153 z "},"İ":{"ha":533,"x_min":25,"x_max":514,"o":"m 164 21 l 164 1047 l 372 1047 l 372 21 l 164 21 m 25 0 l 25 39 l 514 39 l 514 0 l 25 0 m 25 1008 l 25 1047 l 514 1047 l 514 1008 l 25 1008 m 265 1146 q 192 1177 224 1146 q 161 1251 161 1208 q 192 1326 161 1294 q 265 1357 224 1357 q 340 1326 308 1357 q 371 1251 371 1294 q 340 1177 371 1208 q 265 1146 308 1146 z "},"Ị":{"ha":533,"x_min":25,"x_max":514,"o":"m 164 21 l 164 1047 l 372 1047 l 372 21 l 164 21 m 25 0 l 25 39 l 514 39 l 514 0 l 25 0 m 25 1008 l 25 1047 l 514 1047 l 514 1008 l 25 1008 m 265 -347 q 192 -316 224 -347 q 161 -243 161 -285 q 192 -169 161 -200 q 265 -137 224 -137 q 340 -169 308 -137 q 371 -243 371 -200 q 340 -316 371 -285 q 265 -347 308 -347 z "},"Ì":{"ha":533,"x_min":25,"x_max":514,"o":"m 164 21 l 164 1047 l 372 1047 l 372 21 l 164 21 m 25 0 l 25 39 l 514 39 l 514 0 l 25 0 m 25 1008 l 25 1047 l 514 1047 l 514 1008 l 25 1008 m 385 1172 l 140 1221 q 83 1251 99 1229 q 68 1297 68 1272 q 85 1342 68 1324 q 135 1360 101 1360 q 182 1349 160 1360 q 244 1313 204 1339 l 464 1172 l 385 1172 z "},"Ỉ":{"ha":533,"x_min":25,"x_max":514,"o":"m 164 21 l 164 1047 l 372 1047 l 372 21 l 164 21 m 25 0 l 25 39 l 514 39 l 514 0 l 25 0 m 25 1008 l 25 1047 l 514 1047 l 514 1008 l 25 1008 m 261 1131 q 271 1181 261 1161 q 294 1213 281 1200 q 316 1240 307 1226 q 325 1272 325 1253 q 308 1312 325 1299 q 265 1325 292 1325 q 222 1312 238 1325 q 206 1283 206 1299 q 212 1266 206 1269 q 225 1257 218 1263 q 232 1233 232 1251 q 216 1208 232 1217 q 181 1200 200 1200 q 139 1217 156 1200 q 122 1261 122 1233 q 142 1332 122 1306 q 194 1371 161 1358 q 264 1383 226 1383 q 373 1355 336 1383 q 410 1274 410 1326 q 396 1218 410 1238 q 363 1188 382 1199 q 328 1165 343 1176 q 310 1131 313 1153 l 261 1131 z "},"Ȋ":{"ha":533,"x_min":25,"x_max":514,"o":"m 164 21 l 164 1047 l 372 1047 l 372 21 l 164 21 m 25 0 l 25 39 l 514 39 l 514 0 l 25 0 m 25 1008 l 25 1047 l 514 1047 l 514 1008 l 25 1008 m 39 1172 q 97 1308 39 1257 q 267 1360 154 1360 q 437 1306 382 1360 q 492 1172 492 1253 l 436 1172 q 385 1225 433 1208 q 264 1242 338 1242 q 145 1226 192 1242 q 96 1172 99 1210 l 39 1172 z "},"Ī":{"ha":533,"x_min":25,"x_max":514,"o":"m 164 21 l 164 1047 l 372 1047 l 372 21 l 164 21 m 25 0 l 25 39 l 514 39 l 514 0 l 25 0 m 25 1008 l 25 1047 l 514 1047 l 514 1008 l 25 1008 m 42 1182 l 42 1292 l 504 1292 l 504 1182 l 42 1182 z "},"Į":{"ha":533,"x_min":25,"x_max":514,"o":"m 164 21 l 164 1047 l 372 1047 l 372 21 l 164 21 m 25 0 l 25 39 l 514 39 l 514 0 l 25 0 m 25 1008 l 25 1047 l 514 1047 l 514 1008 l 25 1008 m 343 -337 q 253 -306 288 -337 q 219 -222 219 -275 q 238 -151 219 -186 q 301 -77 257 -117 q 418 14 344 -37 l 478 14 q 372 -101 410 -43 q 335 -210 335 -160 q 390 -269 335 -269 q 429 -261 410 -269 q 474 -233 449 -253 l 479 -233 l 479 -278 q 419 -322 456 -306 q 343 -337 383 -337 z "},"Ĩ":{"ha":533,"x_min":4,"x_max":529,"o":"m 164 21 l 164 1047 l 372 1047 l 372 21 l 164 21 m 25 0 l 25 39 l 514 39 l 514 0 l 25 0 m 25 1008 l 25 1047 l 514 1047 l 514 1008 l 25 1008 m 4 1172 q 35 1260 11 1218 q 97 1329 58 1301 q 186 1357 135 1357 q 255 1342 224 1357 q 315 1312 286 1326 q 376 1297 344 1297 q 449 1318 425 1297 q 483 1358 474 1339 l 531 1358 q 497 1270 519 1313 q 438 1201 474 1228 q 346 1174 401 1174 q 276 1188 307 1174 q 217 1217 246 1203 q 156 1232 189 1232 q 87 1215 115 1232 q 50 1172 58 1199 l 4 1172 z "},"J":{"ha":571,"x_min":-119,"x_max":529,"o":"m 75 -144 q -69 -104 -18 -144 q -119 -1 -119 -64 q -89 84 -119 51 q -14 117 -58 117 q 54 91 24 117 q 85 22 85 65 q 72 -30 85 -10 q 60 -67 60 -50 q 72 -87 60 -81 q 97 -94 83 -94 q 138 -79 117 -94 q 173 -26 158 -64 q 188 83 188 13 l 188 1047 l 396 1047 l 396 185 q 371 46 396 107 q 301 -58 346 -15 q 199 -122 257 -100 q 75 -144 140 -144 m 40 1008 l 40 1047 l 529 1047 l 529 1008 l 40 1008 z "},"Ĵ":{"ha":571,"x_min":-119,"x_max":547,"o":"m 75 -144 q -69 -104 -18 -144 q -119 -1 -119 -64 q -89 84 -119 51 q -14 117 -58 117 q 54 91 24 117 q 85 22 85 65 q 72 -30 85 -10 q 60 -67 60 -50 q 72 -87 60 -81 q 97 -94 83 -94 q 138 -79 117 -94 q 173 -26 158 -64 q 188 83 188 13 l 188 1047 l 396 1047 l 396 185 q 371 46 396 107 q 301 -58 346 -15 q 199 -122 257 -100 q 75 -144 140 -144 m 40 1008 l 40 1047 l 529 1047 l 529 1008 l 40 1008 m 24 1172 l 243 1358 l 329 1358 l 547 1172 l 479 1172 l 286 1239 l 93 1172 l 24 1172 z "},"K":{"ha":1089,"x_min":25,"x_max":1128,"o":"m 25 0 l 25 39 l 164 39 l 164 1008 l 25 1008 l 25 1047 l 508 1047 l 508 1008 l 372 1008 l 372 39 l 508 39 l 508 0 l 25 0 m 610 0 l 610 40 l 1128 40 l 1128 0 l 610 0 m 775 21 l 400 535 l 560 681 l 1036 21 l 775 21 m 339 435 l 339 504 l 831 1022 l 893 1022 l 339 435 m 649 1008 l 649 1047 l 1042 1047 l 1042 1008 l 649 1008 z "},"Ķ":{"ha":1089,"x_min":25,"x_max":1128,"o":"m 25 0 l 25 39 l 164 39 l 164 1008 l 25 1008 l 25 1047 l 508 1047 l 508 1008 l 372 1008 l 372 39 l 508 39 l 508 0 l 25 0 m 610 0 l 610 40 l 1128 40 l 1128 0 l 610 0 m 775 21 l 400 535 l 560 681 l 1036 21 l 775 21 m 339 435 l 339 504 l 831 1022 l 893 1022 l 339 435 m 649 1008 l 649 1047 l 1042 1047 l 1042 1008 l 649 1008 m 496 -433 l 468 -403 q 574 -330 543 -364 q 606 -257 606 -296 q 600 -237 606 -242 q 589 -232 594 -232 q 573 -242 582 -232 q 549 -263 564 -253 q 510 -274 535 -274 q 454 -249 475 -274 q 433 -192 433 -225 q 461 -126 433 -153 q 535 -100 489 -100 q 626 -142 594 -100 q 657 -240 657 -183 q 616 -349 657 -304 q 496 -433 575 -394 z "},"L":{"ha":938,"x_min":25,"x_max":903,"o":"m 25 0 l 25 39 l 613 39 q 740 81 688 39 q 820 190 792 122 q 850 336 849 257 l 903 336 l 903 0 l 25 0 m 167 21 l 167 1047 l 375 1047 l 375 21 l 167 21 m 25 1008 l 25 1047 l 540 1047 l 540 1008 l 25 1008 z "},"Ǉ":{"ha":1644,"x_min":25,"x_max":1603,"o":"m 25 0 l 25 39 l 613 39 q 740 81 688 39 q 820 190 792 122 q 850 336 849 257 l 903 336 l 903 0 l 25 0 m 167 21 l 167 1047 l 375 1047 l 375 21 l 167 21 m 25 1008 l 25 1047 l 540 1047 l 540 1008 l 25 1008 m 1149 -144 q 1005 -104 1056 -144 q 954 -1 954 -64 q 985 84 954 51 q 1060 117 1015 117 q 1128 91 1097 117 q 1158 22 1158 65 q 1146 -30 1158 -10 q 1133 -67 1133 -50 q 1145 -87 1133 -81 q 1171 -94 1157 -94 q 1211 -79 1190 -94 q 1247 -26 1232 -64 q 1261 83 1261 13 l 1261 1047 l 1469 1047 l 1469 185 q 1444 46 1469 107 q 1375 -58 1419 -15 q 1272 -122 1331 -100 q 1149 -144 1214 -144 m 1114 1008 l 1114 1047 l 1603 1047 l 1603 1008 l 1114 1008 z "},"Ĺ":{"ha":938,"x_min":25,"x_max":903,"o":"m 25 0 l 25 39 l 613 39 q 740 81 688 39 q 820 190 792 122 q 850 336 849 257 l 903 336 l 903 0 l 25 0 m 167 21 l 167 1047 l 375 1047 l 375 21 l 167 21 m 25 1008 l 25 1047 l 540 1047 l 540 1008 l 25 1008 m 63 1172 l 282 1313 q 344 1349 322 1339 q 392 1360 367 1360 q 441 1342 424 1360 q 458 1297 458 1324 q 443 1251 458 1272 q 386 1221 428 1229 l 140 1172 l 63 1172 z "},"Ľ":{"ha":938,"x_min":25,"x_max":903,"o":"m 25 0 l 25 39 l 613 39 q 740 81 688 39 q 820 190 792 122 q 850 336 849 257 l 903 336 l 903 0 l 25 0 m 167 21 l 167 1047 l 375 1047 l 375 21 l 167 21 m 25 1008 l 25 1047 l 540 1047 l 540 1008 l 25 1008 m 746 665 l 718 696 q 810 784 779 740 q 840 875 840 828 q 837 899 840 893 q 829 904 833 904 q 813 894 822 904 q 790 873 804 883 q 750 863 775 863 q 693 889 713 863 q 674 947 674 915 q 703 1019 674 989 q 779 1049 733 1049 q 867 1003 836 1049 q 897 896 897 958 q 856 765 897 821 q 746 665 814 710 z "},"Ļ":{"ha":938,"x_min":25,"x_max":903,"o":"m 25 0 l 25 39 l 613 39 q 740 81 688 39 q 820 190 792 122 q 850 336 849 257 l 903 336 l 903 0 l 25 0 m 167 21 l 167 1047 l 375 1047 l 375 21 l 167 21 m 25 1008 l 25 1047 l 540 1047 l 540 1008 l 25 1008 m 419 -433 l 392 -403 q 498 -330 467 -364 q 529 -257 529 -296 q 524 -237 529 -242 q 513 -232 518 -232 q 497 -242 506 -232 q 473 -263 488 -253 q 433 -274 458 -274 q 378 -249 399 -274 q 357 -192 357 -225 q 385 -126 357 -153 q 458 -100 413 -100 q 549 -142 518 -100 q 581 -240 581 -183 q 540 -349 581 -304 q 419 -433 499 -394 z "},"Ŀ":{"ha":938,"x_min":25,"x_max":903,"o":"m 25 0 l 25 39 l 613 39 q 740 81 688 39 q 820 190 792 122 q 850 336 849 257 l 903 336 l 903 0 l 25 0 m 167 21 l 167 1047 l 375 1047 l 375 21 l 167 21 m 25 1008 l 25 1047 l 540 1047 l 540 1008 l 25 1008 m 611 393 q 531 427 564 393 q 497 508 497 461 q 531 589 497 556 q 611 622 564 622 q 692 588 658 622 q 725 508 725 554 q 692 427 725 461 q 611 393 658 393 z "},"ǈ":{"ha":1385,"x_min":25,"x_max":1269,"o":"m 25 0 l 25 39 l 613 39 q 740 81 688 39 q 820 190 792 122 q 850 336 849 257 l 903 336 l 903 0 l 25 0 m 167 21 l 167 1047 l 375 1047 l 375 21 l 167 21 m 25 1008 l 25 1047 l 540 1047 l 540 1008 l 25 1008 m 999 -449 l 999 -449 q 888 -413 931 -449 q 844 -326 844 -378 q 869 -263 844 -287 q 933 -239 894 -239 q 990 -257 965 -239 q 1014 -312 1014 -275 q 1006 -348 1014 -336 q 999 -374 999 -360 q 1007 -393 999 -386 q 1026 -400 1015 -400 q 1066 -372 1049 -400 q 1083 -262 1083 -343 l 1083 586 l 963 586 l 963 625 l 1263 625 l 1263 -54 q 1228 -265 1263 -176 q 1134 -401 1193 -353 q 999 -449 1075 -449 m 1163 800 q 1090 831 1121 800 q 1058 906 1058 863 q 1090 980 1058 949 q 1163 1011 1121 1011 q 1237 980 1206 1011 q 1268 906 1268 949 q 1237 831 1268 863 q 1163 800 1206 800 z "},"Ł":{"ha":938,"x_min":25,"x_max":903,"o":"m 39 329 l 39 385 l 576 699 l 576 643 l 39 329 m 25 0 l 25 39 l 613 39 q 740 81 688 39 q 820 190 792 122 q 850 336 849 257 l 903 336 l 903 0 l 25 0 m 167 21 l 167 1047 l 375 1047 l 375 21 l 167 21 m 25 1008 l 25 1047 l 540 1047 l 540 1008 l 25 1008 z "},"M":{"ha":1268,"x_min":24,"x_max":1249,"o":"m 539 -12 l 242 942 l 236 942 l 236 39 l 389 39 l 389 0 l 24 0 l 24 39 l 176 39 l 176 1008 l 24 1008 l 24 1047 l 442 1047 l 647 382 l 651 382 l 858 1047 l 1249 1047 l 1249 1008 l 1101 1008 l 1101 39 l 1249 39 l 1249 0 l 743 0 l 743 39 l 893 39 l 893 942 l 888 942 l 593 -12 l 539 -12 z "},"N":{"ha":1076,"x_min":25,"x_max":1058,"o":"m 864 -18 l 242 910 l 236 910 l 236 39 l 389 39 l 389 0 l 25 0 l 25 39 l 178 39 l 178 1008 l 25 1008 l 25 1047 l 421 1047 l 854 410 l 860 410 l 860 1008 l 721 1008 l 721 1047 l 1058 1047 l 1058 1008 l 919 1008 l 919 -18 l 864 -18 z "},"Ǌ":{"ha":1647,"x_min":25,"x_max":1606,"o":"m 864 -18 l 242 910 l 236 910 l 236 39 l 389 39 l 389 0 l 25 0 l 25 39 l 178 39 l 178 1008 l 25 1008 l 25 1047 l 421 1047 l 854 410 l 860 410 l 860 1008 l 721 1008 l 721 1047 l 1058 1047 l 1058 1008 l 919 1008 l 919 -18 l 864 -18 m 1151 -144 q 1008 -104 1058 -144 q 957 -1 957 -64 q 988 84 957 51 q 1063 117 1018 117 q 1131 91 1100 117 q 1161 22 1161 65 q 1149 -30 1161 -10 q 1136 -67 1136 -50 q 1148 -87 1136 -81 q 1174 -94 1160 -94 q 1214 -79 1193 -94 q 1249 -26 1235 -64 q 1264 83 1264 13 l 1264 1047 l 1472 1047 l 1472 185 q 1447 46 1472 107 q 1378 -58 1422 -15 q 1275 -122 1333 -100 q 1151 -144 1217 -144 m 1117 1008 l 1117 1047 l 1606 1047 l 1606 1008 l 1117 1008 z "},"Ń":{"ha":1076,"x_min":25,"x_max":1058,"o":"m 864 -18 l 242 910 l 236 910 l 236 39 l 389 39 l 389 0 l 25 0 l 25 39 l 178 39 l 178 1008 l 25 1008 l 25 1047 l 421 1047 l 854 410 l 860 410 l 860 1008 l 721 1008 l 721 1047 l 1058 1047 l 1058 1008 l 919 1008 l 919 -18 l 864 -18 m 340 1172 l 560 1313 q 622 1349 600 1339 q 669 1360 644 1360 q 719 1342 701 1360 q 736 1297 736 1324 q 721 1251 736 1272 q 664 1221 706 1229 l 418 1172 l 340 1172 z "},"Ň":{"ha":1076,"x_min":25,"x_max":1058,"o":"m 864 -18 l 242 910 l 236 910 l 236 39 l 389 39 l 389 0 l 25 0 l 25 39 l 178 39 l 178 1008 l 25 1008 l 25 1047 l 421 1047 l 854 410 l 860 410 l 860 1008 l 721 1008 l 721 1047 l 1058 1047 l 1058 1008 l 919 1008 l 919 -18 l 864 -18 m 496 1172 l 276 1358 l 346 1358 l 539 1292 l 732 1358 l 800 1358 l 582 1172 l 496 1172 z "},"Ņ":{"ha":1076,"x_min":25,"x_max":1058,"o":"m 864 -18 l 242 910 l 236 910 l 236 39 l 389 39 l 389 0 l 25 0 l 25 39 l 178 39 l 178 1008 l 25 1008 l 25 1047 l 421 1047 l 854 410 l 860 410 l 860 1008 l 721 1008 l 721 1047 l 1058 1047 l 1058 1008 l 919 1008 l 919 -18 l 864 -18 m 489 -433 l 461 -403 q 567 -330 536 -364 q 599 -257 599 -296 q 593 -237 599 -242 q 582 -232 588 -232 q 566 -242 575 -232 q 542 -263 557 -253 q 503 -274 528 -274 q 447 -249 468 -274 q 426 -192 426 -225 q 454 -126 426 -153 q 528 -100 482 -100 q 619 -142 588 -100 q 650 -240 650 -183 q 609 -349 650 -304 q 489 -433 568 -394 z "},"Ṅ":{"ha":1076,"x_min":25,"x_max":1058,"o":"m 864 -18 l 242 910 l 236 910 l 236 39 l 389 39 l 389 0 l 25 0 l 25 39 l 178 39 l 178 1008 l 25 1008 l 25 1047 l 421 1047 l 854 410 l 860 410 l 860 1008 l 721 1008 l 721 1047 l 1058 1047 l 1058 1008 l 919 1008 l 919 -18 l 864 -18 m 538 1146 q 465 1177 496 1146 q 433 1251 433 1208 q 465 1326 433 1294 q 538 1357 496 1357 q 612 1326 581 1357 q 643 1251 643 1294 q 612 1177 643 1208 q 538 1146 581 1146 z "},"ǋ":{"ha":1524,"x_min":25,"x_max":1408,"o":"m 864 -18 l 242 910 l 236 910 l 236 39 l 389 39 l 389 0 l 25 0 l 25 39 l 178 39 l 178 1008 l 25 1008 l 25 1047 l 421 1047 l 854 410 l 860 410 l 860 1008 l 721 1008 l 721 1047 l 1058 1047 l 1058 1008 l 919 1008 l 919 -18 l 864 -18 m 1138 -449 l 1138 -449 q 1026 -413 1069 -449 q 983 -326 983 -378 q 1008 -263 983 -287 q 1072 -239 1033 -239 q 1128 -257 1104 -239 q 1153 -312 1153 -275 q 1145 -348 1153 -336 q 1138 -374 1138 -360 q 1146 -393 1138 -386 q 1165 -400 1154 -400 q 1205 -372 1188 -400 q 1222 -262 1222 -343 l 1222 586 l 1101 586 l 1101 625 l 1401 625 l 1401 -54 q 1367 -265 1401 -176 q 1273 -401 1332 -353 q 1138 -449 1214 -449 m 1303 800 q 1230 831 1261 800 q 1199 906 1199 863 q 1230 980 1199 949 q 1303 1011 1261 1011 q 1377 980 1346 1011 q 1408 906 1408 949 q 1377 831 1408 863 q 1303 800 1346 800 z "},"Ñ":{"ha":1076,"x_min":25,"x_max":1058,"o":"m 864 -18 l 242 910 l 236 910 l 236 39 l 389 39 l 389 0 l 25 0 l 25 39 l 178 39 l 178 1008 l 25 1008 l 25 1047 l 421 1047 l 854 410 l 860 410 l 860 1008 l 721 1008 l 721 1047 l 1058 1047 l 1058 1008 l 919 1008 l 919 -18 l 864 -18 m 276 1172 q 307 1260 283 1218 q 369 1329 331 1301 q 458 1357 407 1357 q 527 1342 496 1357 q 588 1312 558 1326 q 649 1297 617 1297 q 722 1318 697 1297 q 756 1358 746 1339 l 803 1358 q 769 1270 792 1313 q 710 1201 746 1228 q 618 1174 674 1174 q 549 1188 579 1174 q 490 1217 518 1203 q 428 1232 461 1232 q 359 1215 388 1232 q 322 1172 331 1199 l 276 1172 z "},"Ŋ":{"ha":1076,"x_min":25,"x_max":1058,"o":"m 733 -231 l 733 -231 q 602 -190 650 -231 q 554 -87 554 -150 q 585 -2 554 -35 q 660 31 615 31 q 728 5 697 31 q 758 -62 758 -21 q 746 -110 758 -93 q 733 -144 733 -128 q 744 -165 733 -158 q 769 -171 756 -171 q 810 -155 789 -171 q 847 -95 832 -139 q 861 31 861 -51 l 861 79 l 243 910 l 238 910 l 238 39 l 390 39 l 390 0 l 25 0 l 25 39 l 178 39 l 178 1008 l 25 1008 l 25 1047 l 421 1047 l 856 503 l 861 503 l 861 1008 l 722 1008 l 722 1047 l 1058 1047 l 1058 1008 l 919 1008 l 919 54 q 908 -78 919 -24 q 874 -166 897 -132 q 817 -215 851 -200 q 733 -231 782 -231 z "},"O":{"ha":1124,"x_min":57,"x_max":1067,"o":"m 561 -18 q 364 26 456 -18 q 203 147 272 71 q 96 319 135 222 q 57 525 57 417 q 96 728 57 632 q 203 900 135 825 q 364 1018 272 975 q 561 1061 456 1061 q 760 1018 668 1061 q 920 900 851 975 q 1028 728 989 825 q 1067 525 1067 632 q 1028 319 1067 417 q 920 147 989 222 q 760 26 851 71 q 561 -18 668 -18 m 561 29 q 680 51 631 29 q 760 127 729 72 q 803 278 790 182 q 817 524 817 375 q 803 768 817 672 q 760 917 790 864 q 681 993 729 971 q 561 1015 632 1015 q 442 993 490 1015 q 365 917 394 971 q 321 768 335 864 q 307 525 307 672 q 321 277 307 374 q 365 126 335 181 q 444 51 396 72 q 561 29 492 29 z "},"Ó":{"ha":1124,"x_min":57,"x_max":1067,"o":"m 561 -18 q 364 26 456 -18 q 203 147 272 71 q 96 319 135 222 q 57 525 57 417 q 96 728 57 632 q 203 900 135 825 q 364 1018 272 975 q 561 1061 456 1061 q 760 1018 668 1061 q 920 900 851 975 q 1028 728 989 825 q 1067 525 1067 632 q 1028 319 1067 417 q 920 147 989 222 q 760 26 851 71 q 561 -18 668 -18 m 561 29 q 680 51 631 29 q 760 127 729 72 q 803 278 790 182 q 817 524 817 375 q 803 768 817 672 q 760 917 790 864 q 681 993 729 971 q 561 1015 632 1015 q 442 993 490 1015 q 365 917 394 971 q 321 768 335 864 q 307 525 307 672 q 321 277 307 374 q 365 126 335 181 q 444 51 396 72 q 561 29 492 29 m 364 1172 l 583 1313 q 646 1349 624 1339 q 693 1360 668 1360 q 742 1342 725 1360 q 760 1297 760 1324 q 744 1251 760 1272 q 688 1221 729 1229 l 442 1172 l 364 1172 z "},"Ŏ":{"ha":1124,"x_min":57,"x_max":1067,"o":"m 561 -18 q 364 26 456 -18 q 203 147 272 71 q 96 319 135 222 q 57 525 57 417 q 96 728 57 632 q 203 900 135 825 q 364 1018 272 975 q 561 1061 456 1061 q 760 1018 668 1061 q 920 900 851 975 q 1028 728 989 825 q 1067 525 1067 632 q 1028 319 1067 417 q 920 147 989 222 q 760 26 851 71 q 561 -18 668 -18 m 561 29 q 680 51 631 29 q 760 127 729 72 q 803 278 790 182 q 817 524 817 375 q 803 768 817 672 q 760 917 790 864 q 681 993 729 971 q 561 1015 632 1015 q 442 993 490 1015 q 365 917 394 971 q 321 768 335 864 q 307 525 307 672 q 321 277 307 374 q 365 126 335 181 q 444 51 396 72 q 561 29 492 29 m 563 1172 q 392 1224 450 1172 q 335 1360 335 1275 l 392 1360 q 441 1306 394 1322 q 560 1289 488 1289 q 681 1306 633 1289 q 732 1360 729 1324 l 788 1360 q 733 1226 788 1279 q 563 1172 678 1172 z "},"Ô":{"ha":1124,"x_min":57,"x_max":1067,"o":"m 561 -18 q 364 26 456 -18 q 203 147 272 71 q 96 319 135 222 q 57 525 57 417 q 96 728 57 632 q 203 900 135 825 q 364 1018 272 975 q 561 1061 456 1061 q 760 1018 668 1061 q 920 900 851 975 q 1028 728 989 825 q 1067 525 1067 632 q 1028 319 1067 417 q 920 147 989 222 q 760 26 851 71 q 561 -18 668 -18 m 561 29 q 680 51 631 29 q 760 127 729 72 q 803 278 790 182 q 817 524 817 375 q 803 768 817 672 q 760 917 790 864 q 681 993 729 971 q 561 1015 632 1015 q 442 993 490 1015 q 365 917 394 971 q 321 768 335 864 q 307 525 307 672 q 321 277 307 374 q 365 126 335 181 q 444 51 396 72 q 561 29 492 29 m 300 1172 l 519 1358 l 606 1358 l 824 1172 l 756 1172 l 563 1239 l 369 1172 l 300 1172 z "},"Ố":{"ha":1124,"x_min":57,"x_max":1067,"o":"m 561 -18 q 364 26 456 -18 q 203 147 272 71 q 96 319 135 222 q 57 525 57 417 q 96 728 57 632 q 203 900 135 825 q 364 1018 272 975 q 561 1061 456 1061 q 760 1018 668 1061 q 920 900 851 975 q 1028 728 989 825 q 1067 525 1067 632 q 1028 319 1067 417 q 920 147 989 222 q 760 26 851 71 q 561 -18 668 -18 m 561 29 q 680 51 631 29 q 760 127 729 72 q 803 278 790 182 q 817 524 817 375 q 803 768 817 672 q 760 917 790 864 q 681 993 729 971 q 561 1015 632 1015 q 442 993 490 1015 q 365 917 394 971 q 321 768 335 864 q 307 525 307 672 q 321 277 307 374 q 365 126 335 181 q 444 51 396 72 q 561 29 492 29 m 333 1149 l 519 1308 l 606 1308 l 792 1149 l 724 1149 l 563 1211 l 401 1149 l 333 1149 m 364 1350 l 583 1490 q 646 1527 624 1517 q 693 1538 668 1538 q 743 1519 726 1538 q 760 1475 760 1501 q 744 1430 760 1451 q 688 1399 729 1408 l 443 1350 l 364 1350 z "},"Ộ":{"ha":1124,"x_min":57,"x_max":1067,"o":"m 561 -18 q 364 26 456 -18 q 203 147 272 71 q 96 319 135 222 q 57 525 57 417 q 96 728 57 632 q 203 900 135 825 q 364 1018 272 975 q 561 1061 456 1061 q 760 1018 668 1061 q 920 900 851 975 q 1028 728 989 825 q 1067 525 1067 632 q 1028 319 1067 417 q 920 147 989 222 q 760 26 851 71 q 561 -18 668 -18 m 561 29 q 680 51 631 29 q 760 127 729 72 q 803 278 790 182 q 817 524 817 375 q 803 768 817 672 q 760 917 790 864 q 681 993 729 971 q 561 1015 632 1015 q 442 993 490 1015 q 365 917 394 971 q 321 768 335 864 q 307 525 307 672 q 321 277 307 374 q 365 126 335 181 q 444 51 396 72 q 561 29 492 29 m 561 -347 q 488 -316 519 -347 q 457 -243 457 -285 q 488 -169 457 -200 q 561 -137 519 -137 q 635 -169 604 -137 q 667 -243 667 -200 q 635 -316 667 -285 q 561 -347 604 -347 m 300 1172 l 519 1358 l 606 1358 l 824 1172 l 756 1172 l 563 1239 l 369 1172 l 300 1172 z "},"Ồ":{"ha":1124,"x_min":57,"x_max":1067,"o":"m 561 -18 q 364 26 456 -18 q 203 147 272 71 q 96 319 135 222 q 57 525 57 417 q 96 728 57 632 q 203 900 135 825 q 364 1018 272 975 q 561 1061 456 1061 q 760 1018 668 1061 q 920 900 851 975 q 1028 728 989 825 q 1067 525 1067 632 q 1028 319 1067 417 q 920 147 989 222 q 760 26 851 71 q 561 -18 668 -18 m 561 29 q 680 51 631 29 q 760 127 729 72 q 803 278 790 182 q 817 524 817 375 q 803 768 817 672 q 760 917 790 864 q 681 993 729 971 q 561 1015 632 1015 q 442 993 490 1015 q 365 917 394 971 q 321 768 335 864 q 307 525 307 672 q 321 277 307 374 q 365 126 335 181 q 444 51 396 72 q 561 29 492 29 m 333 1149 l 519 1308 l 606 1308 l 792 1149 l 724 1149 l 563 1211 l 401 1149 l 333 1149 m 682 1354 l 436 1403 q 379 1434 394 1413 q 364 1479 364 1456 q 381 1524 364 1506 q 431 1542 399 1542 q 478 1531 457 1542 q 540 1494 500 1521 l 760 1354 l 682 1354 z "},"Ổ":{"ha":1124,"x_min":57,"x_max":1067,"o":"m 561 -18 q 364 26 456 -18 q 203 147 272 71 q 96 319 135 222 q 57 525 57 417 q 96 728 57 632 q 203 900 135 825 q 364 1018 272 975 q 561 1061 456 1061 q 760 1018 668 1061 q 920 900 851 975 q 1028 728 989 825 q 1067 525 1067 632 q 1028 319 1067 417 q 920 147 989 222 q 760 26 851 71 q 561 -18 668 -18 m 561 29 q 680 51 631 29 q 760 127 729 72 q 803 278 790 182 q 817 524 817 375 q 803 768 817 672 q 760 917 790 864 q 681 993 729 971 q 561 1015 632 1015 q 442 993 490 1015 q 365 917 394 971 q 321 768 335 864 q 307 525 307 672 q 321 277 307 374 q 365 126 335 181 q 444 51 396 72 q 561 29 492 29 m 333 1149 l 519 1308 l 606 1308 l 792 1149 l 724 1149 l 563 1211 l 401 1149 l 333 1149 m 739 1308 q 748 1358 739 1339 q 770 1391 757 1378 q 793 1415 783 1404 q 803 1438 803 1425 q 786 1488 803 1474 q 742 1503 769 1503 q 699 1490 715 1503 q 683 1461 683 1476 q 690 1444 683 1447 q 703 1435 697 1440 q 708 1411 708 1429 q 693 1386 708 1394 q 658 1378 678 1378 q 616 1394 633 1378 q 599 1439 599 1411 q 618 1510 599 1483 q 670 1549 638 1536 q 742 1561 703 1561 q 850 1530 813 1561 q 888 1431 888 1499 q 873 1387 888 1401 q 839 1363 858 1372 q 804 1342 819 1354 q 788 1308 789 1331 l 739 1308 z "},"Ỗ":{"ha":1124,"x_min":57,"x_max":1067,"o":"m 561 -18 q 364 26 456 -18 q 203 147 272 71 q 96 319 135 222 q 57 525 57 417 q 96 728 57 632 q 203 900 135 825 q 364 1018 272 975 q 561 1061 456 1061 q 760 1018 668 1061 q 920 900 851 975 q 1028 728 989 825 q 1067 525 1067 632 q 1028 319 1067 417 q 920 147 989 222 q 760 26 851 71 q 561 -18 668 -18 m 561 29 q 680 51 631 29 q 760 127 729 72 q 803 278 790 182 q 817 524 817 375 q 803 768 817 672 q 760 917 790 864 q 681 993 729 971 q 561 1015 632 1015 q 442 993 490 1015 q 365 917 394 971 q 321 768 335 864 q 307 525 307 672 q 321 277 307 374 q 365 126 335 181 q 444 51 396 72 q 561 29 492 29 m 333 1146 l 519 1306 l 606 1306 l 792 1146 l 724 1146 l 563 1208 l 401 1146 l 333 1146 m 300 1386 q 331 1474 307 1432 q 393 1543 356 1515 q 482 1571 431 1571 q 551 1556 519 1571 q 611 1526 582 1540 q 672 1511 640 1511 q 745 1532 721 1511 q 778 1572 769 1553 l 825 1572 q 792 1484 815 1526 q 733 1415 769 1442 q 642 1388 696 1388 q 572 1402 603 1388 q 513 1431 542 1417 q 451 1446 485 1446 q 382 1429 410 1446 q 346 1386 354 1413 l 300 1386 z "},"Ȍ":{"ha":1124,"x_min":57,"x_max":1067,"o":"m 561 -18 q 364 26 456 -18 q 203 147 272 71 q 96 319 135 222 q 57 525 57 417 q 96 728 57 632 q 203 900 135 825 q 364 1018 272 975 q 561 1061 456 1061 q 760 1018 668 1061 q 920 900 851 975 q 1028 728 989 825 q 1067 525 1067 632 q 1028 319 1067 417 q 920 147 989 222 q 760 26 851 71 q 561 -18 668 -18 m 561 29 q 680 51 631 29 q 760 127 729 72 q 803 278 790 182 q 817 524 817 375 q 803 768 817 672 q 760 917 790 864 q 681 993 729 971 q 561 1015 632 1015 q 442 993 490 1015 q 365 917 394 971 q 321 768 335 864 q 307 525 307 672 q 321 277 307 374 q 365 126 335 181 q 444 51 396 72 q 561 29 492 29 m 815 1172 l 589 1221 q 532 1251 547 1231 q 517 1297 517 1272 q 534 1342 517 1324 q 583 1360 551 1360 q 631 1349 610 1360 q 690 1311 651 1339 l 894 1172 l 815 1172 m 528 1172 l 301 1221 q 244 1251 260 1231 q 229 1297 229 1272 q 246 1342 229 1324 q 296 1360 263 1360 q 342 1349 321 1360 q 403 1311 363 1339 l 606 1172 l 528 1172 z "},"Ö":{"ha":1124,"x_min":57,"x_max":1067,"o":"m 561 -18 q 364 26 456 -18 q 203 147 272 71 q 96 319 135 222 q 57 525 57 417 q 96 728 57 632 q 203 900 135 825 q 364 1018 272 975 q 561 1061 456 1061 q 760 1018 668 1061 q 920 900 851 975 q 1028 728 989 825 q 1067 525 1067 632 q 1028 319 1067 417 q 920 147 989 222 q 760 26 851 71 q 561 -18 668 -18 m 561 29 q 680 51 631 29 q 760 127 729 72 q 803 278 790 182 q 817 524 817 375 q 803 768 817 672 q 760 917 790 864 q 681 993 729 971 q 561 1015 632 1015 q 442 993 490 1015 q 365 917 394 971 q 321 768 335 864 q 307 525 307 672 q 321 277 307 374 q 365 126 335 181 q 444 51 396 72 q 561 29 492 29 m 706 1153 q 639 1181 667 1153 q 611 1246 611 1208 q 639 1313 611 1285 q 706 1340 667 1340 q 771 1313 743 1340 q 799 1246 799 1285 q 771 1181 799 1208 q 706 1153 743 1153 m 419 1153 q 354 1181 382 1153 q 326 1246 326 1208 q 354 1313 326 1285 q 419 1340 382 1340 q 486 1313 458 1340 q 514 1246 514 1285 q 486 1181 514 1208 q 419 1153 458 1153 z "},"Ọ":{"ha":1124,"x_min":57,"x_max":1067,"o":"m 561 -18 q 364 26 456 -18 q 203 147 272 71 q 96 319 135 222 q 57 525 57 417 q 96 728 57 632 q 203 900 135 825 q 364 1018 272 975 q 561 1061 456 1061 q 760 1018 668 1061 q 920 900 851 975 q 1028 728 989 825 q 1067 525 1067 632 q 1028 319 1067 417 q 920 147 989 222 q 760 26 851 71 q 561 -18 668 -18 m 561 29 q 680 51 631 29 q 760 127 729 72 q 803 278 790 182 q 817 524 817 375 q 803 768 817 672 q 760 917 790 864 q 681 993 729 971 q 561 1015 632 1015 q 442 993 490 1015 q 365 917 394 971 q 321 768 335 864 q 307 525 307 672 q 321 277 307 374 q 365 126 335 181 q 444 51 396 72 q 561 29 492 29 m 561 -347 q 488 -316 519 -347 q 457 -243 457 -285 q 488 -169 457 -200 q 561 -137 519 -137 q 635 -169 604 -137 q 667 -243 667 -200 q 635 -316 667 -285 q 561 -347 604 -347 z "},"Ò":{"ha":1124,"x_min":57,"x_max":1067,"o":"m 561 -18 q 364 26 456 -18 q 203 147 272 71 q 96 319 135 222 q 57 525 57 417 q 96 728 57 632 q 203 900 135 825 q 364 1018 272 975 q 561 1061 456 1061 q 760 1018 668 1061 q 920 900 851 975 q 1028 728 989 825 q 1067 525 1067 632 q 1028 319 1067 417 q 920 147 989 222 q 760 26 851 71 q 561 -18 668 -18 m 561 29 q 680 51 631 29 q 760 127 729 72 q 803 278 790 182 q 817 524 817 375 q 803 768 817 672 q 760 917 790 864 q 681 993 729 971 q 561 1015 632 1015 q 442 993 490 1015 q 365 917 394 971 q 321 768 335 864 q 307 525 307 672 q 321 277 307 374 q 365 126 335 181 q 444 51 396 72 q 561 29 492 29 m 681 1172 l 436 1221 q 379 1251 394 1229 q 364 1297 364 1272 q 381 1342 364 1324 q 431 1360 397 1360 q 478 1349 456 1360 q 540 1313 500 1339 l 760 1172 l 681 1172 z "},"Ỏ":{"ha":1124,"x_min":57,"x_max":1067,"o":"m 561 -18 q 364 26 456 -18 q 203 147 272 71 q 96 319 135 222 q 57 525 57 417 q 96 728 57 632 q 203 900 135 825 q 364 1018 272 975 q 561 1061 456 1061 q 760 1018 668 1061 q 920 900 851 975 q 1028 728 989 825 q 1067 525 1067 632 q 1028 319 1067 417 q 920 147 989 222 q 760 26 851 71 q 561 -18 668 -18 m 561 29 q 680 51 631 29 q 760 127 729 72 q 803 278 790 182 q 817 524 817 375 q 803 768 817 672 q 760 917 790 864 q 681 993 729 971 q 561 1015 632 1015 q 442 993 490 1015 q 365 917 394 971 q 321 768 335 864 q 307 525 307 672 q 321 277 307 374 q 365 126 335 181 q 444 51 396 72 q 561 29 492 29 m 557 1131 q 567 1181 557 1161 q 590 1213 576 1200 q 612 1240 603 1226 q 621 1272 621 1253 q 604 1312 621 1299 q 561 1325 588 1325 q 517 1312 533 1325 q 501 1283 501 1299 q 508 1266 501 1269 q 521 1257 514 1263 q 528 1233 528 1251 q 512 1208 528 1217 q 476 1200 496 1200 q 435 1217 451 1200 q 418 1261 418 1233 q 438 1332 418 1306 q 490 1371 457 1358 q 560 1383 522 1383 q 669 1355 632 1383 q 706 1274 706 1326 q 692 1218 706 1238 q 658 1188 678 1199 q 624 1165 639 1176 q 606 1131 608 1153 l 557 1131 z "},"Ơ":{"ha":1124,"x_min":57,"x_max":1067,"o":"m 561 -18 q 364 26 456 -18 q 203 147 272 71 q 96 319 135 222 q 57 525 57 417 q 96 728 57 632 q 203 900 135 825 q 364 1018 272 975 q 561 1061 456 1061 q 760 1018 668 1061 q 920 900 851 975 q 1028 728 989 825 q 1067 525 1067 632 q 1028 319 1067 417 q 920 147 989 222 q 760 26 851 71 q 561 -18 668 -18 m 561 29 q 680 51 631 29 q 760 127 729 72 q 803 278 790 182 q 817 524 817 375 q 803 768 817 672 q 760 917 790 864 q 681 993 729 971 q 561 1015 632 1015 q 442 993 490 1015 q 365 917 394 971 q 321 768 335 864 q 307 525 307 672 q 321 277 307 374 q 365 126 335 181 q 444 51 396 72 q 561 29 492 29 m 664 1003 l 661 1050 q 758 1076 735 1050 q 783 1160 781 1103 l 883 1160 q 863 1060 883 1094 q 795 1015 843 1026 q 664 1003 747 1003 z "},"Ớ":{"ha":1124,"x_min":57,"x_max":1067,"o":"m 561 -18 q 364 26 456 -18 q 203 147 272 71 q 96 319 135 222 q 57 525 57 417 q 96 728 57 632 q 203 900 135 825 q 364 1018 272 975 q 561 1061 456 1061 q 760 1018 668 1061 q 920 900 851 975 q 1028 728 989 825 q 1067 525 1067 632 q 1028 319 1067 417 q 920 147 989 222 q 760 26 851 71 q 561 -18 668 -18 m 561 29 q 680 51 631 29 q 760 127 729 72 q 803 278 790 182 q 817 524 817 375 q 803 768 817 672 q 760 917 790 864 q 681 993 729 971 q 561 1015 632 1015 q 442 993 490 1015 q 365 917 394 971 q 321 768 335 864 q 307 525 307 672 q 321 277 307 374 q 365 126 335 181 q 444 51 396 72 q 561 29 492 29 m 664 1003 l 661 1050 q 758 1076 735 1050 q 783 1160 781 1103 l 883 1160 q 863 1060 883 1094 q 795 1015 843 1026 q 664 1003 747 1003 m 364 1172 l 583 1313 q 646 1349 624 1339 q 693 1360 668 1360 q 742 1342 725 1360 q 760 1297 760 1324 q 744 1251 760 1272 q 688 1221 729 1229 l 442 1172 l 364 1172 z "},"Ợ":{"ha":1124,"x_min":57,"x_max":1067,"o":"m 561 -18 q 364 26 456 -18 q 203 147 272 71 q 96 319 135 222 q 57 525 57 417 q 96 728 57 632 q 203 900 135 825 q 364 1018 272 975 q 561 1061 456 1061 q 760 1018 668 1061 q 920 900 851 975 q 1028 728 989 825 q 1067 525 1067 632 q 1028 319 1067 417 q 920 147 989 222 q 760 26 851 71 q 561 -18 668 -18 m 561 29 q 680 51 631 29 q 760 127 729 72 q 803 278 790 182 q 817 524 817 375 q 803 768 817 672 q 760 917 790 864 q 681 993 729 971 q 561 1015 632 1015 q 442 993 490 1015 q 365 917 394 971 q 321 768 335 864 q 307 525 307 672 q 321 277 307 374 q 365 126 335 181 q 444 51 396 72 q 561 29 492 29 m 664 1003 l 661 1050 q 758 1076 735 1050 q 783 1160 781 1103 l 883 1160 q 863 1060 883 1094 q 795 1015 843 1026 q 664 1003 747 1003 m 561 -347 q 488 -316 519 -347 q 457 -243 457 -285 q 488 -169 457 -200 q 561 -137 519 -137 q 635 -169 604 -137 q 667 -243 667 -200 q 635 -316 667 -285 q 561 -347 604 -347 z "},"Ờ":{"ha":1124,"x_min":57,"x_max":1067,"o":"m 561 -18 q 364 26 456 -18 q 203 147 272 71 q 96 319 135 222 q 57 525 57 417 q 96 728 57 632 q 203 900 135 825 q 364 1018 272 975 q 561 1061 456 1061 q 760 1018 668 1061 q 920 900 851 975 q 1028 728 989 825 q 1067 525 1067 632 q 1028 319 1067 417 q 920 147 989 222 q 760 26 851 71 q 561 -18 668 -18 m 561 29 q 680 51 631 29 q 760 127 729 72 q 803 278 790 182 q 817 524 817 375 q 803 768 817 672 q 760 917 790 864 q 681 993 729 971 q 561 1015 632 1015 q 442 993 490 1015 q 365 917 394 971 q 321 768 335 864 q 307 525 307 672 q 321 277 307 374 q 365 126 335 181 q 444 51 396 72 q 561 29 492 29 m 664 1003 l 661 1050 q 758 1076 735 1050 q 783 1160 781 1103 l 883 1160 q 863 1060 883 1094 q 795 1015 843 1026 q 664 1003 747 1003 m 681 1172 l 436 1221 q 379 1251 394 1229 q 364 1297 364 1272 q 381 1342 364 1324 q 431 1360 397 1360 q 478 1349 456 1360 q 540 1313 500 1339 l 760 1172 l 681 1172 z "},"Ở":{"ha":1124,"x_min":57,"x_max":1067,"o":"m 561 -18 q 364 26 456 -18 q 203 147 272 71 q 96 319 135 222 q 57 525 57 417 q 96 728 57 632 q 203 900 135 825 q 364 1018 272 975 q 561 1061 456 1061 q 760 1018 668 1061 q 920 900 851 975 q 1028 728 989 825 q 1067 525 1067 632 q 1028 319 1067 417 q 920 147 989 222 q 760 26 851 71 q 561 -18 668 -18 m 561 29 q 680 51 631 29 q 760 127 729 72 q 803 278 790 182 q 817 524 817 375 q 803 768 817 672 q 760 917 790 864 q 681 993 729 971 q 561 1015 632 1015 q 442 993 490 1015 q 365 917 394 971 q 321 768 335 864 q 307 525 307 672 q 321 277 307 374 q 365 126 335 181 q 444 51 396 72 q 561 29 492 29 m 664 1003 l 661 1050 q 758 1076 735 1050 q 783 1160 781 1103 l 883 1160 q 863 1060 883 1094 q 795 1015 843 1026 q 664 1003 747 1003 m 557 1131 q 567 1181 557 1161 q 590 1213 576 1200 q 612 1240 603 1226 q 621 1272 621 1253 q 604 1312 621 1299 q 561 1325 588 1325 q 517 1312 533 1325 q 501 1283 501 1299 q 508 1266 501 1269 q 521 1257 514 1263 q 528 1233 528 1251 q 512 1208 528 1217 q 476 1200 496 1200 q 435 1217 451 1200 q 418 1261 418 1233 q 438 1332 418 1306 q 490 1371 457 1358 q 560 1383 522 1383 q 669 1355 632 1383 q 706 1274 706 1326 q 692 1218 706 1238 q 658 1188 678 1199 q 624 1165 639 1176 q 606 1131 608 1153 l 557 1131 z "},"Ỡ":{"ha":1124,"x_min":57,"x_max":1067,"o":"m 561 -18 q 364 26 456 -18 q 203 147 272 71 q 96 319 135 222 q 57 525 57 417 q 96 728 57 632 q 203 900 135 825 q 364 1018 272 975 q 561 1061 456 1061 q 760 1018 668 1061 q 920 900 851 975 q 1028 728 989 825 q 1067 525 1067 632 q 1028 319 1067 417 q 920 147 989 222 q 760 26 851 71 q 561 -18 668 -18 m 561 29 q 680 51 631 29 q 760 127 729 72 q 803 278 790 182 q 817 524 817 375 q 803 768 817 672 q 760 917 790 864 q 681 993 729 971 q 561 1015 632 1015 q 442 993 490 1015 q 365 917 394 971 q 321 768 335 864 q 307 525 307 672 q 321 277 307 374 q 365 126 335 181 q 444 51 396 72 q 561 29 492 29 m 664 1003 l 661 1050 q 758 1076 735 1050 q 783 1160 781 1103 l 883 1160 q 863 1060 883 1094 q 795 1015 843 1026 q 664 1003 747 1003 m 300 1172 q 331 1260 307 1218 q 392 1329 354 1301 q 482 1357 431 1357 q 551 1342 519 1357 q 611 1312 582 1326 q 672 1297 640 1297 q 745 1318 721 1297 q 779 1358 769 1339 l 826 1358 q 792 1270 815 1313 q 733 1201 769 1228 q 642 1174 697 1174 q 572 1188 603 1174 q 513 1217 542 1203 q 451 1232 485 1232 q 383 1215 411 1232 q 346 1172 354 1199 l 300 1172 z "},"Ő":{"ha":1124,"x_min":57,"x_max":1067,"o":"m 561 -18 q 364 26 456 -18 q 203 147 272 71 q 96 319 135 222 q 57 525 57 417 q 96 728 57 632 q 203 900 135 825 q 364 1018 272 975 q 561 1061 456 1061 q 760 1018 668 1061 q 920 900 851 975 q 1028 728 989 825 q 1067 525 1067 632 q 1028 319 1067 417 q 920 147 989 222 q 760 26 851 71 q 561 -18 668 -18 m 561 29 q 680 51 631 29 q 760 127 729 72 q 803 278 790 182 q 817 524 817 375 q 803 768 817 672 q 760 917 790 864 q 681 993 729 971 q 561 1015 632 1015 q 442 993 490 1015 q 365 917 394 971 q 321 768 335 864 q 307 525 307 672 q 321 277 307 374 q 365 126 335 181 q 444 51 396 72 q 561 29 492 29 m 517 1172 l 721 1311 q 781 1349 760 1339 q 828 1360 803 1360 q 877 1342 860 1360 q 894 1297 894 1324 q 879 1251 894 1272 q 822 1221 864 1231 l 596 1172 l 517 1172 m 229 1172 l 433 1311 q 493 1349 472 1339 q 539 1360 514 1360 q 589 1342 572 1360 q 606 1297 606 1324 q 590 1251 606 1272 q 533 1221 575 1231 l 307 1172 l 229 1172 z "},"Ȏ":{"ha":1124,"x_min":57,"x_max":1067,"o":"m 561 -18 q 364 26 456 -18 q 203 147 272 71 q 96 319 135 222 q 57 525 57 417 q 96 728 57 632 q 203 900 135 825 q 364 1018 272 975 q 561 1061 456 1061 q 760 1018 668 1061 q 920 900 851 975 q 1028 728 989 825 q 1067 525 1067 632 q 1028 319 1067 417 q 920 147 989 222 q 760 26 851 71 q 561 -18 668 -18 m 561 29 q 680 51 631 29 q 760 127 729 72 q 803 278 790 182 q 817 524 817 375 q 803 768 817 672 q 760 917 790 864 q 681 993 729 971 q 561 1015 632 1015 q 442 993 490 1015 q 365 917 394 971 q 321 768 335 864 q 307 525 307 672 q 321 277 307 374 q 365 126 335 181 q 444 51 396 72 q 561 29 492 29 m 335 1172 q 392 1308 335 1257 q 563 1360 450 1360 q 733 1306 678 1360 q 788 1172 788 1253 l 732 1172 q 681 1225 729 1208 q 560 1242 633 1242 q 441 1226 488 1242 q 392 1172 394 1210 l 335 1172 z "},"Ō":{"ha":1124,"x_min":57,"x_max":1067,"o":"m 561 -18 q 364 26 456 -18 q 203 147 272 71 q 96 319 135 222 q 57 525 57 417 q 96 728 57 632 q 203 900 135 825 q 364 1018 272 975 q 561 1061 456 1061 q 760 1018 668 1061 q 920 900 851 975 q 1028 728 989 825 q 1067 525 1067 632 q 1028 319 1067 417 q 920 147 989 222 q 760 26 851 71 q 561 -18 668 -18 m 561 29 q 680 51 631 29 q 760 127 729 72 q 803 278 790 182 q 817 524 817 375 q 803 768 817 672 q 760 917 790 864 q 681 993 729 971 q 561 1015 632 1015 q 442 993 490 1015 q 365 917 394 971 q 321 768 335 864 q 307 525 307 672 q 321 277 307 374 q 365 126 335 181 q 444 51 396 72 q 561 29 492 29 m 338 1182 l 338 1292 l 800 1292 l 800 1182 l 338 1182 z "},"Ǫ":{"ha":1124,"x_min":57,"x_max":1067,"o":"m 561 -18 q 364 26 456 -18 q 203 147 272 71 q 96 319 135 222 q 57 525 57 417 q 96 728 57 632 q 203 900 135 825 q 364 1018 272 975 q 561 1061 456 1061 q 760 1018 668 1061 q 920 900 851 975 q 1028 728 989 825 q 1067 525 1067 632 q 1028 319 1067 417 q 920 147 989 222 q 760 26 851 71 q 561 -18 668 -18 m 561 29 q 680 51 631 29 q 760 127 729 72 q 803 278 790 182 q 817 524 817 375 q 803 768 817 672 q 760 917 790 864 q 681 993 729 971 q 561 1015 632 1015 q 442 993 490 1015 q 365 917 394 971 q 321 768 335 864 q 307 525 307 672 q 321 277 307 374 q 365 126 335 181 q 444 51 396 72 q 561 29 492 29 m 590 -337 q 501 -306 535 -337 q 467 -222 467 -275 q 485 -151 467 -186 q 548 -77 504 -117 q 665 14 592 -37 l 725 14 q 619 -101 657 -43 q 582 -210 582 -160 q 638 -269 582 -269 q 676 -261 657 -269 q 721 -233 696 -253 l 726 -233 l 726 -278 q 667 -322 703 -306 q 590 -337 631 -337 z "},"Ø":{"ha":1111,"x_min":51,"x_max":1060,"o":"m 554 -18 q 357 26 449 -18 q 197 147 265 71 q 90 321 128 224 q 51 526 51 418 q 90 728 51 632 q 197 899 128 825 q 357 1017 265 974 q 554 1060 449 1060 q 753 1017 661 1060 q 913 899 844 974 q 1021 728 982 825 q 1060 526 1060 632 q 1022 321 1060 418 q 914 147 983 224 q 753 26 844 71 q 554 -18 661 -18 m 136 -74 l 907 1117 l 978 1117 l 207 -74 l 136 -74 m 554 28 q 674 49 625 28 q 752 126 722 71 q 796 277 782 181 q 810 524 810 374 q 797 767 810 672 q 753 917 783 863 q 673 992 722 971 q 554 1014 624 1014 q 435 992 483 1014 q 357 917 386 971 q 315 769 328 864 q 301 526 301 674 q 315 276 301 374 q 358 125 328 179 q 436 49 388 71 q 554 28 485 28 z "},"Ǿ":{"ha":1111,"x_min":51,"x_max":1060,"o":"m 554 -18 q 357 26 449 -18 q 197 147 265 71 q 90 321 128 224 q 51 526 51 418 q 90 728 51 632 q 197 899 128 825 q 357 1017 265 974 q 554 1060 449 1060 q 753 1017 661 1060 q 913 899 844 974 q 1021 728 982 825 q 1060 526 1060 632 q 1022 321 1060 418 q 914 147 983 224 q 753 26 844 71 q 554 -18 661 -18 m 136 -74 l 907 1117 l 978 1117 l 207 -74 l 136 -74 m 554 28 q 674 49 625 28 q 752 126 722 71 q 796 277 782 181 q 810 524 810 374 q 797 767 810 672 q 753 917 783 863 q 673 992 722 971 q 554 1014 624 1014 q 435 992 483 1014 q 357 917 386 971 q 315 769 328 864 q 301 526 301 674 q 315 276 301 374 q 358 125 328 179 q 436 49 388 71 q 554 28 485 28 m 358 1172 l 578 1313 q 640 1349 618 1339 q 688 1360 663 1360 q 737 1342 719 1360 q 754 1297 754 1324 q 739 1251 754 1272 q 682 1221 724 1229 l 436 1172 l 358 1172 z "},"Õ":{"ha":1124,"x_min":57,"x_max":1067,"o":"m 561 -18 q 364 26 456 -18 q 203 147 272 71 q 96 319 135 222 q 57 525 57 417 q 96 728 57 632 q 203 900 135 825 q 364 1018 272 975 q 561 1061 456 1061 q 760 1018 668 1061 q 920 900 851 975 q 1028 728 989 825 q 1067 525 1067 632 q 1028 319 1067 417 q 920 147 989 222 q 760 26 851 71 q 561 -18 668 -18 m 561 29 q 680 51 631 29 q 760 127 729 72 q 803 278 790 182 q 817 524 817 375 q 803 768 817 672 q 760 917 790 864 q 681 993 729 971 q 561 1015 632 1015 q 442 993 490 1015 q 365 917 394 971 q 321 768 335 864 q 307 525 307 672 q 321 277 307 374 q 365 126 335 181 q 444 51 396 72 q 561 29 492 29 m 300 1172 q 331 1260 307 1218 q 392 1329 354 1301 q 482 1357 431 1357 q 551 1342 519 1357 q 611 1312 582 1326 q 672 1297 640 1297 q 745 1318 721 1297 q 779 1358 769 1339 l 826 1358 q 792 1270 815 1313 q 733 1201 769 1228 q 642 1174 697 1174 q 572 1188 603 1174 q 513 1217 542 1203 q 451 1232 485 1232 q 383 1215 411 1232 q 346 1172 354 1199 l 300 1172 z "},"Œ":{"ha":1597,"x_min":51,"x_max":1549,"o":"m 556 0 q 358 43 450 0 q 197 160 265 86 q 90 328 128 233 q 51 526 51 422 q 90 724 51 629 q 197 891 128 818 q 357 1006 265 964 q 554 1047 449 1047 l 1521 1047 l 1521 767 l 1467 767 q 1438 888 1465 833 q 1363 975 1411 942 q 1243 1008 1314 1008 l 1014 1008 l 1014 538 q 1153 556 1101 538 q 1227 615 1204 575 q 1251 721 1250 656 l 1304 721 l 1304 300 l 1251 300 q 1227 413 1250 371 q 1153 476 1204 456 q 1014 497 1101 497 l 1014 39 l 1257 39 q 1384 81 1332 39 q 1465 190 1436 122 q 1496 336 1493 257 l 1549 336 l 1549 0 l 556 0 m 554 46 q 668 67 621 46 q 744 140 715 88 q 787 283 774 192 q 800 518 800 375 q 787 760 800 665 q 744 906 774 854 q 668 980 715 958 q 553 1001 621 1001 q 435 981 483 1001 q 358 908 388 960 q 315 763 328 856 q 301 526 301 671 q 315 285 301 379 q 358 140 328 192 q 436 67 388 88 q 554 46 485 46 z "},"P":{"ha":965,"x_min":24,"x_max":946,"o":"m 351 475 l 351 517 l 467 517 q 599 537 549 517 q 674 613 650 557 q 697 772 697 668 q 678 922 697 871 q 622 990 660 972 q 526 1008 583 1008 l 24 1008 l 24 1047 l 592 1047 q 772 1011 692 1047 q 899 912 851 975 q 946 767 946 849 q 888 615 946 681 q 724 512 831 549 q 467 475 617 475 l 351 475 m 24 0 l 24 39 l 540 39 l 540 0 l 24 0 m 163 21 l 163 1047 l 371 1047 l 371 21 l 163 21 z "},"Þ":{"ha":963,"x_min":26,"x_max":949,"o":"m 26 0 l 26 39 l 165 39 l 165 1007 l 26 1007 l 26 1047 l 543 1047 l 543 1007 l 374 1007 l 374 822 l 594 822 q 774 786 694 822 q 901 687 854 750 q 949 542 949 624 q 891 390 949 456 q 726 287 833 324 q 469 250 619 250 l 374 250 l 374 39 l 543 39 l 543 0 l 26 0 m 374 292 l 469 292 q 602 312 551 292 q 676 388 653 332 q 700 547 700 443 q 681 697 700 646 q 624 765 663 747 q 529 783 586 783 l 374 783 l 374 292 z "},"Q":{"ha":1124,"x_min":58,"x_max":1067,"o":"m 561 -18 q 364 26 456 -18 q 203 147 272 71 q 97 319 135 222 q 58 525 58 417 q 97 728 58 632 q 203 900 135 825 q 364 1018 272 975 q 561 1061 456 1061 q 760 1018 668 1061 q 920 900 851 975 q 1028 728 989 825 q 1067 525 1067 632 q 1028 319 1067 417 q 920 147 989 222 q 760 26 851 71 q 561 -18 668 -18 m 979 -337 q 658 -305 778 -337 q 486 -197 539 -272 q 433 10 433 -121 l 694 10 q 692 -31 693 -10 q 690 -67 690 -51 q 724 -208 690 -160 q 822 -273 757 -256 q 979 -290 886 -290 l 979 -337 m 561 29 q 681 51 632 29 q 760 127 729 72 q 803 278 790 182 q 817 524 817 375 q 803 768 817 672 q 759 917 789 864 q 680 993 729 971 q 560 1015 631 1015 q 442 993 490 1015 q 364 917 393 971 q 322 768 335 864 q 308 525 308 672 q 322 277 308 374 q 365 126 335 181 q 443 51 394 72 q 561 29 492 29 z "},"R":{"ha":1006,"x_min":25,"x_max":1028,"o":"m 351 542 l 351 583 l 467 583 q 584 601 539 583 q 650 666 629 618 q 671 803 671 714 q 653 934 671 890 q 599 993 635 978 q 508 1008 563 1008 l 25 1008 l 25 1047 l 574 1047 q 749 1019 671 1047 q 872 938 826 990 q 918 808 918 885 q 864 665 918 725 q 709 574 810 606 q 467 542 608 542 l 351 542 m 25 0 l 25 39 l 542 39 l 542 0 l 25 0 m 164 21 l 164 1047 l 372 1047 l 372 21 l 164 21 m 885 0 q 760 26 815 0 q 671 101 704 53 q 635 213 638 149 l 629 350 q 574 495 625 449 q 444 542 524 542 l 550 553 l 629 553 l 629 547 q 748 493 690 533 q 842 396 806 453 q 879 272 879 339 l 879 207 q 900 76 879 111 q 975 42 921 42 l 1028 42 l 1028 0 l 885 0 z "},"Ŕ":{"ha":1006,"x_min":25,"x_max":1028,"o":"m 351 542 l 351 583 l 467 583 q 584 601 539 583 q 650 666 629 618 q 671 803 671 714 q 653 934 671 890 q 599 993 635 978 q 508 1008 563 1008 l 25 1008 l 25 1047 l 574 1047 q 749 1019 671 1047 q 872 938 826 990 q 918 808 918 885 q 864 665 918 725 q 709 574 810 606 q 467 542 608 542 l 351 542 m 25 0 l 25 39 l 542 39 l 542 0 l 25 0 m 164 21 l 164 1047 l 372 1047 l 372 21 l 164 21 m 885 0 q 760 26 815 0 q 671 101 704 53 q 635 213 638 149 l 629 350 q 574 495 625 449 q 444 542 524 542 l 550 553 l 629 553 l 629 547 q 748 493 690 533 q 842 396 806 453 q 879 272 879 339 l 879 207 q 900 76 879 111 q 975 42 921 42 l 1028 42 l 1028 0 l 885 0 m 304 1172 l 524 1313 q 586 1349 564 1339 q 633 1360 608 1360 q 683 1342 665 1360 q 700 1297 700 1324 q 685 1251 700 1272 q 628 1221 669 1229 l 382 1172 l 304 1172 z "},"Ř":{"ha":1006,"x_min":25,"x_max":1028,"o":"m 351 542 l 351 583 l 467 583 q 584 601 539 583 q 650 666 629 618 q 671 803 671 714 q 653 934 671 890 q 599 993 635 978 q 508 1008 563 1008 l 25 1008 l 25 1047 l 574 1047 q 749 1019 671 1047 q 872 938 826 990 q 918 808 918 885 q 864 665 918 725 q 709 574 810 606 q 467 542 608 542 l 351 542 m 25 0 l 25 39 l 542 39 l 542 0 l 25 0 m 164 21 l 164 1047 l 372 1047 l 372 21 l 164 21 m 885 0 q 760 26 815 0 q 671 101 704 53 q 635 213 638 149 l 629 350 q 574 495 625 449 q 444 542 524 542 l 550 553 l 629 553 l 629 547 q 748 493 690 533 q 842 396 806 453 q 879 272 879 339 l 879 207 q 900 76 879 111 q 975 42 921 42 l 1028 42 l 1028 0 l 885 0 m 460 1172 l 240 1358 l 310 1358 l 503 1292 l 696 1358 l 764 1358 l 546 1172 l 460 1172 z "},"Ŗ":{"ha":1006,"x_min":25,"x_max":1028,"o":"m 351 542 l 351 583 l 467 583 q 584 601 539 583 q 650 666 629 618 q 671 803 671 714 q 653 934 671 890 q 599 993 635 978 q 508 1008 563 1008 l 25 1008 l 25 1047 l 574 1047 q 749 1019 671 1047 q 872 938 826 990 q 918 808 918 885 q 864 665 918 725 q 709 574 810 606 q 467 542 608 542 l 351 542 m 25 0 l 25 39 l 542 39 l 542 0 l 25 0 m 164 21 l 164 1047 l 372 1047 l 372 21 l 164 21 m 885 0 q 760 26 815 0 q 671 101 704 53 q 635 213 638 149 l 629 350 q 574 495 625 449 q 444 542 524 542 l 550 553 l 629 553 l 629 547 q 748 493 690 533 q 842 396 806 453 q 879 272 879 339 l 879 207 q 900 76 879 111 q 975 42 921 42 l 1028 42 l 1028 0 l 885 0 m 453 -433 l 425 -403 q 531 -330 500 -364 q 563 -257 563 -296 q 557 -237 563 -242 q 546 -232 551 -232 q 530 -242 539 -232 q 506 -263 521 -253 q 467 -274 492 -274 q 411 -249 432 -274 q 390 -192 390 -225 q 418 -126 390 -153 q 492 -100 446 -100 q 583 -142 551 -100 q 614 -240 614 -183 q 573 -349 614 -304 q 453 -433 532 -394 z "},"Ȑ":{"ha":1006,"x_min":25,"x_max":1028,"o":"m 351 542 l 351 583 l 467 583 q 584 601 539 583 q 650 666 629 618 q 671 803 671 714 q 653 934 671 890 q 599 993 635 978 q 508 1008 563 1008 l 25 1008 l 25 1047 l 574 1047 q 749 1019 671 1047 q 872 938 826 990 q 918 808 918 885 q 864 665 918 725 q 709 574 810 606 q 467 542 608 542 l 351 542 m 25 0 l 25 39 l 542 39 l 542 0 l 25 0 m 164 21 l 164 1047 l 372 1047 l 372 21 l 164 21 m 885 0 q 760 26 815 0 q 671 101 704 53 q 635 213 638 149 l 629 350 q 574 495 625 449 q 444 542 524 542 l 550 553 l 629 553 l 629 547 q 748 493 690 533 q 842 396 806 453 q 879 272 879 339 l 879 207 q 900 76 879 111 q 975 42 921 42 l 1028 42 l 1028 0 l 885 0 m 756 1172 l 529 1221 q 472 1251 488 1231 q 457 1297 457 1272 q 474 1342 457 1324 q 524 1360 492 1360 q 571 1349 550 1360 q 631 1311 592 1339 l 835 1172 l 756 1172 m 468 1172 l 242 1221 q 185 1251 200 1231 q 169 1297 169 1272 q 186 1342 169 1324 q 236 1360 203 1360 q 282 1349 261 1360 q 343 1311 303 1339 l 546 1172 l 468 1172 z "},"Ṛ":{"ha":1006,"x_min":25,"x_max":1028,"o":"m 351 542 l 351 583 l 467 583 q 584 601 539 583 q 650 666 629 618 q 671 803 671 714 q 653 934 671 890 q 599 993 635 978 q 508 1008 563 1008 l 25 1008 l 25 1047 l 574 1047 q 749 1019 671 1047 q 872 938 826 990 q 918 808 918 885 q 864 665 918 725 q 709 574 810 606 q 467 542 608 542 l 351 542 m 25 0 l 25 39 l 542 39 l 542 0 l 25 0 m 164 21 l 164 1047 l 372 1047 l 372 21 l 164 21 m 885 0 q 760 26 815 0 q 671 101 704 53 q 635 213 638 149 l 629 350 q 574 495 625 449 q 444 542 524 542 l 550 553 l 629 553 l 629 547 q 748 493 690 533 q 842 396 806 453 q 879 272 879 339 l 879 207 q 900 76 879 111 q 975 42 921 42 l 1028 42 l 1028 0 l 885 0 m 501 -347 q 428 -316 460 -347 q 397 -243 397 -285 q 428 -169 397 -200 q 501 -137 460 -137 q 576 -169 544 -137 q 607 -243 607 -200 q 576 -316 607 -285 q 501 -347 544 -347 z "},"Ȓ":{"ha":1006,"x_min":25,"x_max":1028,"o":"m 351 542 l 351 583 l 467 583 q 584 601 539 583 q 650 666 629 618 q 671 803 671 714 q 653 934 671 890 q 599 993 635 978 q 508 1008 563 1008 l 25 1008 l 25 1047 l 574 1047 q 749 1019 671 1047 q 872 938 826 990 q 918 808 918 885 q 864 665 918 725 q 709 574 810 606 q 467 542 608 542 l 351 542 m 25 0 l 25 39 l 542 39 l 542 0 l 25 0 m 164 21 l 164 1047 l 372 1047 l 372 21 l 164 21 m 885 0 q 760 26 815 0 q 671 101 704 53 q 635 213 638 149 l 629 350 q 574 495 625 449 q 444 542 524 542 l 550 553 l 629 553 l 629 547 q 748 493 690 533 q 842 396 806 453 q 879 272 879 339 l 879 207 q 900 76 879 111 q 975 42 921 42 l 1028 42 l 1028 0 l 885 0 m 275 1172 q 333 1308 275 1257 q 503 1360 390 1360 q 673 1306 618 1360 q 728 1172 728 1253 l 672 1172 q 622 1225 669 1208 q 500 1242 574 1242 q 381 1226 428 1242 q 332 1172 335 1210 l 275 1172 z "},"S":{"ha":793,"x_min":57,"x_max":746,"o":"m 407 -18 q 267 5 325 -18 q 157 67 208 28 l 97 0 l 57 0 l 57 292 l 99 292 q 152 164 115 224 q 252 67 189 104 q 408 29 315 29 q 538 56 486 29 q 617 127 590 82 q 643 224 643 172 q 620 308 643 275 q 559 362 597 342 q 474 396 521 382 q 381 421 428 410 q 213 486 283 444 q 106 592 143 528 q 68 749 68 657 q 113 923 68 854 q 233 1026 158 992 q 390 1061 307 1061 q 503 1043 454 1061 q 607 988 553 1025 l 656 1047 l 696 1047 l 696 764 l 656 764 q 551 956 618 896 q 386 1015 483 1015 q 278 994 328 1015 q 200 938 229 974 q 171 853 171 901 q 194 780 171 808 q 254 734 217 751 q 338 705 292 717 q 429 681 383 693 q 603 613 533 656 q 710 500 674 569 q 746 326 746 431 q 658 74 746 165 q 407 -18 571 -18 z "},"Ś":{"ha":793,"x_min":57,"x_max":746,"o":"m 407 -18 q 267 5 325 -18 q 157 67 208 28 l 97 0 l 57 0 l 57 292 l 99 292 q 152 164 115 224 q 252 67 189 104 q 408 29 315 29 q 538 56 486 29 q 617 127 590 82 q 643 224 643 172 q 620 308 643 275 q 559 362 597 342 q 474 396 521 382 q 381 421 428 410 q 213 486 283 444 q 106 592 143 528 q 68 749 68 657 q 113 923 68 854 q 233 1026 158 992 q 390 1061 307 1061 q 503 1043 454 1061 q 607 988 553 1025 l 656 1047 l 696 1047 l 696 764 l 656 764 q 551 956 618 896 q 386 1015 483 1015 q 278 994 328 1015 q 200 938 229 974 q 171 853 171 901 q 194 780 171 808 q 254 734 217 751 q 338 705 292 717 q 429 681 383 693 q 603 613 533 656 q 710 500 674 569 q 746 326 746 431 q 658 74 746 165 q 407 -18 571 -18 m 199 1172 l 418 1313 q 481 1349 458 1339 q 528 1360 503 1360 q 577 1342 560 1360 q 594 1297 594 1324 q 579 1251 594 1272 q 522 1221 564 1229 l 276 1172 l 199 1172 z "},"Š":{"ha":793,"x_min":57,"x_max":746,"o":"m 407 -18 q 267 5 325 -18 q 157 67 208 28 l 97 0 l 57 0 l 57 292 l 99 292 q 152 164 115 224 q 252 67 189 104 q 408 29 315 29 q 538 56 486 29 q 617 127 590 82 q 643 224 643 172 q 620 308 643 275 q 559 362 597 342 q 474 396 521 382 q 381 421 428 410 q 213 486 283 444 q 106 592 143 528 q 68 749 68 657 q 113 923 68 854 q 233 1026 158 992 q 390 1061 307 1061 q 503 1043 454 1061 q 607 988 553 1025 l 656 1047 l 696 1047 l 696 764 l 656 764 q 551 956 618 896 q 386 1015 483 1015 q 278 994 328 1015 q 200 938 229 974 q 171 853 171 901 q 194 780 171 808 q 254 734 217 751 q 338 705 292 717 q 429 681 383 693 q 603 613 533 656 q 710 500 674 569 q 746 326 746 431 q 658 74 746 165 q 407 -18 571 -18 m 354 1172 l 135 1358 l 204 1358 l 397 1292 l 590 1358 l 658 1358 l 440 1172 l 354 1172 z "},"Ş":{"ha":793,"x_min":57,"x_max":746,"o":"m 407 -18 q 267 5 325 -18 q 157 67 208 28 l 97 0 l 57 0 l 57 292 l 99 292 q 152 164 115 224 q 252 67 189 104 q 408 29 315 29 q 538 56 486 29 q 617 127 590 82 q 643 224 643 172 q 620 308 643 275 q 559 362 597 342 q 474 396 521 382 q 381 421 428 410 q 213 486 283 444 q 106 592 143 528 q 68 749 68 657 q 113 923 68 854 q 233 1026 158 992 q 390 1061 307 1061 q 503 1043 454 1061 q 607 988 553 1025 l 656 1047 l 696 1047 l 696 764 l 656 764 q 551 956 618 896 q 386 1015 483 1015 q 278 994 328 1015 q 200 938 229 974 q 171 853 171 901 q 194 780 171 808 q 254 734 217 751 q 338 705 292 717 q 429 681 383 693 q 603 613 533 656 q 710 500 674 569 q 746 326 746 431 q 658 74 746 165 q 407 -18 571 -18 m 353 -322 q 282 -314 311 -322 q 242 -299 253 -306 l 257 -256 q 291 -266 268 -261 q 335 -271 314 -271 q 396 -255 374 -271 q 418 -206 418 -239 q 310 -135 418 -136 l 361 14 l 417 14 l 383 -92 l 410 -92 q 512 -117 474 -92 q 550 -192 550 -143 q 496 -287 550 -253 q 353 -322 442 -322 z "},"Ŝ":{"ha":793,"x_min":57,"x_max":746,"o":"m 407 -18 q 267 5 325 -18 q 157 67 208 28 l 97 0 l 57 0 l 57 292 l 99 292 q 152 164 115 224 q 252 67 189 104 q 408 29 315 29 q 538 56 486 29 q 617 127 590 82 q 643 224 643 172 q 620 308 643 275 q 559 362 597 342 q 474 396 521 382 q 381 421 428 410 q 213 486 283 444 q 106 592 143 528 q 68 749 68 657 q 113 923 68 854 q 233 1026 158 992 q 390 1061 307 1061 q 503 1043 454 1061 q 607 988 553 1025 l 656 1047 l 696 1047 l 696 764 l 656 764 q 551 956 618 896 q 386 1015 483 1015 q 278 994 328 1015 q 200 938 229 974 q 171 853 171 901 q 194 780 171 808 q 254 734 217 751 q 338 705 292 717 q 429 681 383 693 q 603 613 533 656 q 710 500 674 569 q 746 326 746 431 q 658 74 746 165 q 407 -18 571 -18 m 135 1172 l 354 1358 l 440 1358 l 658 1172 l 590 1172 l 397 1239 l 204 1172 l 135 1172 z "},"Ș":{"ha":793,"x_min":57,"x_max":746,"o":"m 407 -18 q 267 5 325 -18 q 157 67 208 28 l 97 0 l 57 0 l 57 292 l 99 292 q 152 164 115 224 q 252 67 189 104 q 408 29 315 29 q 538 56 486 29 q 617 127 590 82 q 643 224 643 172 q 620 308 643 275 q 559 362 597 342 q 474 396 521 382 q 381 421 428 410 q 213 486 283 444 q 106 592 143 528 q 68 749 68 657 q 113 923 68 854 q 233 1026 158 992 q 390 1061 307 1061 q 503 1043 454 1061 q 607 988 553 1025 l 656 1047 l 696 1047 l 696 764 l 656 764 q 551 956 618 896 q 386 1015 483 1015 q 278 994 328 1015 q 200 938 229 974 q 171 853 171 901 q 194 780 171 808 q 254 734 217 751 q 338 705 292 717 q 429 681 383 693 q 603 613 533 656 q 710 500 674 569 q 746 326 746 431 q 658 74 746 165 q 407 -18 571 -18 m 347 -433 l 319 -403 q 426 -330 394 -364 q 457 -257 457 -296 q 451 -237 457 -242 q 440 -232 446 -232 q 424 -242 433 -232 q 401 -263 415 -253 q 361 -274 386 -274 q 306 -249 326 -274 q 285 -192 285 -225 q 313 -126 285 -153 q 386 -100 340 -100 q 477 -142 446 -100 q 508 -240 508 -183 q 467 -349 508 -304 q 347 -433 426 -394 z "},"Ṣ":{"ha":793,"x_min":57,"x_max":746,"o":"m 407 -18 q 267 5 325 -18 q 157 67 208 28 l 97 0 l 57 0 l 57 292 l 99 292 q 152 164 115 224 q 252 67 189 104 q 408 29 315 29 q 538 56 486 29 q 617 127 590 82 q 643 224 643 172 q 620 308 643 275 q 559 362 597 342 q 474 396 521 382 q 381 421 428 410 q 213 486 283 444 q 106 592 143 528 q 68 749 68 657 q 113 923 68 854 q 233 1026 158 992 q 390 1061 307 1061 q 503 1043 454 1061 q 607 988 553 1025 l 656 1047 l 696 1047 l 696 764 l 656 764 q 551 956 618 896 q 386 1015 483 1015 q 278 994 328 1015 q 200 938 229 974 q 171 853 171 901 q 194 780 171 808 q 254 734 217 751 q 338 705 292 717 q 429 681 383 693 q 603 613 533 656 q 710 500 674 569 q 746 326 746 431 q 658 74 746 165 q 407 -18 571 -18 m 396 -347 q 323 -316 354 -347 q 292 -243 292 -285 q 323 -169 292 -200 q 396 -137 354 -137 q 470 -169 439 -137 q 501 -243 501 -200 q 470 -316 501 -285 q 396 -347 439 -347 z "},"T":{"ha":997,"x_min":28,"x_max":969,"o":"m 221 0 l 221 39 l 396 39 l 396 1008 l 315 1008 q 190 965 242 1007 q 110 854 139 922 q 81 707 82 786 l 28 707 l 28 1047 l 969 1047 l 969 707 l 917 707 q 887 856 915 788 q 806 966 858 924 q 679 1008 754 1008 l 604 1008 l 604 39 l 774 39 l 774 0 l 221 0 z "},"Ŧ":{"ha":997,"x_min":28,"x_max":969,"o":"m 231 493 l 231 553 l 765 553 l 765 493 l 231 493 m 221 0 l 221 39 l 396 39 l 396 1008 l 315 1008 q 190 965 242 1007 q 110 854 139 922 q 81 707 82 786 l 28 707 l 28 1047 l 969 1047 l 969 707 l 917 707 q 887 856 915 788 q 806 966 858 924 q 679 1008 754 1008 l 604 1008 l 604 39 l 774 39 l 774 0 l 221 0 z "},"Ť":{"ha":997,"x_min":28,"x_max":969,"o":"m 221 0 l 221 39 l 396 39 l 396 1008 l 315 1008 q 190 965 242 1007 q 110 854 139 922 q 81 707 82 786 l 28 707 l 28 1047 l 969 1047 l 969 707 l 917 707 q 887 856 915 788 q 806 966 858 924 q 679 1008 754 1008 l 604 1008 l 604 39 l 774 39 l 774 0 l 221 0 m 456 1172 l 236 1358 l 306 1358 l 499 1292 l 692 1358 l 760 1358 l 542 1172 l 456 1172 z "},"Ţ":{"ha":997,"x_min":28,"x_max":969,"o":"m 221 0 l 221 39 l 396 39 l 396 1008 l 315 1008 q 190 965 242 1007 q 110 854 139 922 q 81 707 82 786 l 28 707 l 28 1047 l 969 1047 l 969 707 l 917 707 q 887 856 915 788 q 806 966 858 924 q 679 1008 754 1008 l 604 1008 l 604 39 l 774 39 l 774 0 l 221 0 m 456 -322 q 385 -314 414 -322 q 344 -299 356 -306 l 360 -256 q 394 -266 371 -261 q 438 -271 417 -271 q 499 -255 476 -271 q 521 -206 521 -239 q 413 -135 521 -136 l 464 14 l 519 14 l 486 -92 l 513 -92 q 615 -117 576 -92 q 653 -192 653 -143 q 599 -287 653 -253 q 456 -322 544 -322 z "},"Ț":{"ha":997,"x_min":28,"x_max":969,"o":"m 221 0 l 221 39 l 396 39 l 396 1008 l 315 1008 q 190 965 242 1007 q 110 854 139 922 q 81 707 82 786 l 28 707 l 28 1047 l 969 1047 l 969 707 l 917 707 q 887 856 915 788 q 806 966 858 924 q 679 1008 754 1008 l 604 1008 l 604 39 l 774 39 l 774 0 l 221 0 m 449 -433 l 421 -403 q 527 -330 496 -364 q 558 -257 558 -296 q 553 -237 558 -242 q 542 -232 547 -232 q 526 -242 535 -232 q 502 -263 517 -253 q 463 -274 488 -274 q 407 -249 428 -274 q 386 -192 386 -225 q 414 -126 386 -153 q 488 -100 442 -100 q 578 -142 547 -100 q 610 -240 610 -183 q 569 -349 610 -304 q 449 -433 528 -394 z "},"Ṭ":{"ha":997,"x_min":28,"x_max":969,"o":"m 221 0 l 221 39 l 396 39 l 396 1008 l 315 1008 q 190 965 242 1007 q 110 854 139 922 q 81 707 82 786 l 28 707 l 28 1047 l 969 1047 l 969 707 l 917 707 q 887 856 915 788 q 806 966 858 924 q 679 1008 754 1008 l 604 1008 l 604 39 l 774 39 l 774 0 l 221 0 m 497 -347 q 424 -316 456 -347 q 393 -243 393 -285 q 424 -169 393 -200 q 497 -137 456 -137 q 572 -169 540 -137 q 603 -243 603 -200 q 572 -316 603 -285 q 497 -347 540 -347 z "},"U":{"ha":1058,"x_min":17,"x_max":1046,"o":"m 553 -18 q 347 13 435 -18 q 210 108 258 44 q 161 269 161 172 l 161 1008 l 17 1008 l 17 1047 l 511 1047 l 511 1008 l 369 1008 l 369 276 q 432 92 369 147 q 603 36 494 36 q 783 96 717 36 q 849 276 849 156 l 849 1008 l 713 1008 l 713 1047 l 1046 1047 l 1046 1008 l 900 1008 l 900 271 q 813 52 900 122 q 553 -18 726 -18 z "},"Ú":{"ha":1058,"x_min":17,"x_max":1046,"o":"m 553 -18 q 347 13 435 -18 q 210 108 258 44 q 161 269 161 172 l 161 1008 l 17 1008 l 17 1047 l 511 1047 l 511 1008 l 369 1008 l 369 276 q 432 92 369 147 q 603 36 494 36 q 783 96 717 36 q 849 276 849 156 l 849 1008 l 713 1008 l 713 1047 l 1046 1047 l 1046 1008 l 900 1008 l 900 271 q 813 52 900 122 q 553 -18 726 -18 m 347 1172 l 567 1313 q 629 1349 607 1339 q 676 1360 651 1360 q 726 1342 708 1360 q 743 1297 743 1324 q 728 1251 743 1272 q 671 1221 713 1229 l 425 1172 l 347 1172 z "},"Ŭ":{"ha":1058,"x_min":17,"x_max":1046,"o":"m 553 -18 q 347 13 435 -18 q 210 108 258 44 q 161 269 161 172 l 161 1008 l 17 1008 l 17 1047 l 511 1047 l 511 1008 l 369 1008 l 369 276 q 432 92 369 147 q 603 36 494 36 q 783 96 717 36 q 849 276 849 156 l 849 1008 l 713 1008 l 713 1047 l 1046 1047 l 1046 1008 l 900 1008 l 900 271 q 813 52 900 122 q 553 -18 726 -18 m 546 1172 q 376 1224 433 1172 q 318 1360 318 1275 l 375 1360 q 424 1306 378 1322 q 543 1289 471 1289 q 665 1306 617 1289 q 715 1360 713 1324 l 771 1360 q 716 1226 771 1279 q 546 1172 661 1172 z "},"Û":{"ha":1058,"x_min":17,"x_max":1046,"o":"m 553 -18 q 347 13 435 -18 q 210 108 258 44 q 161 269 161 172 l 161 1008 l 17 1008 l 17 1047 l 511 1047 l 511 1008 l 369 1008 l 369 276 q 432 92 369 147 q 603 36 494 36 q 783 96 717 36 q 849 276 849 156 l 849 1008 l 713 1008 l 713 1047 l 1046 1047 l 1046 1008 l 900 1008 l 900 271 q 813 52 900 122 q 553 -18 726 -18 m 283 1172 l 503 1358 l 589 1358 l 807 1172 l 739 1172 l 546 1239 l 353 1172 l 283 1172 z "},"Ȕ":{"ha":1058,"x_min":17,"x_max":1046,"o":"m 553 -18 q 347 13 435 -18 q 210 108 258 44 q 161 269 161 172 l 161 1008 l 17 1008 l 17 1047 l 511 1047 l 511 1008 l 369 1008 l 369 276 q 432 92 369 147 q 603 36 494 36 q 783 96 717 36 q 849 276 849 156 l 849 1008 l 713 1008 l 713 1047 l 1046 1047 l 1046 1008 l 900 1008 l 900 271 q 813 52 900 122 q 553 -18 726 -18 m 799 1172 l 572 1221 q 515 1251 531 1231 q 500 1297 500 1272 q 517 1342 500 1324 q 567 1360 535 1360 q 614 1349 593 1360 q 674 1311 635 1339 l 878 1172 l 799 1172 m 511 1172 l 285 1221 q 228 1251 243 1231 q 213 1297 213 1272 q 229 1342 213 1324 q 279 1360 246 1360 q 325 1349 304 1360 q 386 1311 346 1339 l 589 1172 l 511 1172 z "},"Ü":{"ha":1058,"x_min":17,"x_max":1046,"o":"m 553 -18 q 347 13 435 -18 q 210 108 258 44 q 161 269 161 172 l 161 1008 l 17 1008 l 17 1047 l 511 1047 l 511 1008 l 369 1008 l 369 276 q 432 92 369 147 q 603 36 494 36 q 783 96 717 36 q 849 276 849 156 l 849 1008 l 713 1008 l 713 1047 l 1046 1047 l 1046 1008 l 900 1008 l 900 271 q 813 52 900 122 q 553 -18 726 -18 m 688 1153 q 621 1181 649 1153 q 593 1246 593 1208 q 621 1313 593 1285 q 688 1340 649 1340 q 753 1313 725 1340 q 781 1246 781 1285 q 753 1181 781 1208 q 688 1153 725 1153 m 401 1153 q 336 1181 364 1153 q 308 1246 308 1208 q 336 1313 308 1285 q 401 1340 364 1340 q 468 1313 440 1340 q 496 1246 496 1285 q 468 1181 496 1208 q 401 1153 440 1153 z "},"Ụ":{"ha":1058,"x_min":17,"x_max":1046,"o":"m 553 -18 q 347 13 435 -18 q 210 108 258 44 q 161 269 161 172 l 161 1008 l 17 1008 l 17 1047 l 511 1047 l 511 1008 l 369 1008 l 369 276 q 432 92 369 147 q 603 36 494 36 q 783 96 717 36 q 849 276 849 156 l 849 1008 l 713 1008 l 713 1047 l 1046 1047 l 1046 1008 l 900 1008 l 900 271 q 813 52 900 122 q 553 -18 726 -18 m 528 -347 q 455 -316 486 -347 q 424 -243 424 -285 q 455 -169 424 -200 q 528 -137 486 -137 q 602 -169 571 -137 q 633 -243 633 -200 q 602 -316 633 -285 q 528 -347 571 -347 z "},"Ù":{"ha":1058,"x_min":17,"x_max":1046,"o":"m 553 -18 q 347 13 435 -18 q 210 108 258 44 q 161 269 161 172 l 161 1008 l 17 1008 l 17 1047 l 511 1047 l 511 1008 l 369 1008 l 369 276 q 432 92 369 147 q 603 36 494 36 q 783 96 717 36 q 849 276 849 156 l 849 1008 l 713 1008 l 713 1047 l 1046 1047 l 1046 1008 l 900 1008 l 900 271 q 813 52 900 122 q 553 -18 726 -18 m 664 1172 l 419 1221 q 363 1251 378 1229 q 347 1297 347 1272 q 364 1342 347 1324 q 414 1360 381 1360 q 461 1349 439 1360 q 524 1313 483 1339 l 743 1172 l 664 1172 z "},"Ủ":{"ha":1058,"x_min":17,"x_max":1046,"o":"m 553 -18 q 347 13 435 -18 q 210 108 258 44 q 161 269 161 172 l 161 1008 l 17 1008 l 17 1047 l 511 1047 l 511 1008 l 369 1008 l 369 276 q 432 92 369 147 q 603 36 494 36 q 783 96 717 36 q 849 276 849 156 l 849 1008 l 713 1008 l 713 1047 l 1046 1047 l 1046 1008 l 900 1008 l 900 271 q 813 52 900 122 q 553 -18 726 -18 m 539 1131 q 549 1181 539 1161 q 572 1213 558 1200 q 594 1240 585 1226 q 603 1272 603 1253 q 586 1312 603 1299 q 543 1325 569 1325 q 499 1312 515 1325 q 483 1283 483 1299 q 490 1266 483 1269 q 503 1257 496 1263 q 510 1233 510 1251 q 494 1208 510 1217 q 458 1200 478 1200 q 417 1217 433 1200 q 400 1261 400 1233 q 419 1332 400 1306 q 472 1371 439 1358 q 542 1383 504 1383 q 651 1355 614 1383 q 688 1274 688 1326 q 674 1218 688 1238 q 640 1188 660 1199 q 606 1165 621 1176 q 588 1131 590 1153 l 539 1131 z "},"Ư":{"ha":1058,"x_min":17,"x_max":1086,"o":"m 553 -18 q 347 13 435 -18 q 210 108 258 44 q 161 269 161 172 l 161 1008 l 17 1008 l 17 1047 l 511 1047 l 511 1008 l 369 1008 l 369 276 q 432 92 369 147 q 603 36 494 36 q 783 96 717 36 q 849 276 849 156 l 849 1008 l 713 1008 l 713 1047 l 1046 1047 l 1046 1008 l 900 1008 l 900 271 q 813 52 900 122 q 553 -18 726 -18 m 867 999 l 864 1046 q 960 1072 938 1046 q 986 1156 983 1099 l 1086 1156 q 1066 1056 1086 1090 q 998 1010 1046 1022 q 867 999 950 999 z "},"Ứ":{"ha":1058,"x_min":17,"x_max":1086,"o":"m 553 -18 q 347 13 435 -18 q 210 108 258 44 q 161 269 161 172 l 161 1008 l 17 1008 l 17 1047 l 511 1047 l 511 1008 l 369 1008 l 369 276 q 432 92 369 147 q 603 36 494 36 q 783 96 717 36 q 849 276 849 156 l 849 1008 l 713 1008 l 713 1047 l 1046 1047 l 1046 1008 l 900 1008 l 900 271 q 813 52 900 122 q 553 -18 726 -18 m 867 999 l 864 1046 q 960 1072 938 1046 q 986 1156 983 1099 l 1086 1156 q 1066 1056 1086 1090 q 998 1010 1046 1022 q 867 999 950 999 m 331 1172 l 550 1313 q 613 1349 590 1339 q 660 1360 635 1360 q 709 1342 692 1360 q 726 1297 726 1324 q 711 1251 726 1272 q 654 1221 696 1229 l 408 1172 l 331 1172 z "},"Ự":{"ha":1058,"x_min":17,"x_max":1086,"o":"m 553 -18 q 347 13 435 -18 q 210 108 258 44 q 161 269 161 172 l 161 1008 l 17 1008 l 17 1047 l 511 1047 l 511 1008 l 369 1008 l 369 276 q 432 92 369 147 q 603 36 494 36 q 783 96 717 36 q 849 276 849 156 l 849 1008 l 713 1008 l 713 1047 l 1046 1047 l 1046 1008 l 900 1008 l 900 271 q 813 52 900 122 q 553 -18 726 -18 m 867 999 l 864 1046 q 960 1072 938 1046 q 986 1156 983 1099 l 1086 1156 q 1066 1056 1086 1090 q 998 1010 1046 1022 q 867 999 950 999 m 528 -347 q 455 -316 486 -347 q 424 -243 424 -285 q 455 -169 424 -200 q 528 -137 486 -137 q 602 -169 571 -137 q 633 -243 633 -200 q 602 -316 633 -285 q 528 -347 571 -347 z "},"Ừ":{"ha":1058,"x_min":17,"x_max":1086,"o":"m 553 -18 q 347 13 435 -18 q 210 108 258 44 q 161 269 161 172 l 161 1008 l 17 1008 l 17 1047 l 511 1047 l 511 1008 l 369 1008 l 369 276 q 432 92 369 147 q 603 36 494 36 q 783 96 717 36 q 849 276 849 156 l 849 1008 l 713 1008 l 713 1047 l 1046 1047 l 1046 1008 l 900 1008 l 900 271 q 813 52 900 122 q 553 -18 726 -18 m 867 999 l 864 1046 q 960 1072 938 1046 q 986 1156 983 1099 l 1086 1156 q 1066 1056 1086 1090 q 998 1010 1046 1022 q 867 999 950 999 m 647 1172 l 403 1221 q 346 1251 361 1229 q 331 1297 331 1272 q 347 1342 331 1324 q 397 1360 364 1360 q 444 1349 422 1360 q 507 1313 467 1339 l 726 1172 l 647 1172 z "},"Ử":{"ha":1058,"x_min":17,"x_max":1086,"o":"m 553 -18 q 347 13 435 -18 q 210 108 258 44 q 161 269 161 172 l 161 1008 l 17 1008 l 17 1047 l 511 1047 l 511 1008 l 369 1008 l 369 276 q 432 92 369 147 q 603 36 494 36 q 783 96 717 36 q 849 276 849 156 l 849 1008 l 713 1008 l 713 1047 l 1046 1047 l 1046 1008 l 900 1008 l 900 271 q 813 52 900 122 q 553 -18 726 -18 m 867 999 l 864 1046 q 960 1072 938 1046 q 986 1156 983 1099 l 1086 1156 q 1066 1056 1086 1090 q 998 1010 1046 1022 q 867 999 950 999 m 524 1131 q 533 1181 524 1161 q 556 1213 543 1200 q 578 1240 569 1226 q 588 1272 588 1253 q 571 1312 588 1299 q 528 1325 554 1325 q 484 1312 500 1325 q 468 1283 468 1299 q 474 1266 468 1269 q 488 1257 481 1263 q 494 1233 494 1251 q 478 1208 494 1217 q 443 1200 463 1200 q 401 1217 418 1200 q 385 1261 385 1233 q 404 1332 385 1306 q 456 1371 424 1358 q 526 1383 489 1383 q 635 1355 599 1383 q 672 1274 672 1326 q 658 1218 672 1238 q 625 1188 644 1199 q 590 1165 606 1176 q 572 1131 575 1153 l 524 1131 z "},"Ữ":{"ha":1058,"x_min":17,"x_max":1086,"o":"m 553 -18 q 347 13 435 -18 q 210 108 258 44 q 161 269 161 172 l 161 1008 l 17 1008 l 17 1047 l 511 1047 l 511 1008 l 369 1008 l 369 276 q 432 92 369 147 q 603 36 494 36 q 783 96 717 36 q 849 276 849 156 l 849 1008 l 713 1008 l 713 1047 l 1046 1047 l 1046 1008 l 900 1008 l 900 271 q 813 52 900 122 q 553 -18 726 -18 m 867 999 l 864 1046 q 960 1072 938 1046 q 986 1156 983 1099 l 1086 1156 q 1066 1056 1086 1090 q 998 1010 1046 1022 q 867 999 950 999 m 267 1172 q 297 1260 274 1218 q 359 1329 321 1301 q 449 1357 397 1357 q 517 1342 486 1357 q 578 1312 549 1326 q 639 1297 607 1297 q 712 1318 688 1297 q 746 1358 736 1339 l 793 1358 q 759 1270 782 1313 q 700 1201 736 1228 q 608 1174 664 1174 q 539 1188 569 1174 q 480 1217 508 1203 q 418 1232 451 1232 q 349 1215 378 1232 q 313 1172 321 1199 l 267 1172 z "},"Ű":{"ha":1058,"x_min":17,"x_max":1046,"o":"m 553 -18 q 347 13 435 -18 q 210 108 258 44 q 161 269 161 172 l 161 1008 l 17 1008 l 17 1047 l 511 1047 l 511 1008 l 369 1008 l 369 276 q 432 92 369 147 q 603 36 494 36 q 783 96 717 36 q 849 276 849 156 l 849 1008 l 713 1008 l 713 1047 l 1046 1047 l 1046 1008 l 900 1008 l 900 271 q 813 52 900 122 q 553 -18 726 -18 m 500 1172 l 704 1311 q 765 1349 743 1339 q 811 1360 786 1360 q 860 1342 843 1360 q 878 1297 878 1324 q 863 1251 878 1272 q 806 1221 847 1231 l 579 1172 l 500 1172 m 213 1172 l 417 1311 q 476 1349 456 1339 q 522 1360 497 1360 q 572 1342 556 1360 q 589 1297 589 1324 q 574 1251 589 1272 q 517 1221 558 1231 l 290 1172 l 213 1172 z "},"Ȗ":{"ha":1058,"x_min":17,"x_max":1046,"o":"m 553 -18 q 347 13 435 -18 q 210 108 258 44 q 161 269 161 172 l 161 1008 l 17 1008 l 17 1047 l 511 1047 l 511 1008 l 369 1008 l 369 276 q 432 92 369 147 q 603 36 494 36 q 783 96 717 36 q 849 276 849 156 l 849 1008 l 713 1008 l 713 1047 l 1046 1047 l 1046 1008 l 900 1008 l 900 271 q 813 52 900 122 q 553 -18 726 -18 m 318 1172 q 376 1308 318 1257 q 546 1360 433 1360 q 716 1306 661 1360 q 771 1172 771 1253 l 715 1172 q 665 1225 713 1208 q 543 1242 617 1242 q 424 1226 471 1242 q 375 1172 378 1210 l 318 1172 z "},"Ū":{"ha":1058,"x_min":17,"x_max":1046,"o":"m 553 -18 q 347 13 435 -18 q 210 108 258 44 q 161 269 161 172 l 161 1008 l 17 1008 l 17 1047 l 511 1047 l 511 1008 l 369 1008 l 369 276 q 432 92 369 147 q 603 36 494 36 q 783 96 717 36 q 849 276 849 156 l 849 1008 l 713 1008 l 713 1047 l 1046 1047 l 1046 1008 l 900 1008 l 900 271 q 813 52 900 122 q 553 -18 726 -18 m 319 1182 l 319 1292 l 782 1292 l 782 1182 l 319 1182 z "},"Ų":{"ha":1058,"x_min":17,"x_max":1046,"o":"m 553 -18 q 347 13 435 -18 q 210 108 258 44 q 161 269 161 172 l 161 1008 l 17 1008 l 17 1047 l 511 1047 l 511 1008 l 369 1008 l 369 276 q 432 92 369 147 q 603 36 494 36 q 783 96 717 36 q 849 276 849 156 l 849 1008 l 713 1008 l 713 1047 l 1046 1047 l 1046 1008 l 900 1008 l 900 271 q 813 52 900 122 q 553 -18 726 -18 m 594 -337 q 505 -306 539 -337 q 471 -222 471 -275 q 490 -151 471 -186 q 552 -77 508 -117 q 669 14 596 -37 l 729 14 q 624 -101 661 -43 q 586 -210 586 -160 q 642 -269 586 -269 q 681 -261 661 -269 q 725 -233 700 -253 l 731 -233 l 731 -278 q 671 -322 707 -306 q 594 -337 635 -337 z "},"Ů":{"ha":1058,"x_min":17,"x_max":1046,"o":"m 553 -18 q 347 13 435 -18 q 210 108 258 44 q 161 269 161 172 l 161 1008 l 17 1008 l 17 1047 l 511 1047 l 511 1008 l 369 1008 l 369 276 q 432 92 369 147 q 603 36 494 36 q 783 96 717 36 q 849 276 849 156 l 849 1008 l 713 1008 l 713 1047 l 1046 1047 l 1046 1008 l 900 1008 l 900 271 q 813 52 900 122 q 553 -18 726 -18 m 543 1142 q 457 1178 493 1142 q 421 1265 421 1215 q 457 1352 421 1317 q 543 1388 493 1388 q 631 1352 594 1388 q 667 1267 667 1317 q 631 1178 667 1215 q 543 1142 594 1142 m 543 1207 q 585 1225 568 1207 q 601 1265 601 1243 q 584 1306 601 1289 q 543 1322 567 1322 q 503 1306 521 1322 q 486 1265 486 1289 q 503 1225 486 1243 q 543 1207 521 1207 z "},"Ũ":{"ha":1058,"x_min":17,"x_max":1046,"o":"m 553 -18 q 347 13 435 -18 q 210 108 258 44 q 161 269 161 172 l 161 1008 l 17 1008 l 17 1047 l 511 1047 l 511 1008 l 369 1008 l 369 276 q 432 92 369 147 q 603 36 494 36 q 783 96 717 36 q 849 276 849 156 l 849 1008 l 713 1008 l 713 1047 l 1046 1047 l 1046 1008 l 900 1008 l 900 271 q 813 52 900 122 q 553 -18 726 -18 m 282 1172 q 313 1260 289 1218 q 374 1329 336 1301 q 464 1357 413 1357 q 533 1342 501 1357 q 593 1312 564 1326 q 654 1297 622 1297 q 727 1318 703 1297 q 761 1358 751 1339 l 808 1358 q 774 1270 797 1313 q 715 1201 751 1228 q 624 1174 679 1174 q 554 1188 585 1174 q 495 1217 524 1203 q 433 1232 467 1232 q 365 1215 393 1232 q 328 1172 336 1199 l 282 1172 z "},"V":{"ha":949,"x_min":-26,"x_max":969,"o":"m 456 -14 l 86 1026 l 308 1026 l 561 314 l 567 314 l 578 264 l 494 -14 l 456 -14 m 456 -14 l 531 215 l 821 1026 l 867 1026 l 494 -14 l 456 -14 m -26 1008 l -26 1047 l 442 1047 l 442 1008 l -26 1008 m 651 1008 l 651 1047 l 969 1047 l 969 1008 l 651 1008 z "},"W":{"ha":1364,"x_min":-31,"x_max":1393,"o":"m 453 -14 l 78 1008 l -31 1008 l -31 1047 l 1025 1047 l 1025 1008 l 939 1008 l 829 707 l 974 304 l 979 304 l 1233 1008 l 1093 1008 l 1093 1047 l 1393 1047 l 1393 1008 l 1279 1008 l 911 -14 l 872 -14 l 696 467 l 510 -14 l 453 -14 m 569 282 l 575 282 l 674 528 l 497 1008 l 301 1008 l 569 282 m 806 769 l 892 1008 l 719 1008 l 806 769 z "},"Ẃ":{"ha":1364,"x_min":-31,"x_max":1393,"o":"m 453 -14 l 78 1008 l -31 1008 l -31 1047 l 1025 1047 l 1025 1008 l 939 1008 l 829 707 l 974 304 l 979 304 l 1233 1008 l 1093 1008 l 1093 1047 l 1393 1047 l 1393 1008 l 1279 1008 l 911 -14 l 872 -14 l 696 467 l 510 -14 l 453 -14 m 569 282 l 575 282 l 674 528 l 497 1008 l 301 1008 l 569 282 m 806 769 l 892 1008 l 719 1008 l 806 769 m 485 1172 l 704 1313 q 767 1349 744 1339 q 814 1360 789 1360 q 863 1342 846 1360 q 881 1297 881 1324 q 865 1251 881 1272 q 808 1221 850 1229 l 563 1172 l 485 1172 z "},"Ŵ":{"ha":1364,"x_min":-31,"x_max":1393,"o":"m 453 -14 l 78 1008 l -31 1008 l -31 1047 l 1025 1047 l 1025 1008 l 939 1008 l 829 707 l 974 304 l 979 304 l 1233 1008 l 1093 1008 l 1093 1047 l 1393 1047 l 1393 1008 l 1279 1008 l 911 -14 l 872 -14 l 696 467 l 510 -14 l 453 -14 m 569 282 l 575 282 l 674 528 l 497 1008 l 301 1008 l 569 282 m 806 769 l 892 1008 l 719 1008 l 806 769 m 421 1172 l 640 1358 l 726 1358 l 944 1172 l 876 1172 l 683 1239 l 490 1172 l 421 1172 z "},"Ẅ":{"ha":1364,"x_min":-31,"x_max":1393,"o":"m 453 -14 l 78 1008 l -31 1008 l -31 1047 l 1025 1047 l 1025 1008 l 939 1008 l 829 707 l 974 304 l 979 304 l 1233 1008 l 1093 1008 l 1093 1047 l 1393 1047 l 1393 1008 l 1279 1008 l 911 -14 l 872 -14 l 696 467 l 510 -14 l 453 -14 m 569 282 l 575 282 l 674 528 l 497 1008 l 301 1008 l 569 282 m 806 769 l 892 1008 l 719 1008 l 806 769 m 825 1153 q 758 1181 786 1153 q 731 1246 731 1208 q 758 1313 731 1285 q 825 1340 786 1340 q 890 1313 863 1340 q 918 1246 918 1285 q 890 1181 918 1208 q 825 1153 863 1153 m 539 1153 q 474 1181 501 1153 q 446 1246 446 1208 q 474 1313 446 1285 q 539 1340 501 1340 q 606 1313 578 1340 q 633 1246 633 1285 q 606 1181 633 1208 q 539 1153 578 1153 z "},"Ẁ":{"ha":1364,"x_min":-31,"x_max":1393,"o":"m 453 -14 l 78 1008 l -31 1008 l -31 1047 l 1025 1047 l 1025 1008 l 939 1008 l 829 707 l 974 304 l 979 304 l 1233 1008 l 1093 1008 l 1093 1047 l 1393 1047 l 1393 1008 l 1279 1008 l 911 -14 l 872 -14 l 696 467 l 510 -14 l 453 -14 m 569 282 l 575 282 l 674 528 l 497 1008 l 301 1008 l 569 282 m 806 769 l 892 1008 l 719 1008 l 806 769 m 801 1172 l 557 1221 q 500 1251 515 1229 q 485 1297 485 1272 q 501 1342 485 1324 q 551 1360 518 1360 q 599 1349 576 1360 q 661 1313 621 1339 l 881 1172 l 801 1172 z "},"X":{"ha":978,"x_min":-21,"x_max":1001,"o":"m -21 0 l -21 39 l 114 39 l 397 481 l 90 1008 l -17 1008 l -17 1047 l 478 1047 l 478 1008 l 333 1008 l 538 657 l 763 1008 l 608 1008 l 608 1047 l 938 1047 l 938 1008 l 811 1008 l 561 615 l 896 39 l 1001 39 l 1001 0 l 515 0 l 515 39 l 654 39 l 421 439 l 165 39 l 333 39 l 333 0 l -21 0 z "},"Y":{"ha":1014,"x_min":-10,"x_max":1024,"o":"m 257 0 l 257 39 l 419 39 l 419 464 l 94 1008 l -10 1008 l -10 1047 l 476 1047 l 476 1008 l 347 1008 l 608 560 l 614 560 l 846 1008 l 683 1008 l 683 1047 l 1024 1047 l 1024 1008 l 896 1008 l 628 485 l 628 39 l 792 39 l 792 0 l 257 0 z "},"Ý":{"ha":1014,"x_min":-10,"x_max":1024,"o":"m 257 0 l 257 39 l 419 39 l 419 464 l 94 1008 l -10 1008 l -10 1047 l 476 1047 l 476 1008 l 347 1008 l 608 560 l 614 560 l 846 1008 l 683 1008 l 683 1047 l 1024 1047 l 1024 1008 l 896 1008 l 628 485 l 628 39 l 792 39 l 792 0 l 257 0 m 308 1172 l 528 1313 q 590 1349 568 1339 q 638 1360 613 1360 q 687 1342 669 1360 q 704 1297 704 1324 q 689 1251 704 1272 q 632 1221 674 1229 l 386 1172 l 308 1172 z "},"Ŷ":{"ha":1014,"x_min":-10,"x_max":1024,"o":"m 257 0 l 257 39 l 419 39 l 419 464 l 94 1008 l -10 1008 l -10 1047 l 476 1047 l 476 1008 l 347 1008 l 608 560 l 614 560 l 846 1008 l 683 1008 l 683 1047 l 1024 1047 l 1024 1008 l 896 1008 l 628 485 l 628 39 l 792 39 l 792 0 l 257 0 m 244 1172 l 464 1358 l 550 1358 l 768 1172 l 700 1172 l 507 1239 l 314 1172 l 244 1172 z "},"Ÿ":{"ha":1014,"x_min":-10,"x_max":1024,"o":"m 257 0 l 257 39 l 419 39 l 419 464 l 94 1008 l -10 1008 l -10 1047 l 476 1047 l 476 1008 l 347 1008 l 608 560 l 614 560 l 846 1008 l 683 1008 l 683 1047 l 1024 1047 l 1024 1008 l 896 1008 l 628 485 l 628 39 l 792 39 l 792 0 l 257 0 m 650 1153 q 583 1181 611 1153 q 556 1246 556 1208 q 583 1313 556 1285 q 650 1340 611 1340 q 715 1313 688 1340 q 743 1246 743 1285 q 715 1181 743 1208 q 650 1153 688 1153 m 364 1153 q 299 1181 326 1153 q 271 1246 271 1208 q 299 1313 271 1285 q 364 1340 326 1340 q 431 1313 403 1340 q 458 1246 458 1285 q 431 1181 458 1208 q 364 1153 403 1153 z "},"Ỵ":{"ha":1014,"x_min":-10,"x_max":1024,"o":"m 257 0 l 257 39 l 419 39 l 419 464 l 94 1008 l -10 1008 l -10 1047 l 476 1047 l 476 1008 l 347 1008 l 608 560 l 614 560 l 846 1008 l 683 1008 l 683 1047 l 1024 1047 l 1024 1008 l 896 1008 l 628 485 l 628 39 l 792 39 l 792 0 l 257 0 m 506 -347 q 433 -316 464 -347 q 401 -243 401 -285 q 433 -169 401 -200 q 506 -137 464 -137 q 580 -169 549 -137 q 611 -243 611 -200 q 580 -316 611 -285 q 506 -347 549 -347 z "},"Ỳ":{"ha":1014,"x_min":-10,"x_max":1024,"o":"m 257 0 l 257 39 l 419 39 l 419 464 l 94 1008 l -10 1008 l -10 1047 l 476 1047 l 476 1008 l 347 1008 l 608 560 l 614 560 l 846 1008 l 683 1008 l 683 1047 l 1024 1047 l 1024 1008 l 896 1008 l 628 485 l 628 39 l 792 39 l 792 0 l 257 0 m 625 1172 l 381 1221 q 324 1251 339 1229 q 308 1297 308 1272 q 325 1342 308 1324 q 375 1360 342 1360 q 422 1349 400 1360 q 485 1313 444 1339 l 704 1172 l 625 1172 z "},"Ỷ":{"ha":1014,"x_min":-10,"x_max":1024,"o":"m 257 0 l 257 39 l 419 39 l 419 464 l 94 1008 l -10 1008 l -10 1047 l 476 1047 l 476 1008 l 347 1008 l 608 560 l 614 560 l 846 1008 l 683 1008 l 683 1047 l 1024 1047 l 1024 1008 l 896 1008 l 628 485 l 628 39 l 792 39 l 792 0 l 257 0 m 501 1131 q 511 1181 501 1161 q 534 1213 521 1200 q 556 1240 547 1226 q 565 1272 565 1253 q 549 1312 565 1299 q 506 1325 532 1325 q 462 1312 478 1325 q 446 1283 446 1299 q 452 1266 446 1269 q 465 1257 458 1263 q 472 1233 472 1251 q 456 1208 472 1217 q 421 1200 440 1200 q 379 1217 396 1200 q 363 1261 363 1233 q 382 1332 363 1306 q 434 1371 401 1358 q 504 1383 467 1383 q 613 1355 576 1383 q 650 1274 650 1326 q 636 1218 650 1238 q 603 1188 622 1199 q 568 1165 583 1176 q 550 1131 553 1153 l 501 1131 z "},"Ỹ":{"ha":1014,"x_min":-10,"x_max":1024,"o":"m 257 0 l 257 39 l 419 39 l 419 464 l 94 1008 l -10 1008 l -10 1047 l 476 1047 l 476 1008 l 347 1008 l 608 560 l 614 560 l 846 1008 l 683 1008 l 683 1047 l 1024 1047 l 1024 1008 l 896 1008 l 628 485 l 628 39 l 792 39 l 792 0 l 257 0 m 244 1172 q 275 1260 251 1218 q 337 1329 299 1301 q 426 1357 375 1357 q 495 1342 464 1357 q 556 1312 526 1326 q 617 1297 585 1297 q 690 1318 665 1297 q 724 1358 714 1339 l 771 1358 q 737 1270 760 1313 q 678 1201 714 1228 q 586 1174 642 1174 q 517 1188 547 1174 q 458 1217 486 1203 q 396 1232 429 1232 q 327 1215 356 1232 q 290 1172 299 1199 l 244 1172 z "},"Z":{"ha":876,"x_min":22,"x_max":851,"o":"m 22 10 l 22 51 l 599 1003 l 599 1011 l 851 1019 l 851 994 l 269 47 l 269 29 l 22 10 m 22 0 l 22 42 l 533 42 q 670 83 614 42 q 757 193 726 125 q 789 340 788 261 l 843 340 l 843 0 l 22 0 m 88 763 l 88 1047 l 851 1047 l 851 1008 l 388 1008 q 256 974 311 1008 q 172 885 201 940 q 140 763 142 829 l 88 763 z "},"Ź":{"ha":876,"x_min":22,"x_max":851,"o":"m 22 10 l 22 51 l 599 1003 l 599 1011 l 851 1019 l 851 994 l 269 47 l 269 29 l 22 10 m 22 0 l 22 42 l 533 42 q 670 83 614 42 q 757 193 726 125 q 789 340 788 261 l 843 340 l 843 0 l 22 0 m 88 763 l 88 1047 l 851 1047 l 851 1008 l 388 1008 q 256 974 311 1008 q 172 885 201 940 q 140 763 142 829 l 88 763 m 240 1172 l 460 1313 q 522 1349 500 1339 q 569 1360 544 1360 q 619 1342 601 1360 q 636 1297 636 1324 q 621 1251 636 1272 q 564 1221 606 1229 l 318 1172 l 240 1172 z "},"Ž":{"ha":876,"x_min":22,"x_max":851,"o":"m 22 10 l 22 51 l 599 1003 l 599 1011 l 851 1019 l 851 994 l 269 47 l 269 29 l 22 10 m 22 0 l 22 42 l 533 42 q 670 83 614 42 q 757 193 726 125 q 789 340 788 261 l 843 340 l 843 0 l 22 0 m 88 763 l 88 1047 l 851 1047 l 851 1008 l 388 1008 q 256 974 311 1008 q 172 885 201 940 q 140 763 142 829 l 88 763 m 396 1172 l 176 1358 l 246 1358 l 439 1292 l 632 1358 l 700 1358 l 482 1172 l 396 1172 z "},"Ż":{"ha":876,"x_min":22,"x_max":851,"o":"m 22 10 l 22 51 l 599 1003 l 599 1011 l 851 1019 l 851 994 l 269 47 l 269 29 l 22 10 m 22 0 l 22 42 l 533 42 q 670 83 614 42 q 757 193 726 125 q 789 340 788 261 l 843 340 l 843 0 l 22 0 m 88 763 l 88 1047 l 851 1047 l 851 1008 l 388 1008 q 256 974 311 1008 q 172 885 201 940 q 140 763 142 829 l 88 763 m 438 1146 q 365 1177 396 1146 q 333 1251 333 1208 q 365 1326 333 1294 q 438 1357 396 1357 q 512 1326 481 1357 q 543 1251 543 1294 q 512 1177 543 1208 q 438 1146 481 1146 z "},"Ẓ":{"ha":876,"x_min":22,"x_max":851,"o":"m 22 10 l 22 51 l 599 1003 l 599 1011 l 851 1019 l 851 994 l 269 47 l 269 29 l 22 10 m 22 0 l 22 42 l 533 42 q 670 83 614 42 q 757 193 726 125 q 789 340 788 261 l 843 340 l 843 0 l 22 0 m 88 763 l 88 1047 l 851 1047 l 851 1008 l 388 1008 q 256 974 311 1008 q 172 885 201 940 q 140 763 142 829 l 88 763 m 438 -347 q 365 -316 396 -347 q 333 -243 333 -285 q 365 -169 333 -200 q 438 -137 396 -137 q 512 -169 481 -137 q 543 -243 543 -200 q 512 -316 543 -285 q 438 -347 481 -347 z "},"a":{"ha":735,"x_min":58,"x_max":739,"o":"m 239 -17 q 109 26 160 -17 q 58 140 58 69 q 105 255 58 207 q 238 328 151 303 q 440 354 324 354 l 440 519 q 413 576 440 556 q 342 597 386 597 q 277 583 303 597 q 251 547 251 569 q 265 518 251 531 q 278 478 278 506 q 251 419 278 444 q 188 394 225 394 q 125 419 149 394 q 101 482 101 444 q 136 564 101 528 q 233 621 171 600 q 372 642 294 642 q 549 602 479 642 q 618 499 618 563 l 618 89 q 627 66 618 75 q 650 57 636 57 q 676 67 661 57 q 714 106 690 78 l 739 76 q 575 -17 667 -17 q 489 10 521 -17 q 446 82 457 36 l 440 82 q 360 13 414 43 q 239 -17 307 -17 m 329 60 q 408 99 376 60 q 440 203 440 139 l 440 314 q 296 276 346 314 q 246 164 246 238 q 267 88 246 117 q 329 60 289 60 z "},"á":{"ha":735,"x_min":58,"x_max":739,"o":"m 239 -17 q 109 26 160 -17 q 58 140 58 69 q 105 255 58 207 q 238 328 151 303 q 440 354 324 354 l 440 519 q 413 576 440 556 q 342 597 386 597 q 277 583 303 597 q 251 547 251 569 q 265 518 251 531 q 278 478 278 506 q 251 419 278 444 q 188 394 225 394 q 125 419 149 394 q 101 482 101 444 q 136 564 101 528 q 233 621 171 600 q 372 642 294 642 q 549 602 479 642 q 618 499 618 563 l 618 89 q 627 66 618 75 q 650 57 636 57 q 676 67 661 57 q 714 106 690 78 l 739 76 q 575 -17 667 -17 q 489 10 521 -17 q 446 82 457 36 l 440 82 q 360 13 414 43 q 239 -17 307 -17 m 329 60 q 408 99 376 60 q 440 203 440 139 l 440 314 q 296 276 346 314 q 246 164 246 238 q 267 88 246 117 q 329 60 289 60 m 315 728 l 482 954 q 531 1000 507 989 q 578 1011 554 1011 q 632 992 614 1011 q 650 949 650 974 q 638 909 650 931 q 583 860 625 888 l 393 728 l 315 728 z "},"ă":{"ha":735,"x_min":58,"x_max":739,"o":"m 239 -17 q 109 26 160 -17 q 58 140 58 69 q 105 255 58 207 q 238 328 151 303 q 440 354 324 354 l 440 519 q 413 576 440 556 q 342 597 386 597 q 277 583 303 597 q 251 547 251 569 q 265 518 251 531 q 278 478 278 506 q 251 419 278 444 q 188 394 225 394 q 125 419 149 394 q 101 482 101 444 q 136 564 101 528 q 233 621 171 600 q 372 642 294 642 q 549 602 479 642 q 618 499 618 563 l 618 89 q 627 66 618 75 q 650 57 636 57 q 676 67 661 57 q 714 106 690 78 l 739 76 q 575 -17 667 -17 q 489 10 521 -17 q 446 82 457 36 l 440 82 q 360 13 414 43 q 239 -17 307 -17 m 329 60 q 408 99 376 60 q 440 203 440 139 l 440 314 q 296 276 346 314 q 246 164 246 238 q 267 88 246 117 q 329 60 289 60 m 368 728 q 220 779 271 728 q 169 915 169 831 l 225 915 q 267 862 228 878 q 365 846 307 846 q 466 863 425 846 q 510 915 507 881 l 567 915 q 545 819 567 863 q 480 752 524 776 q 368 728 436 728 z "},"ắ":{"ha":735,"x_min":58,"x_max":739,"o":"m 239 -17 q 109 26 160 -17 q 58 140 58 69 q 105 255 58 207 q 238 328 151 303 q 440 354 324 354 l 440 519 q 413 576 440 556 q 342 597 386 597 q 277 583 303 597 q 251 547 251 569 q 265 518 251 531 q 278 478 278 506 q 251 419 278 444 q 188 394 225 394 q 125 419 149 394 q 101 482 101 444 q 136 564 101 528 q 233 621 171 600 q 372 642 294 642 q 549 602 479 642 q 618 499 618 563 l 618 89 q 627 66 618 75 q 650 57 636 57 q 676 67 661 57 q 714 106 690 78 l 739 76 q 575 -17 667 -17 q 489 10 521 -17 q 446 82 457 36 l 440 82 q 360 13 414 43 q 239 -17 307 -17 m 329 60 q 408 99 376 60 q 440 203 440 139 l 440 314 q 296 276 346 314 q 246 164 246 238 q 267 88 246 117 q 329 60 289 60 m 368 721 q 220 773 271 721 q 169 910 169 825 l 225 910 q 267 855 228 871 q 365 839 307 839 q 466 856 425 839 q 510 910 507 874 l 567 910 q 545 814 567 857 q 480 746 524 771 q 368 721 436 721 m 171 993 l 389 1133 q 451 1170 429 1160 q 499 1181 474 1181 q 549 1163 532 1181 q 565 1118 565 1144 q 551 1073 565 1094 q 493 1042 536 1051 l 249 993 l 171 993 z "},"ặ":{"ha":735,"x_min":58,"x_max":739,"o":"m 239 -17 q 109 26 160 -17 q 58 140 58 69 q 105 255 58 207 q 238 328 151 303 q 440 354 324 354 l 440 519 q 413 576 440 556 q 342 597 386 597 q 277 583 303 597 q 251 547 251 569 q 265 518 251 531 q 278 478 278 506 q 251 419 278 444 q 188 394 225 394 q 125 419 149 394 q 101 482 101 444 q 136 564 101 528 q 233 621 171 600 q 372 642 294 642 q 549 602 479 642 q 618 499 618 563 l 618 89 q 627 66 618 75 q 650 57 636 57 q 676 67 661 57 q 714 106 690 78 l 739 76 q 575 -17 667 -17 q 489 10 521 -17 q 446 82 457 36 l 440 82 q 360 13 414 43 q 239 -17 307 -17 m 329 60 q 408 99 376 60 q 440 203 440 139 l 440 314 q 296 276 346 314 q 246 164 246 238 q 267 88 246 117 q 329 60 289 60 m 367 -347 q 294 -316 325 -347 q 263 -243 263 -285 q 294 -169 263 -200 q 367 -137 325 -137 q 441 -169 410 -137 q 472 -243 472 -200 q 441 -316 472 -285 q 367 -347 410 -347 m 368 728 q 220 779 271 728 q 169 915 169 831 l 225 915 q 267 862 228 878 q 365 846 307 846 q 466 863 425 846 q 510 915 507 881 l 567 915 q 545 819 567 863 q 480 752 524 776 q 368 728 436 728 z "},"ằ":{"ha":735,"x_min":58,"x_max":739,"o":"m 239 -17 q 109 26 160 -17 q 58 140 58 69 q 105 255 58 207 q 238 328 151 303 q 440 354 324 354 l 440 519 q 413 576 440 556 q 342 597 386 597 q 277 583 303 597 q 251 547 251 569 q 265 518 251 531 q 278 478 278 506 q 251 419 278 444 q 188 394 225 394 q 125 419 149 394 q 101 482 101 444 q 136 564 101 528 q 233 621 171 600 q 372 642 294 642 q 549 602 479 642 q 618 499 618 563 l 618 89 q 627 66 618 75 q 650 57 636 57 q 676 67 661 57 q 714 106 690 78 l 739 76 q 575 -17 667 -17 q 489 10 521 -17 q 446 82 457 36 l 440 82 q 360 13 414 43 q 239 -17 307 -17 m 329 60 q 408 99 376 60 q 440 203 440 139 l 440 314 q 296 276 346 314 q 246 164 246 238 q 267 88 246 117 q 329 60 289 60 m 368 721 q 220 773 271 721 q 169 910 169 825 l 225 910 q 267 855 228 871 q 365 839 307 839 q 466 856 425 839 q 510 910 507 874 l 567 910 q 545 814 567 857 q 480 746 524 771 q 368 721 436 721 m 488 997 l 243 1046 q 185 1077 200 1056 q 171 1122 171 1099 q 188 1167 171 1149 q 238 1185 204 1185 q 285 1174 263 1185 q 347 1138 307 1164 l 565 997 l 488 997 z "},"ẳ":{"ha":735,"x_min":58,"x_max":739,"o":"m 239 -17 q 109 26 160 -17 q 58 140 58 69 q 105 255 58 207 q 238 328 151 303 q 440 354 324 354 l 440 519 q 413 576 440 556 q 342 597 386 597 q 277 583 303 597 q 251 547 251 569 q 265 518 251 531 q 278 478 278 506 q 251 419 278 444 q 188 394 225 394 q 125 419 149 394 q 101 482 101 444 q 136 564 101 528 q 233 621 171 600 q 372 642 294 642 q 549 602 479 642 q 618 499 618 563 l 618 89 q 627 66 618 75 q 650 57 636 57 q 676 67 661 57 q 714 106 690 78 l 739 76 q 575 -17 667 -17 q 489 10 521 -17 q 446 82 457 36 l 440 82 q 360 13 414 43 q 239 -17 307 -17 m 329 60 q 408 99 376 60 q 440 203 440 139 l 440 314 q 296 276 346 314 q 246 164 246 238 q 267 88 246 117 q 329 60 289 60 m 368 721 q 220 773 271 721 q 169 910 169 825 l 225 910 q 267 855 228 871 q 365 839 307 839 q 466 856 425 839 q 510 910 507 874 l 567 910 q 545 814 567 857 q 480 746 524 771 q 368 721 436 721 m 342 913 q 351 963 342 943 q 373 997 360 983 q 396 1024 386 1011 q 406 1056 406 1038 q 389 1094 406 1081 q 344 1107 372 1107 q 302 1094 318 1107 q 286 1065 286 1081 q 292 1048 286 1051 q 305 1039 299 1044 q 311 1015 311 1033 q 296 990 311 999 q 261 982 281 982 q 219 999 236 982 q 201 1043 201 1015 q 222 1114 201 1088 q 274 1153 242 1140 q 344 1165 306 1165 q 453 1137 415 1165 q 490 1057 490 1108 q 476 1000 490 1019 q 442 969 461 981 q 407 947 422 958 q 390 913 392 935 l 342 913 z "},"ẵ":{"ha":735,"x_min":58,"x_max":739,"o":"m 239 -17 q 109 26 160 -17 q 58 140 58 69 q 105 255 58 207 q 238 328 151 303 q 440 354 324 354 l 440 519 q 413 576 440 556 q 342 597 386 597 q 277 583 303 597 q 251 547 251 569 q 265 518 251 531 q 278 478 278 506 q 251 419 278 444 q 188 394 225 394 q 125 419 149 394 q 101 482 101 444 q 136 564 101 528 q 233 621 171 600 q 372 642 294 642 q 549 602 479 642 q 618 499 618 563 l 618 89 q 627 66 618 75 q 650 57 636 57 q 676 67 661 57 q 714 106 690 78 l 739 76 q 575 -17 667 -17 q 489 10 521 -17 q 446 82 457 36 l 440 82 q 360 13 414 43 q 239 -17 307 -17 m 329 60 q 408 99 376 60 q 440 203 440 139 l 440 314 q 296 276 346 314 q 246 164 246 238 q 267 88 246 117 q 329 60 289 60 m 368 721 q 220 773 271 721 q 169 910 169 825 l 225 910 q 267 855 228 871 q 365 839 307 839 q 466 856 425 839 q 510 910 507 874 l 567 910 q 545 814 567 857 q 480 746 524 771 q 368 721 436 721 m 106 969 q 138 1058 114 1015 q 199 1127 161 1100 q 288 1154 238 1154 q 356 1140 325 1154 q 417 1110 388 1125 q 478 1094 446 1094 q 551 1115 526 1094 q 585 1156 575 1136 l 632 1156 q 598 1067 621 1110 q 539 998 575 1025 q 447 971 503 971 q 378 985 408 971 q 319 1015 347 1000 q 257 1031 290 1031 q 188 1013 217 1031 q 151 969 160 996 l 106 969 z "},"â":{"ha":735,"x_min":58,"x_max":739,"o":"m 239 -17 q 109 26 160 -17 q 58 140 58 69 q 105 255 58 207 q 238 328 151 303 q 440 354 324 354 l 440 519 q 413 576 440 556 q 342 597 386 597 q 277 583 303 597 q 251 547 251 569 q 265 518 251 531 q 278 478 278 506 q 251 419 278 444 q 188 394 225 394 q 125 419 149 394 q 101 482 101 444 q 136 564 101 528 q 233 621 171 600 q 372 642 294 642 q 549 602 479 642 q 618 499 618 563 l 618 89 q 627 66 618 75 q 650 57 636 57 q 676 67 661 57 q 714 106 690 78 l 739 76 q 575 -17 667 -17 q 489 10 521 -17 q 446 82 457 36 l 440 82 q 360 13 414 43 q 239 -17 307 -17 m 329 60 q 408 99 376 60 q 440 203 440 139 l 440 314 q 296 276 346 314 q 246 164 246 238 q 267 88 246 117 q 329 60 289 60 m 124 728 l 325 1006 l 411 1006 l 611 728 l 551 728 l 368 857 l 183 728 l 124 728 z "},"ấ":{"ha":735,"x_min":58,"x_max":739,"o":"m 239 -17 q 109 26 160 -17 q 58 140 58 69 q 105 255 58 207 q 238 328 151 303 q 440 354 324 354 l 440 519 q 413 576 440 556 q 342 597 386 597 q 277 583 303 597 q 251 547 251 569 q 265 518 251 531 q 278 478 278 506 q 251 419 278 444 q 188 394 225 394 q 125 419 149 394 q 101 482 101 444 q 136 564 101 528 q 233 621 171 600 q 372 642 294 642 q 549 602 479 642 q 618 499 618 563 l 618 89 q 627 66 618 75 q 650 57 636 57 q 676 67 661 57 q 714 106 690 78 l 739 76 q 575 -17 667 -17 q 489 10 521 -17 q 446 82 457 36 l 440 82 q 360 13 414 43 q 239 -17 307 -17 m 329 60 q 408 99 376 60 q 440 203 440 139 l 440 314 q 296 276 346 314 q 246 164 246 238 q 267 88 246 117 q 329 60 289 60 m 139 726 l 325 886 l 411 886 l 597 726 l 529 726 l 368 789 l 207 726 l 139 726 m 169 928 l 389 1068 q 451 1105 429 1094 q 499 1115 474 1115 q 549 1097 532 1115 q 565 1053 565 1079 q 550 1008 565 1029 q 493 976 535 986 l 249 928 l 169 928 z "},"ậ":{"ha":735,"x_min":58,"x_max":739,"o":"m 239 -17 q 109 26 160 -17 q 58 140 58 69 q 105 255 58 207 q 238 328 151 303 q 440 354 324 354 l 440 519 q 413 576 440 556 q 342 597 386 597 q 277 583 303 597 q 251 547 251 569 q 265 518 251 531 q 278 478 278 506 q 251 419 278 444 q 188 394 225 394 q 125 419 149 394 q 101 482 101 444 q 136 564 101 528 q 233 621 171 600 q 372 642 294 642 q 549 602 479 642 q 618 499 618 563 l 618 89 q 627 66 618 75 q 650 57 636 57 q 676 67 661 57 q 714 106 690 78 l 739 76 q 575 -17 667 -17 q 489 10 521 -17 q 446 82 457 36 l 440 82 q 360 13 414 43 q 239 -17 307 -17 m 329 60 q 408 99 376 60 q 440 203 440 139 l 440 314 q 296 276 346 314 q 246 164 246 238 q 267 88 246 117 q 329 60 289 60 m 367 -347 q 294 -316 325 -347 q 263 -243 263 -285 q 294 -169 263 -200 q 367 -137 325 -137 q 441 -169 410 -137 q 472 -243 472 -200 q 441 -316 472 -285 q 367 -347 410 -347 m 124 728 l 325 1006 l 411 1006 l 611 728 l 551 728 l 368 857 l 183 728 l 124 728 z "},"ầ":{"ha":735,"x_min":58,"x_max":739,"o":"m 239 -17 q 109 26 160 -17 q 58 140 58 69 q 105 255 58 207 q 238 328 151 303 q 440 354 324 354 l 440 519 q 413 576 440 556 q 342 597 386 597 q 277 583 303 597 q 251 547 251 569 q 265 518 251 531 q 278 478 278 506 q 251 419 278 444 q 188 394 225 394 q 125 419 149 394 q 101 482 101 444 q 136 564 101 528 q 233 621 171 600 q 372 642 294 642 q 549 602 479 642 q 618 499 618 563 l 618 89 q 627 66 618 75 q 650 57 636 57 q 676 67 661 57 q 714 106 690 78 l 739 76 q 575 -17 667 -17 q 489 10 521 -17 q 446 82 457 36 l 440 82 q 360 13 414 43 q 239 -17 307 -17 m 329 60 q 408 99 376 60 q 440 203 440 139 l 440 314 q 296 276 346 314 q 246 164 246 238 q 267 88 246 117 q 329 60 289 60 m 139 726 l 325 886 l 411 886 l 597 726 l 529 726 l 368 789 l 207 726 l 139 726 m 488 932 l 242 981 q 185 1012 200 990 q 169 1057 169 1033 q 187 1101 169 1083 q 236 1119 204 1119 q 284 1109 263 1119 q 346 1072 306 1099 l 565 932 l 488 932 z "},"ẩ":{"ha":735,"x_min":58,"x_max":739,"o":"m 239 -17 q 109 26 160 -17 q 58 140 58 69 q 105 255 58 207 q 238 328 151 303 q 440 354 324 354 l 440 519 q 413 576 440 556 q 342 597 386 597 q 277 583 303 597 q 251 547 251 569 q 265 518 251 531 q 278 478 278 506 q 251 419 278 444 q 188 394 225 394 q 125 419 149 394 q 101 482 101 444 q 136 564 101 528 q 233 621 171 600 q 372 642 294 642 q 549 602 479 642 q 618 499 618 563 l 618 89 q 627 66 618 75 q 650 57 636 57 q 676 67 661 57 q 714 106 690 78 l 739 76 q 575 -17 667 -17 q 489 10 521 -17 q 446 82 457 36 l 440 82 q 360 13 414 43 q 239 -17 307 -17 m 329 60 q 408 99 376 60 q 440 203 440 139 l 440 314 q 296 276 346 314 q 246 164 246 238 q 267 88 246 117 q 329 60 289 60 m 139 726 l 325 886 l 411 886 l 597 726 l 529 726 l 368 789 l 207 726 l 139 726 m 544 886 q 553 936 544 917 q 576 969 563 956 q 599 992 589 982 q 608 1015 608 1003 q 592 1066 608 1051 q 547 1081 575 1081 q 505 1067 521 1081 q 489 1039 489 1054 q 496 1022 489 1025 q 508 1013 503 1018 q 514 989 514 1007 q 499 964 514 972 q 464 956 483 956 q 422 972 439 956 q 404 1017 404 989 q 424 1088 404 1061 q 476 1126 443 1114 q 547 1139 508 1139 q 656 1108 618 1139 q 693 1008 693 1076 q 678 965 693 979 q 644 941 664 950 q 610 920 625 932 q 593 886 594 908 l 544 886 z "},"ẫ":{"ha":735,"x_min":58,"x_max":739,"o":"m 239 -17 q 109 26 160 -17 q 58 140 58 69 q 105 255 58 207 q 238 328 151 303 q 440 354 324 354 l 440 519 q 413 576 440 556 q 342 597 386 597 q 277 583 303 597 q 251 547 251 569 q 265 518 251 531 q 278 478 278 506 q 251 419 278 444 q 188 394 225 394 q 125 419 149 394 q 101 482 101 444 q 136 564 101 528 q 233 621 171 600 q 372 642 294 642 q 549 602 479 642 q 618 499 618 563 l 618 89 q 627 66 618 75 q 650 57 636 57 q 676 67 661 57 q 714 106 690 78 l 739 76 q 575 -17 667 -17 q 489 10 521 -17 q 446 82 457 36 l 440 82 q 360 13 414 43 q 239 -17 307 -17 m 329 60 q 408 99 376 60 q 440 203 440 139 l 440 314 q 296 276 346 314 q 246 164 246 238 q 267 88 246 117 q 329 60 289 60 m 139 724 l 325 883 l 411 883 l 597 724 l 529 724 l 368 786 l 207 724 l 139 724 m 106 964 q 137 1051 113 1010 q 199 1121 161 1093 q 288 1149 236 1149 q 356 1133 325 1149 q 417 1103 388 1118 q 478 1089 446 1089 q 551 1110 526 1089 q 583 1150 575 1131 l 631 1150 q 598 1062 621 1104 q 538 992 575 1019 q 447 965 501 965 q 378 980 408 965 q 319 1009 347 994 q 257 1024 290 1024 q 188 1007 215 1024 q 151 964 160 990 l 106 964 z "},"ȁ":{"ha":735,"x_min":-22,"x_max":739,"o":"m 239 -17 q 109 26 160 -17 q 58 140 58 69 q 105 255 58 207 q 238 328 151 303 q 440 354 324 354 l 440 519 q 413 576 440 556 q 342 597 386 597 q 277 583 303 597 q 251 547 251 569 q 265 518 251 531 q 278 478 278 506 q 251 419 278 444 q 188 394 225 394 q 125 419 149 394 q 101 482 101 444 q 136 564 101 528 q 233 621 171 600 q 372 642 294 642 q 549 602 479 642 q 618 499 618 563 l 618 89 q 627 66 618 75 q 650 57 636 57 q 676 67 661 57 q 714 106 690 78 l 739 76 q 575 -17 667 -17 q 489 10 521 -17 q 446 82 457 36 l 440 82 q 360 13 414 43 q 239 -17 307 -17 m 329 60 q 408 99 376 60 q 440 203 440 139 l 440 314 q 296 276 346 314 q 246 164 246 238 q 267 88 246 117 q 329 60 289 60 m 503 728 l 313 860 q 259 909 272 888 q 246 949 246 931 q 264 992 246 974 q 318 1011 282 1011 q 365 1000 342 1011 q 414 954 389 989 l 581 728 l 503 728 m 235 728 l 46 860 q -8 909 6 888 q -22 949 -22 931 q -3 992 -22 974 q 51 1011 15 1011 q 97 1000 74 1011 q 146 954 121 989 l 313 728 l 235 728 z "},"ä":{"ha":735,"x_min":58,"x_max":739,"o":"m 239 -17 q 109 26 160 -17 q 58 140 58 69 q 105 255 58 207 q 238 328 151 303 q 440 354 324 354 l 440 519 q 413 576 440 556 q 342 597 386 597 q 277 583 303 597 q 251 547 251 569 q 265 518 251 531 q 278 478 278 506 q 251 419 278 444 q 188 394 225 394 q 125 419 149 394 q 101 482 101 444 q 136 564 101 528 q 233 621 171 600 q 372 642 294 642 q 549 602 479 642 q 618 499 618 563 l 618 89 q 627 66 618 75 q 650 57 636 57 q 676 67 661 57 q 714 106 690 78 l 739 76 q 575 -17 667 -17 q 489 10 521 -17 q 446 82 457 36 l 440 82 q 360 13 414 43 q 239 -17 307 -17 m 329 60 q 408 99 376 60 q 440 203 440 139 l 440 314 q 296 276 346 314 q 246 164 246 238 q 267 88 246 117 q 329 60 289 60 m 500 785 q 440 810 465 785 q 414 871 414 836 q 440 932 414 907 q 500 957 465 957 q 562 932 536 957 q 588 871 588 907 q 562 810 588 836 q 500 785 536 785 m 236 785 q 176 810 201 785 q 150 871 150 836 q 176 932 150 907 q 236 957 201 957 q 298 932 272 957 q 324 871 324 907 q 298 810 324 836 q 236 785 272 785 z "},"ạ":{"ha":735,"x_min":58,"x_max":739,"o":"m 239 -17 q 109 26 160 -17 q 58 140 58 69 q 105 255 58 207 q 238 328 151 303 q 440 354 324 354 l 440 519 q 413 576 440 556 q 342 597 386 597 q 277 583 303 597 q 251 547 251 569 q 265 518 251 531 q 278 478 278 506 q 251 419 278 444 q 188 394 225 394 q 125 419 149 394 q 101 482 101 444 q 136 564 101 528 q 233 621 171 600 q 372 642 294 642 q 549 602 479 642 q 618 499 618 563 l 618 89 q 627 66 618 75 q 650 57 636 57 q 676 67 661 57 q 714 106 690 78 l 739 76 q 575 -17 667 -17 q 489 10 521 -17 q 446 82 457 36 l 440 82 q 360 13 414 43 q 239 -17 307 -17 m 329 60 q 408 99 376 60 q 440 203 440 139 l 440 314 q 296 276 346 314 q 246 164 246 238 q 267 88 246 117 q 329 60 289 60 m 367 -347 q 294 -316 325 -347 q 263 -243 263 -285 q 294 -169 263 -200 q 367 -137 325 -137 q 441 -169 410 -137 q 472 -243 472 -200 q 441 -316 472 -285 q 367 -347 410 -347 z "},"à":{"ha":735,"x_min":58,"x_max":739,"o":"m 239 -17 q 109 26 160 -17 q 58 140 58 69 q 105 255 58 207 q 238 328 151 303 q 440 354 324 354 l 440 519 q 413 576 440 556 q 342 597 386 597 q 277 583 303 597 q 251 547 251 569 q 265 518 251 531 q 278 478 278 506 q 251 419 278 444 q 188 394 225 394 q 125 419 149 394 q 101 482 101 444 q 136 564 101 528 q 233 621 171 600 q 372 642 294 642 q 549 602 479 642 q 618 499 618 563 l 618 89 q 627 66 618 75 q 650 57 636 57 q 676 67 661 57 q 714 106 690 78 l 739 76 q 575 -17 667 -17 q 489 10 521 -17 q 446 82 457 36 l 440 82 q 360 13 414 43 q 239 -17 307 -17 m 329 60 q 408 99 376 60 q 440 203 440 139 l 440 314 q 296 276 346 314 q 246 164 246 238 q 267 88 246 117 q 329 60 289 60 m 350 728 l 161 860 q 107 909 121 888 q 93 949 93 931 q 112 992 93 974 q 167 1011 131 1011 q 213 1000 189 1011 q 261 954 236 989 l 428 728 l 350 728 z "},"ả":{"ha":735,"x_min":58,"x_max":739,"o":"m 239 -17 q 109 26 160 -17 q 58 140 58 69 q 105 255 58 207 q 238 328 151 303 q 440 354 324 354 l 440 519 q 413 576 440 556 q 342 597 386 597 q 277 583 303 597 q 251 547 251 569 q 265 518 251 531 q 278 478 278 506 q 251 419 278 444 q 188 394 225 394 q 125 419 149 394 q 101 482 101 444 q 136 564 101 528 q 233 621 171 600 q 372 642 294 642 q 549 602 479 642 q 618 499 618 563 l 618 89 q 627 66 618 75 q 650 57 636 57 q 676 67 661 57 q 714 106 690 78 l 739 76 q 575 -17 667 -17 q 489 10 521 -17 q 446 82 457 36 l 440 82 q 360 13 414 43 q 239 -17 307 -17 m 329 60 q 408 99 376 60 q 440 203 440 139 l 440 314 q 296 276 346 314 q 246 164 246 238 q 267 88 246 117 q 329 60 289 60 m 363 708 q 372 758 363 739 q 395 791 382 778 q 417 817 408 804 q 426 850 426 831 q 410 890 426 876 q 367 903 393 903 q 323 890 339 903 q 307 861 307 876 q 313 844 307 847 q 326 835 319 840 q 333 811 333 829 q 317 786 333 794 q 282 778 301 778 q 240 794 257 778 q 224 839 224 811 q 243 910 224 883 q 295 949 263 936 q 365 961 328 961 q 474 933 438 961 q 511 851 511 904 q 497 796 511 815 q 464 765 483 776 q 429 742 444 754 q 411 708 414 731 l 363 708 z "},"ȃ":{"ha":735,"x_min":58,"x_max":739,"o":"m 239 -17 q 109 26 160 -17 q 58 140 58 69 q 105 255 58 207 q 238 328 151 303 q 440 354 324 354 l 440 519 q 413 576 440 556 q 342 597 386 597 q 277 583 303 597 q 251 547 251 569 q 265 518 251 531 q 278 478 278 506 q 251 419 278 444 q 188 394 225 394 q 125 419 149 394 q 101 482 101 444 q 136 564 101 528 q 233 621 171 600 q 372 642 294 642 q 549 602 479 642 q 618 499 618 563 l 618 89 q 627 66 618 75 q 650 57 636 57 q 676 67 661 57 q 714 106 690 78 l 739 76 q 575 -17 667 -17 q 489 10 521 -17 q 446 82 457 36 l 440 82 q 360 13 414 43 q 239 -17 307 -17 m 329 60 q 408 99 376 60 q 440 203 440 139 l 440 314 q 296 276 346 314 q 246 164 246 238 q 267 88 246 117 q 329 60 289 60 m 140 728 q 198 899 140 833 q 368 964 256 964 q 538 897 483 964 q 593 728 593 829 l 538 728 q 487 811 535 785 q 365 838 439 838 q 247 812 293 838 q 197 728 200 786 l 140 728 z "},"ā":{"ha":735,"x_min":58,"x_max":739,"o":"m 239 -17 q 109 26 160 -17 q 58 140 58 69 q 105 255 58 207 q 238 328 151 303 q 440 354 324 354 l 440 519 q 413 576 440 556 q 342 597 386 597 q 277 583 303 597 q 251 547 251 569 q 265 518 251 531 q 278 478 278 506 q 251 419 278 444 q 188 394 225 394 q 125 419 149 394 q 101 482 101 444 q 136 564 101 528 q 233 621 171 600 q 372 642 294 642 q 549 602 479 642 q 618 499 618 563 l 618 89 q 627 66 618 75 q 650 57 636 57 q 676 67 661 57 q 714 106 690 78 l 739 76 q 575 -17 667 -17 q 489 10 521 -17 q 446 82 457 36 l 440 82 q 360 13 414 43 q 239 -17 307 -17 m 329 60 q 408 99 376 60 q 440 203 440 139 l 440 314 q 296 276 346 314 q 246 164 246 238 q 267 88 246 117 q 329 60 289 60 m 136 781 l 136 892 l 599 892 l 599 781 l 136 781 z "},"ą":{"ha":735,"x_min":58,"x_max":739,"o":"m 239 -17 q 109 26 160 -17 q 58 140 58 69 q 105 255 58 207 q 238 328 151 303 q 440 354 324 354 l 440 519 q 413 576 440 556 q 342 597 386 597 q 277 583 303 597 q 251 547 251 569 q 265 518 251 531 q 278 478 278 506 q 251 419 278 444 q 188 394 225 394 q 125 419 149 394 q 101 482 101 444 q 136 564 101 528 q 233 621 171 600 q 372 642 294 642 q 549 602 479 642 q 618 499 618 563 l 618 89 q 627 66 618 75 q 650 57 636 57 q 676 67 661 57 q 714 106 690 78 l 739 76 q 575 -17 667 -17 q 489 10 521 -17 q 446 82 457 36 l 440 82 q 360 13 414 43 q 239 -17 307 -17 m 329 60 q 408 99 376 60 q 440 203 440 139 l 440 314 q 296 276 346 314 q 246 164 246 238 q 267 88 246 117 q 329 60 289 60 m 525 -337 q 435 -306 469 -337 q 401 -222 401 -275 q 420 -151 401 -186 q 483 -77 439 -117 q 600 14 526 -37 l 660 14 q 554 -101 592 -43 q 517 -210 517 -160 q 572 -269 517 -269 q 611 -261 592 -269 q 656 -233 631 -253 l 661 -233 l 661 -278 q 601 -322 638 -306 q 525 -337 565 -337 z "},"å":{"ha":735,"x_min":58,"x_max":739,"o":"m 239 -17 q 109 26 160 -17 q 58 140 58 69 q 105 255 58 207 q 238 328 151 303 q 440 354 324 354 l 440 519 q 413 576 440 556 q 342 597 386 597 q 277 583 303 597 q 251 547 251 569 q 265 518 251 531 q 278 478 278 506 q 251 419 278 444 q 188 394 225 394 q 125 419 149 394 q 101 482 101 444 q 136 564 101 528 q 233 621 171 600 q 372 642 294 642 q 549 602 479 642 q 618 499 618 563 l 618 89 q 627 66 618 75 q 650 57 636 57 q 676 67 661 57 q 714 106 690 78 l 739 76 q 575 -17 667 -17 q 489 10 521 -17 q 446 82 457 36 l 440 82 q 360 13 414 43 q 239 -17 307 -17 m 329 60 q 408 99 376 60 q 440 203 440 139 l 440 314 q 296 276 346 314 q 246 164 246 238 q 267 88 246 117 q 329 60 289 60 m 368 742 q 269 783 311 742 q 226 883 226 825 q 269 982 226 940 q 368 1024 311 1024 q 467 983 425 1024 q 510 883 510 942 q 468 783 510 825 q 368 742 426 742 m 368 815 q 415 835 396 815 q 435 883 435 856 q 415 929 435 910 q 368 949 394 949 q 322 929 342 949 q 301 883 301 910 q 321 836 301 857 q 368 815 340 815 z "},"ǻ":{"ha":735,"x_min":58,"x_max":739,"o":"m 239 -17 q 109 26 160 -17 q 58 140 58 69 q 105 255 58 207 q 238 328 151 303 q 440 354 324 354 l 440 519 q 413 576 440 556 q 342 597 386 597 q 277 583 303 597 q 251 547 251 569 q 265 518 251 531 q 278 478 278 506 q 251 419 278 444 q 188 394 225 394 q 125 419 149 394 q 101 482 101 444 q 136 564 101 528 q 233 621 171 600 q 372 642 294 642 q 549 602 479 642 q 618 499 618 563 l 618 89 q 627 66 618 75 q 650 57 636 57 q 676 67 661 57 q 714 106 690 78 l 739 76 q 575 -17 667 -17 q 489 10 521 -17 q 446 82 457 36 l 440 82 q 360 13 414 43 q 239 -17 307 -17 m 329 60 q 408 99 376 60 q 440 203 440 139 l 440 314 q 296 276 346 314 q 246 164 246 238 q 267 88 246 117 q 329 60 289 60 m 368 742 q 269 783 311 742 q 226 883 226 825 q 269 982 226 940 q 368 1024 311 1024 q 467 983 425 1024 q 510 883 510 942 q 468 783 510 825 q 368 742 426 742 m 368 815 q 415 835 396 815 q 435 883 435 856 q 415 929 435 910 q 368 949 394 949 q 322 929 342 949 q 301 883 301 910 q 321 836 301 857 q 368 815 340 815 m 169 1128 l 389 1268 q 451 1305 429 1294 q 499 1315 474 1315 q 548 1297 531 1315 q 565 1253 565 1279 q 550 1206 565 1228 q 493 1176 535 1185 l 247 1128 l 169 1128 z "},"ã":{"ha":735,"x_min":58,"x_max":739,"o":"m 239 -17 q 109 26 160 -17 q 58 140 58 69 q 105 255 58 207 q 238 328 151 303 q 440 354 324 354 l 440 519 q 413 576 440 556 q 342 597 386 597 q 277 583 303 597 q 251 547 251 569 q 265 518 251 531 q 278 478 278 506 q 251 419 278 444 q 188 394 225 394 q 125 419 149 394 q 101 482 101 444 q 136 564 101 528 q 233 621 171 600 q 372 642 294 642 q 549 602 479 642 q 618 499 618 563 l 618 89 q 627 66 618 75 q 650 57 636 57 q 676 67 661 57 q 714 106 690 78 l 739 76 q 575 -17 667 -17 q 489 10 521 -17 q 446 82 457 36 l 440 82 q 360 13 414 43 q 239 -17 307 -17 m 329 60 q 408 99 376 60 q 440 203 440 139 l 440 314 q 296 276 346 314 q 246 164 246 238 q 267 88 246 117 q 329 60 289 60 m 104 749 q 136 837 113 794 q 198 906 160 879 q 288 933 236 933 q 356 919 325 933 q 417 890 388 904 q 478 875 446 875 q 551 895 526 875 q 583 935 575 915 l 631 935 q 597 847 619 889 q 538 777 575 804 q 447 750 501 750 q 378 765 408 750 q 319 795 347 781 q 257 810 290 810 q 188 792 215 810 q 150 749 160 775 l 104 749 z "},"æ":{"ha":1086,"x_min":60,"x_max":1035,"o":"m 761 -18 q 604 29 674 -18 q 494 153 535 76 q 454 317 454 231 q 490 473 454 399 q 594 594 526 547 q 753 642 661 642 q 892 608 829 642 q 993 513 956 575 q 1031 368 1031 451 l 1031 356 l 558 356 l 558 394 l 846 394 l 846 478 q 743 600 846 600 q 672 573 699 600 q 632 483 644 546 q 619 310 619 419 q 633 136 619 197 q 677 52 646 75 q 763 29 708 29 q 894 66 836 29 q 992 192 953 103 l 1035 192 q 976 83 1017 131 q 881 8 936 35 q 761 -18 825 -18 m 331 60 q 410 99 378 60 q 442 203 442 139 l 442 314 q 297 276 347 314 q 247 164 247 238 q 269 88 247 117 q 331 60 290 60 m 244 -17 q 110 26 161 -17 q 60 139 60 69 q 106 254 60 206 q 239 328 153 303 q 442 354 325 354 l 442 519 q 415 576 442 556 q 343 597 388 597 q 278 583 304 597 q 253 547 253 569 q 266 518 253 531 q 279 478 279 506 q 253 419 279 444 q 189 394 226 394 q 126 419 150 394 q 103 482 103 444 q 138 564 103 528 q 234 621 172 600 q 374 642 296 642 q 550 602 481 642 q 619 499 619 563 l 619 89 l 493 157 l 488 157 q 394 28 460 72 q 244 -17 328 -17 z "},"ǽ":{"ha":1086,"x_min":60,"x_max":1035,"o":"m 761 -18 q 604 29 674 -18 q 494 153 535 76 q 454 317 454 231 q 490 473 454 399 q 594 594 526 547 q 753 642 661 642 q 892 608 829 642 q 993 513 956 575 q 1031 368 1031 451 l 1031 356 l 558 356 l 558 394 l 846 394 l 846 478 q 743 600 846 600 q 672 573 699 600 q 632 483 644 546 q 619 310 619 419 q 633 136 619 197 q 677 52 646 75 q 763 29 708 29 q 894 66 836 29 q 992 192 953 103 l 1035 192 q 976 83 1017 131 q 881 8 936 35 q 761 -18 825 -18 m 331 60 q 410 99 378 60 q 442 203 442 139 l 442 314 q 297 276 347 314 q 247 164 247 238 q 269 88 247 117 q 331 60 290 60 m 244 -17 q 110 26 161 -17 q 60 139 60 69 q 106 254 60 206 q 239 328 153 303 q 442 354 325 354 l 442 519 q 415 576 442 556 q 343 597 388 597 q 278 583 304 597 q 253 547 253 569 q 266 518 253 531 q 279 478 279 506 q 253 419 279 444 q 189 394 226 394 q 126 419 150 394 q 103 482 103 444 q 138 564 103 528 q 234 621 172 600 q 374 642 296 642 q 550 602 481 642 q 619 499 619 563 l 619 89 l 493 157 l 488 157 q 394 28 460 72 q 244 -17 328 -17 m 518 728 l 685 954 q 733 1000 710 989 q 781 1011 757 1011 q 835 992 817 1011 q 853 949 853 974 q 840 909 853 931 q 786 860 828 888 l 596 728 l 518 728 z "},"b":{"ha":847,"x_min":21,"x_max":785,"o":"m 501 -17 q 389 11 438 -17 q 317 81 340 39 l 283 81 l 311 292 q 358 97 311 160 q 476 35 406 35 q 536 57 513 35 q 571 139 560 79 q 582 310 582 199 q 570 484 582 424 q 535 567 558 544 q 475 590 511 590 q 358 528 404 590 q 311 333 311 465 l 283 544 l 317 544 q 390 614 340 586 q 503 642 439 642 q 641 601 576 642 q 745 485 706 560 q 785 313 785 411 q 744 140 785 214 q 640 24 704 65 q 501 -17 575 -17 m 21 0 l 21 39 l 311 39 l 311 0 l 21 0 m 132 21 l 132 1025 l 311 1025 l 311 21 l 132 21 m 21 1008 l 21 1047 l 311 1047 l 311 1008 l 21 1008 z "},"c":{"ha":715,"x_min":64,"x_max":669,"o":"m 400 -18 q 270 10 331 -18 q 163 85 210 38 q 90 191 117 132 q 64 314 64 250 q 90 433 64 375 q 161 539 115 492 q 269 614 207 586 q 406 642 332 642 q 524 620 469 642 q 610 562 578 599 q 642 475 642 525 q 613 403 642 429 q 540 378 585 378 q 473 401 500 378 q 446 464 446 424 q 456 504 446 490 q 474 528 465 518 q 483 556 483 539 q 464 589 483 578 q 408 600 444 600 q 332 576 364 600 q 284 488 300 553 q 268 299 268 424 q 282 133 268 192 q 327 51 296 74 q 410 28 358 28 q 538 69 486 28 q 626 206 589 111 l 669 206 q 574 44 643 106 q 400 -18 504 -18 z "},"ć":{"ha":715,"x_min":64,"x_max":669,"o":"m 400 -18 q 270 10 331 -18 q 163 85 210 38 q 90 191 117 132 q 64 314 64 250 q 90 433 64 375 q 161 539 115 492 q 269 614 207 586 q 406 642 332 642 q 524 620 469 642 q 610 562 578 599 q 642 475 642 525 q 613 403 642 429 q 540 378 585 378 q 473 401 500 378 q 446 464 446 424 q 456 504 446 490 q 474 528 465 518 q 483 556 483 539 q 464 589 483 578 q 408 600 444 600 q 332 576 364 600 q 284 488 300 553 q 268 299 268 424 q 282 133 268 192 q 327 51 296 74 q 410 28 358 28 q 538 69 486 28 q 626 206 589 111 l 669 206 q 574 44 643 106 q 400 -18 504 -18 m 333 728 l 500 954 q 549 1000 525 989 q 596 1011 572 1011 q 650 992 632 1011 q 668 949 668 974 q 656 909 668 931 q 601 860 643 888 l 411 728 l 333 728 z "},"č":{"ha":715,"x_min":64,"x_max":669,"o":"m 400 -18 q 270 10 331 -18 q 163 85 210 38 q 90 191 117 132 q 64 314 64 250 q 90 433 64 375 q 161 539 115 492 q 269 614 207 586 q 406 642 332 642 q 524 620 469 642 q 610 562 578 599 q 642 475 642 525 q 613 403 642 429 q 540 378 585 378 q 473 401 500 378 q 446 464 446 424 q 456 504 446 490 q 474 528 465 518 q 483 556 483 539 q 464 589 483 578 q 408 600 444 600 q 332 576 364 600 q 284 488 300 553 q 268 299 268 424 q 282 133 268 192 q 327 51 296 74 q 410 28 358 28 q 538 69 486 28 q 626 206 589 111 l 669 206 q 574 44 643 106 q 400 -18 504 -18 m 342 728 l 142 1006 l 201 1006 l 385 876 l 569 1006 l 629 1006 l 428 728 l 342 728 z "},"ç":{"ha":715,"x_min":64,"x_max":669,"o":"m 400 -18 q 270 10 331 -18 q 163 85 210 38 q 90 191 117 132 q 64 314 64 250 q 90 433 64 375 q 161 539 115 492 q 269 614 207 586 q 406 642 332 642 q 524 620 469 642 q 610 562 578 599 q 642 475 642 525 q 613 403 642 429 q 540 378 585 378 q 473 401 500 378 q 446 464 446 424 q 456 504 446 490 q 474 528 465 518 q 483 556 483 539 q 464 589 483 578 q 408 600 444 600 q 332 576 364 600 q 284 488 300 553 q 268 299 268 424 q 282 133 268 192 q 327 51 296 74 q 410 28 358 28 q 538 69 486 28 q 626 206 589 111 l 669 206 q 574 44 643 106 q 400 -18 504 -18 m 314 -322 q 243 -314 272 -322 q 203 -299 214 -306 l 218 -256 q 252 -266 229 -261 q 296 -271 275 -271 q 357 -255 335 -271 q 379 -206 379 -239 q 271 -135 379 -136 l 322 14 l 378 14 l 344 -92 l 371 -92 q 473 -117 435 -92 q 511 -192 511 -143 q 457 -287 511 -253 q 314 -322 403 -322 z "},"ĉ":{"ha":715,"x_min":64,"x_max":669,"o":"m 400 -18 q 270 10 331 -18 q 163 85 210 38 q 90 191 117 132 q 64 314 64 250 q 90 433 64 375 q 161 539 115 492 q 269 614 207 586 q 406 642 332 642 q 524 620 469 642 q 610 562 578 599 q 642 475 642 525 q 613 403 642 429 q 540 378 585 378 q 473 401 500 378 q 446 464 446 424 q 456 504 446 490 q 474 528 465 518 q 483 556 483 539 q 464 589 483 578 q 408 600 444 600 q 332 576 364 600 q 284 488 300 553 q 268 299 268 424 q 282 133 268 192 q 327 51 296 74 q 410 28 358 28 q 538 69 486 28 q 626 206 589 111 l 669 206 q 574 44 643 106 q 400 -18 504 -18 m 142 728 l 343 1006 l 429 1006 l 629 728 l 569 728 l 386 857 l 201 728 l 142 728 z "},"ċ":{"ha":715,"x_min":64,"x_max":669,"o":"m 400 -18 q 270 10 331 -18 q 163 85 210 38 q 90 191 117 132 q 64 314 64 250 q 90 433 64 375 q 161 539 115 492 q 269 614 207 586 q 406 642 332 642 q 524 620 469 642 q 610 562 578 599 q 642 475 642 525 q 613 403 642 429 q 540 378 585 378 q 473 401 500 378 q 446 464 446 424 q 456 504 446 490 q 474 528 465 518 q 483 556 483 539 q 464 589 483 578 q 408 600 444 600 q 332 576 364 600 q 284 488 300 553 q 268 299 268 424 q 282 133 268 192 q 327 51 296 74 q 410 28 358 28 q 538 69 486 28 q 626 206 589 111 l 669 206 q 574 44 643 106 q 400 -18 504 -18 m 385 781 q 312 812 343 781 q 281 886 281 843 q 312 960 281 929 q 385 992 343 992 q 459 960 428 992 q 490 886 490 929 q 459 812 490 843 q 385 781 428 781 z "},"d":{"ha":847,"x_min":64,"x_max":824,"o":"m 349 -17 q 211 24 276 -17 q 105 140 146 65 q 64 313 64 214 q 104 485 64 411 q 210 601 144 560 q 347 642 275 642 q 462 614 413 642 q 533 544 511 586 l 567 544 l 539 333 q 492 528 539 467 q 374 590 444 590 q 313 567 336 590 q 278 485 289 544 q 267 311 267 425 q 277 139 267 199 q 311 57 288 79 q 372 35 335 35 q 491 97 443 35 q 539 292 539 158 l 567 81 l 533 81 q 463 11 511 39 q 349 -17 414 -17 m 539 0 l 539 39 l 824 39 l 824 0 l 539 0 m 539 21 l 539 1025 l 717 1025 l 717 21 l 539 21 m 401 1008 l 401 1047 l 717 1047 l 717 1008 l 401 1008 z "},"ð":{"ha":908,"x_min":72,"x_max":828,"o":"m 447 -17 q 306 8 374 -17 q 186 79 239 33 q 103 186 133 125 q 72 319 72 247 q 121 472 72 404 q 248 579 169 540 q 419 618 326 618 q 508 607 469 618 q 581 574 547 596 l 585 575 q 543 775 579 689 q 441 916 507 861 q 282 989 375 971 l 296 1028 q 496 969 400 1019 q 666 835 592 918 q 784 646 740 753 q 828 417 828 539 q 776 185 828 282 q 638 35 725 88 q 447 -17 551 -17 m 456 31 q 544 54 511 31 q 593 137 578 78 q 608 300 608 196 q 606 390 608 339 q 594 485 604 440 q 532 545 571 522 q 440 568 493 568 q 367 547 397 568 q 319 467 336 525 q 301 299 301 410 q 317 138 301 197 q 365 55 332 79 q 456 31 399 31 m 346 746 l 321 801 l 779 983 l 804 929 l 346 746 z "},"ď":{"ha":847,"x_min":64,"x_max":1008,"o":"m 349 -17 q 211 24 276 -17 q 105 140 146 65 q 64 313 64 214 q 104 485 64 411 q 210 601 144 560 q 347 642 275 642 q 462 614 413 642 q 533 544 511 586 l 567 544 l 539 333 q 492 528 539 467 q 374 590 444 590 q 313 567 336 590 q 278 485 289 544 q 267 311 267 425 q 277 139 267 199 q 311 57 288 79 q 372 35 335 35 q 491 97 443 35 q 539 292 539 158 l 567 81 l 533 81 q 463 11 511 39 q 349 -17 414 -17 m 539 0 l 539 39 l 824 39 l 824 0 l 539 0 m 539 21 l 539 1025 l 717 1025 l 717 21 l 539 21 m 401 1008 l 401 1047 l 717 1047 l 717 1008 l 401 1008 m 857 681 l 829 711 q 921 799 890 756 q 951 890 951 843 q 948 914 951 908 q 940 919 944 919 q 924 909 933 919 q 901 888 915 899 q 861 878 886 878 q 804 904 824 878 q 785 963 785 931 q 815 1034 785 1004 q 890 1064 844 1064 q 978 1019 947 1064 q 1008 911 1008 974 q 967 781 1008 836 q 857 681 925 725 z "},"đ":{"ha":847,"x_min":64,"x_max":861,"o":"m 349 -17 q 211 24 276 -17 q 105 140 146 65 q 64 313 64 214 q 104 485 64 411 q 210 601 144 560 q 347 642 275 642 q 462 614 413 642 q 533 544 511 586 l 567 544 l 539 333 q 492 528 539 467 q 374 590 444 590 q 313 567 336 590 q 278 485 289 544 q 267 311 267 425 q 277 139 267 199 q 311 57 288 79 q 372 35 335 35 q 491 97 443 35 q 539 292 539 158 l 567 81 l 533 81 q 463 11 511 39 q 349 -17 414 -17 m 539 0 l 539 39 l 824 39 l 824 0 l 539 0 m 539 21 l 539 1025 l 717 1025 l 717 21 l 539 21 m 401 1008 l 401 1047 l 717 1047 l 717 1008 l 401 1008 m 326 789 l 326 849 l 861 849 l 861 789 l 326 789 z "},"ḍ":{"ha":847,"x_min":64,"x_max":824,"o":"m 349 -17 q 211 24 276 -17 q 105 140 146 65 q 64 313 64 214 q 104 485 64 411 q 210 601 144 560 q 347 642 275 642 q 462 614 413 642 q 533 544 511 586 l 567 544 l 539 333 q 492 528 539 467 q 374 590 444 590 q 313 567 336 590 q 278 485 289 544 q 267 311 267 425 q 277 139 267 199 q 311 57 288 79 q 372 35 335 35 q 491 97 443 35 q 539 292 539 158 l 567 81 l 533 81 q 463 11 511 39 q 349 -17 414 -17 m 539 0 l 539 39 l 824 39 l 824 0 l 539 0 m 539 21 l 539 1025 l 717 1025 l 717 21 l 539 21 m 401 1008 l 401 1047 l 717 1047 l 717 1008 l 401 1008 m 422 -347 q 349 -316 381 -347 q 318 -243 318 -285 q 349 -169 318 -200 q 422 -137 381 -137 q 497 -169 465 -137 q 528 -243 528 -200 q 497 -316 528 -285 q 422 -347 465 -347 z "},"ǳ":{"ha":1510,"x_min":64,"x_max":1456,"o":"m 349 -17 q 211 24 276 -17 q 105 140 146 65 q 64 313 64 214 q 104 485 64 411 q 210 601 144 560 q 347 642 275 642 q 462 614 413 642 q 533 544 511 586 l 567 544 l 539 333 q 492 528 539 467 q 374 590 444 590 q 313 567 336 590 q 278 485 289 544 q 267 311 267 425 q 277 139 267 199 q 311 57 288 79 q 372 35 335 35 q 491 97 443 35 q 539 292 539 158 l 567 81 l 533 81 q 463 11 511 39 q 349 -17 414 -17 m 539 0 l 539 39 l 824 39 l 824 0 l 539 0 m 539 21 l 539 1025 l 717 1025 l 717 21 l 539 21 m 401 1008 l 401 1047 l 717 1047 l 717 1008 l 401 1008 m 896 21 l 892 49 l 1274 613 l 1436 613 l 1456 578 l 1083 21 l 896 21 m 892 0 l 892 49 l 903 39 l 1224 39 q 1356 88 1301 39 q 1414 235 1410 138 l 1415 257 l 1454 257 l 1454 0 l 892 0 m 932 382 l 932 625 l 1456 625 l 1456 578 l 1444 586 l 1163 586 q 1060 558 1103 586 q 995 484 1018 531 q 971 382 972 438 l 932 382 z "},"ǆ":{"ha":1510,"x_min":64,"x_max":1456,"o":"m 349 -17 q 211 24 276 -17 q 105 140 146 65 q 64 313 64 214 q 104 485 64 411 q 210 601 144 560 q 347 642 275 642 q 462 614 413 642 q 533 544 511 586 l 567 544 l 539 333 q 492 528 539 467 q 374 590 444 590 q 313 567 336 590 q 278 485 289 544 q 267 311 267 425 q 277 139 267 199 q 311 57 288 79 q 372 35 335 35 q 491 97 443 35 q 539 292 539 158 l 567 81 l 533 81 q 463 11 511 39 q 349 -17 414 -17 m 539 0 l 539 39 l 824 39 l 824 0 l 539 0 m 539 21 l 539 1025 l 717 1025 l 717 21 l 539 21 m 401 1008 l 401 1047 l 717 1047 l 717 1008 l 401 1008 m 896 21 l 892 49 l 1274 613 l 1436 613 l 1456 578 l 1083 21 l 896 21 m 892 0 l 892 49 l 903 39 l 1224 39 q 1356 88 1301 39 q 1414 235 1410 138 l 1415 257 l 1454 257 l 1454 0 l 892 0 m 932 382 l 932 625 l 1456 625 l 1456 578 l 1444 586 l 1163 586 q 1060 558 1103 586 q 995 484 1018 531 q 971 382 972 438 l 932 382 m 1135 728 l 935 1006 l 994 1006 l 1178 876 l 1363 1006 l 1422 1006 l 1221 728 l 1135 728 z "},"e":{"ha":731,"x_min":61,"x_max":679,"o":"m 400 -18 q 267 10 329 -18 q 159 85 206 38 q 87 191 113 132 q 61 315 61 250 q 102 472 61 397 q 217 594 143 546 q 392 642 292 642 q 537 608 472 642 q 638 513 601 575 q 675 368 675 451 l 675 356 l 203 356 l 203 394 l 490 394 l 490 478 q 388 600 490 600 q 316 573 343 600 q 276 483 289 546 q 264 310 264 419 q 277 136 264 197 q 322 52 290 75 q 406 29 353 29 q 538 65 479 29 q 636 192 596 101 l 679 192 q 576 39 650 96 q 400 -18 501 -18 z "},"é":{"ha":731,"x_min":61,"x_max":679,"o":"m 400 -18 q 267 10 329 -18 q 159 85 206 38 q 87 191 113 132 q 61 315 61 250 q 102 472 61 397 q 217 594 143 546 q 392 642 292 642 q 537 608 472 642 q 638 513 601 575 q 675 368 675 451 l 675 356 l 203 356 l 203 394 l 490 394 l 490 478 q 388 600 490 600 q 316 573 343 600 q 276 483 289 546 q 264 310 264 419 q 277 136 264 197 q 322 52 290 75 q 406 29 353 29 q 538 65 479 29 q 636 192 596 101 l 679 192 q 576 39 650 96 q 400 -18 501 -18 m 332 728 l 499 954 q 547 1000 524 989 q 594 1011 571 1011 q 649 992 631 1011 q 667 949 667 974 q 654 909 667 931 q 600 860 642 888 l 410 728 l 332 728 z "},"ĕ":{"ha":731,"x_min":61,"x_max":679,"o":"m 400 -18 q 267 10 329 -18 q 159 85 206 38 q 87 191 113 132 q 61 315 61 250 q 102 472 61 397 q 217 594 143 546 q 392 642 292 642 q 537 608 472 642 q 638 513 601 575 q 675 368 675 451 l 675 356 l 203 356 l 203 394 l 490 394 l 490 478 q 388 600 490 600 q 316 573 343 600 q 276 483 289 546 q 264 310 264 419 q 277 136 264 197 q 322 52 290 75 q 406 29 353 29 q 538 65 479 29 q 636 192 596 101 l 679 192 q 576 39 650 96 q 400 -18 501 -18 m 385 728 q 237 779 288 728 q 186 915 186 831 l 242 915 q 284 862 244 878 q 382 846 324 846 q 483 863 442 846 q 526 915 524 881 l 583 915 q 562 819 583 863 q 497 752 540 776 q 385 728 453 728 z "},"ě":{"ha":731,"x_min":61,"x_max":679,"o":"m 400 -18 q 267 10 329 -18 q 159 85 206 38 q 87 191 113 132 q 61 315 61 250 q 102 472 61 397 q 217 594 143 546 q 392 642 292 642 q 537 608 472 642 q 638 513 601 575 q 675 368 675 451 l 675 356 l 203 356 l 203 394 l 490 394 l 490 478 q 388 600 490 600 q 316 573 343 600 q 276 483 289 546 q 264 310 264 419 q 277 136 264 197 q 322 52 290 75 q 406 29 353 29 q 538 65 479 29 q 636 192 596 101 l 679 192 q 576 39 650 96 q 400 -18 501 -18 m 342 728 l 142 1006 l 201 1006 l 385 876 l 569 1006 l 629 1006 l 428 728 l 342 728 z "},"ê":{"ha":731,"x_min":61,"x_max":679,"o":"m 400 -18 q 267 10 329 -18 q 159 85 206 38 q 87 191 113 132 q 61 315 61 250 q 102 472 61 397 q 217 594 143 546 q 392 642 292 642 q 537 608 472 642 q 638 513 601 575 q 675 368 675 451 l 675 356 l 203 356 l 203 394 l 490 394 l 490 478 q 388 600 490 600 q 316 573 343 600 q 276 483 289 546 q 264 310 264 419 q 277 136 264 197 q 322 52 290 75 q 406 29 353 29 q 538 65 479 29 q 636 192 596 101 l 679 192 q 576 39 650 96 q 400 -18 501 -18 m 140 728 l 342 1006 l 428 1006 l 628 728 l 568 728 l 385 857 l 200 728 l 140 728 z "},"ế":{"ha":731,"x_min":61,"x_max":679,"o":"m 400 -18 q 267 10 329 -18 q 159 85 206 38 q 87 191 113 132 q 61 315 61 250 q 102 472 61 397 q 217 594 143 546 q 392 642 292 642 q 537 608 472 642 q 638 513 601 575 q 675 368 675 451 l 675 356 l 203 356 l 203 394 l 490 394 l 490 478 q 388 600 490 600 q 316 573 343 600 q 276 483 289 546 q 264 310 264 419 q 277 136 264 197 q 322 52 290 75 q 406 29 353 29 q 538 65 479 29 q 636 192 596 101 l 679 192 q 576 39 650 96 q 400 -18 501 -18 m 156 726 l 342 886 l 428 886 l 614 726 l 546 726 l 385 789 l 224 726 l 156 726 m 186 928 l 406 1068 q 468 1105 446 1094 q 515 1115 490 1115 q 565 1097 549 1115 q 582 1053 582 1079 q 567 1008 582 1029 q 510 976 551 986 l 265 928 l 186 928 z "},"ệ":{"ha":731,"x_min":61,"x_max":679,"o":"m 400 -18 q 267 10 329 -18 q 159 85 206 38 q 87 191 113 132 q 61 315 61 250 q 102 472 61 397 q 217 594 143 546 q 392 642 292 642 q 537 608 472 642 q 638 513 601 575 q 675 368 675 451 l 675 356 l 203 356 l 203 394 l 490 394 l 490 478 q 388 600 490 600 q 316 573 343 600 q 276 483 289 546 q 264 310 264 419 q 277 136 264 197 q 322 52 290 75 q 406 29 353 29 q 538 65 479 29 q 636 192 596 101 l 679 192 q 576 39 650 96 q 400 -18 501 -18 m 365 -347 q 292 -316 324 -347 q 261 -243 261 -285 q 292 -169 261 -200 q 365 -137 324 -137 q 440 -169 408 -137 q 471 -243 471 -200 q 440 -316 471 -285 q 365 -347 408 -347 m 140 728 l 342 1006 l 428 1006 l 628 728 l 568 728 l 385 857 l 200 728 l 140 728 z "},"ề":{"ha":731,"x_min":61,"x_max":679,"o":"m 400 -18 q 267 10 329 -18 q 159 85 206 38 q 87 191 113 132 q 61 315 61 250 q 102 472 61 397 q 217 594 143 546 q 392 642 292 642 q 537 608 472 642 q 638 513 601 575 q 675 368 675 451 l 675 356 l 203 356 l 203 394 l 490 394 l 490 478 q 388 600 490 600 q 316 573 343 600 q 276 483 289 546 q 264 310 264 419 q 277 136 264 197 q 322 52 290 75 q 406 29 353 29 q 538 65 479 29 q 636 192 596 101 l 679 192 q 576 39 650 96 q 400 -18 501 -18 m 156 726 l 342 886 l 428 886 l 614 726 l 546 726 l 385 789 l 224 726 l 156 726 m 504 932 l 258 981 q 201 1012 217 990 q 186 1057 186 1033 q 203 1101 186 1083 q 253 1119 221 1119 q 301 1109 279 1119 q 363 1072 322 1099 l 582 932 l 504 932 z "},"ể":{"ha":731,"x_min":61,"x_max":710,"o":"m 400 -18 q 267 10 329 -18 q 159 85 206 38 q 87 191 113 132 q 61 315 61 250 q 102 472 61 397 q 217 594 143 546 q 392 642 292 642 q 537 608 472 642 q 638 513 601 575 q 675 368 675 451 l 675 356 l 203 356 l 203 394 l 490 394 l 490 478 q 388 600 490 600 q 316 573 343 600 q 276 483 289 546 q 264 310 264 419 q 277 136 264 197 q 322 52 290 75 q 406 29 353 29 q 538 65 479 29 q 636 192 596 101 l 679 192 q 576 39 650 96 q 400 -18 501 -18 m 156 726 l 342 886 l 428 886 l 614 726 l 546 726 l 385 789 l 224 726 l 156 726 m 561 886 q 570 936 561 917 q 592 969 579 956 q 615 992 606 982 q 625 1015 625 1003 q 608 1066 625 1051 q 564 1081 592 1081 q 522 1067 538 1081 q 506 1039 506 1054 q 513 1022 506 1025 q 525 1013 519 1018 q 531 989 531 1007 q 515 964 531 972 q 481 956 500 956 q 438 972 456 956 q 421 1017 421 989 q 440 1088 421 1061 q 492 1126 460 1114 q 564 1139 525 1139 q 672 1108 635 1139 q 710 1008 710 1076 q 695 965 710 979 q 661 941 681 950 q 626 920 642 932 q 610 886 611 908 l 561 886 z "},"ễ":{"ha":731,"x_min":61,"x_max":679,"o":"m 400 -18 q 267 10 329 -18 q 159 85 206 38 q 87 191 113 132 q 61 315 61 250 q 102 472 61 397 q 217 594 143 546 q 392 642 292 642 q 537 608 472 642 q 638 513 601 575 q 675 368 675 451 l 675 356 l 203 356 l 203 394 l 490 394 l 490 478 q 388 600 490 600 q 316 573 343 600 q 276 483 289 546 q 264 310 264 419 q 277 136 264 197 q 322 52 290 75 q 406 29 353 29 q 538 65 479 29 q 636 192 596 101 l 679 192 q 576 39 650 96 q 400 -18 501 -18 m 156 724 l 342 883 l 428 883 l 614 724 l 546 724 l 385 786 l 224 724 l 156 724 m 122 964 q 153 1051 129 1010 q 215 1121 178 1093 q 304 1149 253 1149 q 373 1133 342 1149 q 433 1103 404 1118 q 494 1089 463 1089 q 567 1110 543 1089 q 600 1150 592 1131 l 647 1150 q 615 1062 638 1104 q 555 992 592 1019 q 464 965 518 965 q 394 980 425 965 q 335 1009 364 994 q 274 1024 307 1024 q 204 1007 232 1024 q 168 964 176 990 l 122 964 z "},"ȅ":{"ha":731,"x_min":-6,"x_max":679,"o":"m 400 -18 q 267 10 329 -18 q 159 85 206 38 q 87 191 113 132 q 61 315 61 250 q 102 472 61 397 q 217 594 143 546 q 392 642 292 642 q 537 608 472 642 q 638 513 601 575 q 675 368 675 451 l 675 356 l 203 356 l 203 394 l 490 394 l 490 478 q 388 600 490 600 q 316 573 343 600 q 276 483 289 546 q 264 310 264 419 q 277 136 264 197 q 322 52 290 75 q 406 29 353 29 q 538 65 479 29 q 636 192 596 101 l 679 192 q 576 39 650 96 q 400 -18 501 -18 m 519 728 l 329 860 q 276 909 289 888 q 263 949 263 931 q 281 992 263 974 q 335 1011 299 1011 q 382 1000 358 1011 q 431 954 406 989 l 597 728 l 519 728 m 251 728 l 63 860 q 8 909 22 888 q -6 949 -6 931 q 13 992 -6 974 q 68 1011 32 1011 q 114 1000 90 1011 q 163 954 138 989 l 329 728 l 251 728 z "},"ë":{"ha":731,"x_min":61,"x_max":679,"o":"m 400 -18 q 267 10 329 -18 q 159 85 206 38 q 87 191 113 132 q 61 315 61 250 q 102 472 61 397 q 217 594 143 546 q 392 642 292 642 q 537 608 472 642 q 638 513 601 575 q 675 368 675 451 l 675 356 l 203 356 l 203 394 l 490 394 l 490 478 q 388 600 490 600 q 316 573 343 600 q 276 483 289 546 q 264 310 264 419 q 277 136 264 197 q 322 52 290 75 q 406 29 353 29 q 538 65 479 29 q 636 192 596 101 l 679 192 q 576 39 650 96 q 400 -18 501 -18 m 517 785 q 456 810 482 785 q 431 871 431 836 q 456 932 431 907 q 517 957 482 957 q 578 932 553 957 q 604 871 604 907 q 578 810 604 836 q 517 785 553 785 m 253 785 q 192 810 218 785 q 167 871 167 836 q 192 932 167 907 q 253 957 218 957 q 315 932 289 957 q 340 871 340 907 q 315 810 340 836 q 253 785 289 785 z "},"ė":{"ha":731,"x_min":61,"x_max":679,"o":"m 400 -18 q 267 10 329 -18 q 159 85 206 38 q 87 191 113 132 q 61 315 61 250 q 102 472 61 397 q 217 594 143 546 q 392 642 292 642 q 537 608 472 642 q 638 513 601 575 q 675 368 675 451 l 675 356 l 203 356 l 203 394 l 490 394 l 490 478 q 388 600 490 600 q 316 573 343 600 q 276 483 289 546 q 264 310 264 419 q 277 136 264 197 q 322 52 290 75 q 406 29 353 29 q 538 65 479 29 q 636 192 596 101 l 679 192 q 576 39 650 96 q 400 -18 501 -18 m 383 781 q 310 812 342 781 q 279 886 279 843 q 310 960 279 929 q 383 992 342 992 q 458 960 426 992 q 489 886 489 929 q 458 812 489 843 q 383 781 426 781 z "},"ẹ":{"ha":731,"x_min":61,"x_max":679,"o":"m 400 -18 q 267 10 329 -18 q 159 85 206 38 q 87 191 113 132 q 61 315 61 250 q 102 472 61 397 q 217 594 143 546 q 392 642 292 642 q 537 608 472 642 q 638 513 601 575 q 675 368 675 451 l 675 356 l 203 356 l 203 394 l 490 394 l 490 478 q 388 600 490 600 q 316 573 343 600 q 276 483 289 546 q 264 310 264 419 q 277 136 264 197 q 322 52 290 75 q 406 29 353 29 q 538 65 479 29 q 636 192 596 101 l 679 192 q 576 39 650 96 q 400 -18 501 -18 m 365 -347 q 292 -316 324 -347 q 261 -243 261 -285 q 292 -169 261 -200 q 365 -137 324 -137 q 440 -169 408 -137 q 471 -243 471 -200 q 440 -316 471 -285 q 365 -347 408 -347 z "},"è":{"ha":731,"x_min":61,"x_max":679,"o":"m 400 -18 q 267 10 329 -18 q 159 85 206 38 q 87 191 113 132 q 61 315 61 250 q 102 472 61 397 q 217 594 143 546 q 392 642 292 642 q 537 608 472 642 q 638 513 601 575 q 675 368 675 451 l 675 356 l 203 356 l 203 394 l 490 394 l 490 478 q 388 600 490 600 q 316 573 343 600 q 276 483 289 546 q 264 310 264 419 q 277 136 264 197 q 322 52 290 75 q 406 29 353 29 q 538 65 479 29 q 636 192 596 101 l 679 192 q 576 39 650 96 q 400 -18 501 -18 m 367 728 l 178 860 q 124 909 138 888 q 110 949 110 931 q 128 992 110 974 q 183 1011 147 1011 q 229 1000 206 1011 q 278 954 253 989 l 444 728 l 367 728 z "},"ẻ":{"ha":731,"x_min":61,"x_max":679,"o":"m 400 -18 q 267 10 329 -18 q 159 85 206 38 q 87 191 113 132 q 61 315 61 250 q 102 472 61 397 q 217 594 143 546 q 392 642 292 642 q 537 608 472 642 q 638 513 601 575 q 675 368 675 451 l 675 356 l 203 356 l 203 394 l 490 394 l 490 478 q 388 600 490 600 q 316 573 343 600 q 276 483 289 546 q 264 310 264 419 q 277 136 264 197 q 322 52 290 75 q 406 29 353 29 q 538 65 479 29 q 636 192 596 101 l 679 192 q 576 39 650 96 q 400 -18 501 -18 m 379 708 q 389 758 379 739 q 412 791 399 778 q 434 817 425 804 q 443 850 443 831 q 426 890 443 876 q 383 903 410 903 q 340 890 356 903 q 324 861 324 876 q 330 844 324 847 q 343 835 336 840 q 350 811 350 829 q 334 786 350 794 q 299 778 318 778 q 257 794 274 778 q 240 839 240 811 q 260 910 240 883 q 312 949 279 936 q 382 961 344 961 q 491 933 454 961 q 528 851 528 904 q 514 796 528 815 q 481 765 500 776 q 446 742 461 754 q 428 708 431 731 l 379 708 z "},"ȇ":{"ha":731,"x_min":61,"x_max":679,"o":"m 400 -18 q 267 10 329 -18 q 159 85 206 38 q 87 191 113 132 q 61 315 61 250 q 102 472 61 397 q 217 594 143 546 q 392 642 292 642 q 537 608 472 642 q 638 513 601 575 q 675 368 675 451 l 675 356 l 203 356 l 203 394 l 490 394 l 490 478 q 388 600 490 600 q 316 573 343 600 q 276 483 289 546 q 264 310 264 419 q 277 136 264 197 q 322 52 290 75 q 406 29 353 29 q 538 65 479 29 q 636 192 596 101 l 679 192 q 576 39 650 96 q 400 -18 501 -18 m 157 728 q 215 899 157 833 q 385 964 272 964 q 555 897 500 964 q 610 728 610 829 l 554 728 q 503 811 551 785 q 382 838 456 838 q 263 812 310 838 q 214 728 217 786 l 157 728 z "},"ē":{"ha":731,"x_min":61,"x_max":679,"o":"m 400 -18 q 267 10 329 -18 q 159 85 206 38 q 87 191 113 132 q 61 315 61 250 q 102 472 61 397 q 217 594 143 546 q 392 642 292 642 q 537 608 472 642 q 638 513 601 575 q 675 368 675 451 l 675 356 l 203 356 l 203 394 l 490 394 l 490 478 q 388 600 490 600 q 316 573 343 600 q 276 483 289 546 q 264 310 264 419 q 277 136 264 197 q 322 52 290 75 q 406 29 353 29 q 538 65 479 29 q 636 192 596 101 l 679 192 q 576 39 650 96 q 400 -18 501 -18 m 153 781 l 153 892 l 615 892 l 615 781 l 153 781 z "},"ę":{"ha":731,"x_min":61,"x_max":679,"o":"m 400 -18 q 267 10 329 -18 q 159 85 206 38 q 87 191 113 132 q 61 315 61 250 q 102 472 61 397 q 217 594 143 546 q 392 642 292 642 q 537 608 472 642 q 638 513 601 575 q 675 368 675 451 l 675 356 l 203 356 l 203 394 l 490 394 l 490 478 q 388 600 490 600 q 316 573 343 600 q 276 483 289 546 q 264 310 264 419 q 277 136 264 197 q 322 52 290 75 q 406 29 353 29 q 538 65 479 29 q 636 192 596 101 l 679 192 q 576 39 650 96 q 400 -18 501 -18 m 400 -337 q 310 -306 344 -337 q 276 -222 276 -275 q 295 -151 276 -186 q 358 -77 314 -117 q 475 14 401 -37 l 535 14 q 429 -101 467 -43 q 392 -210 392 -160 q 447 -269 392 -269 q 486 -261 467 -269 q 531 -233 506 -253 l 536 -233 l 536 -278 q 476 -322 513 -306 q 400 -337 440 -337 z "},"ẽ":{"ha":731,"x_min":61,"x_max":679,"o":"m 400 -18 q 267 10 329 -18 q 159 85 206 38 q 87 191 113 132 q 61 315 61 250 q 102 472 61 397 q 217 594 143 546 q 392 642 292 642 q 537 608 472 642 q 638 513 601 575 q 675 368 675 451 l 675 356 l 203 356 l 203 394 l 490 394 l 490 478 q 388 600 490 600 q 316 573 343 600 q 276 483 289 546 q 264 310 264 419 q 277 136 264 197 q 322 52 290 75 q 406 29 353 29 q 538 65 479 29 q 636 192 596 101 l 679 192 q 576 39 650 96 q 400 -18 501 -18 m 121 749 q 153 837 129 794 q 215 906 176 879 q 304 933 253 933 q 373 919 342 933 q 433 890 404 904 q 494 875 463 875 q 567 895 543 875 q 600 935 592 915 l 647 935 q 614 847 636 889 q 555 777 592 804 q 464 750 518 750 q 394 765 425 750 q 335 795 364 781 q 274 810 307 810 q 204 792 232 810 q 167 749 176 775 l 121 749 z "},"ə":{"ha":732,"x_min":51,"x_max":671,"o":"m 339 -18 q 195 16 260 -18 q 93 111 131 50 q 56 256 56 172 l 56 268 l 529 268 l 529 229 l 240 229 l 240 146 q 344 25 240 25 q 415 51 389 25 q 454 141 442 78 q 467 314 467 204 q 453 488 467 426 q 410 572 440 549 q 325 596 379 596 q 194 559 253 596 q 96 432 135 522 l 51 432 q 156 585 81 529 q 331 642 231 642 q 464 614 403 642 q 572 540 525 586 q 644 433 618 493 q 671 308 671 374 q 630 152 671 226 q 515 30 589 78 q 339 -18 440 -18 z "},"f":{"ha":488,"x_min":28,"x_max":606,"o":"m 149 0 l 149 665 q 183 878 149 789 q 280 1015 217 967 q 432 1064 343 1064 q 559 1027 513 1064 q 606 938 606 990 q 581 873 606 897 q 517 849 556 849 q 460 867 483 849 q 436 922 436 886 q 444 955 436 943 q 458 975 451 967 q 465 996 465 983 q 424 1021 465 1021 q 355 988 382 1021 q 328 868 328 956 l 328 0 l 149 0 m 31 0 l 31 39 l 474 39 l 474 0 l 31 0 m 28 576 l 28 615 l 485 615 l 485 576 l 28 576 z "},"g":{"ha":763,"x_min":57,"x_max":775,"o":"m 356 -451 l 356 -451 q 201 -424 269 -451 q 95 -352 133 -397 q 57 -251 57 -307 q 92 -156 57 -197 q 182 -92 126 -115 l 182 -86 q 93 -28 125 -64 q 61 68 61 8 q 100 174 61 132 q 215 228 139 215 q 129 305 161 256 q 97 417 97 354 q 133 534 97 483 q 231 613 169 585 q 364 642 292 642 q 488 619 431 642 q 581 554 544 596 q 624 618 596 593 q 690 643 651 643 q 750 623 725 643 q 775 568 775 603 q 760 526 775 542 q 717 510 746 510 q 680 522 690 510 q 663 544 669 533 q 638 556 656 556 q 619 547 625 556 q 610 511 613 538 q 628 466 622 490 q 635 417 635 442 q 597 299 635 350 q 499 220 560 249 q 364 192 438 192 l 278 192 q 175 171 214 192 q 136 118 136 150 q 154 81 136 97 q 210 65 172 65 l 503 65 q 616 48 569 65 q 688 -12 663 31 q 713 -126 713 -54 q 664 -306 713 -233 q 535 -415 615 -378 q 356 -451 454 -451 m 378 -404 l 378 -404 q 503 -376 443 -404 q 603 -296 564 -347 q 642 -176 642 -244 q 621 -111 642 -132 q 554 -90 600 -90 l 239 -90 q 203 -153 217 -110 q 190 -235 190 -197 q 241 -356 190 -308 q 378 -404 292 -404 m 364 238 q 420 252 400 238 q 449 306 440 267 q 457 417 457 344 q 448 531 457 492 q 419 584 439 569 q 364 599 400 599 q 310 584 329 599 q 282 531 290 569 q 274 418 274 492 q 282 305 274 343 q 310 252 290 267 q 364 238 329 238 z "},"ǵ":{"ha":763,"x_min":57,"x_max":775,"o":"m 356 -451 l 356 -451 q 201 -424 269 -451 q 95 -352 133 -397 q 57 -251 57 -307 q 92 -156 57 -197 q 182 -92 126 -115 l 182 -86 q 93 -28 125 -64 q 61 68 61 8 q 100 174 61 132 q 215 228 139 215 q 129 305 161 256 q 97 417 97 354 q 133 534 97 483 q 231 613 169 585 q 364 642 292 642 q 488 619 431 642 q 581 554 544 596 q 624 618 596 593 q 690 643 651 643 q 750 623 725 643 q 775 568 775 603 q 760 526 775 542 q 717 510 746 510 q 680 522 690 510 q 663 544 669 533 q 638 556 656 556 q 619 547 625 556 q 610 511 613 538 q 628 466 622 490 q 635 417 635 442 q 597 299 635 350 q 499 220 560 249 q 364 192 438 192 l 278 192 q 175 171 214 192 q 136 118 136 150 q 154 81 136 97 q 210 65 172 65 l 503 65 q 616 48 569 65 q 688 -12 663 31 q 713 -126 713 -54 q 664 -306 713 -233 q 535 -415 615 -378 q 356 -451 454 -451 m 378 -404 l 378 -404 q 503 -376 443 -404 q 603 -296 564 -347 q 642 -176 642 -244 q 621 -111 642 -132 q 554 -90 600 -90 l 239 -90 q 203 -153 217 -110 q 190 -235 190 -197 q 241 -356 190 -308 q 378 -404 292 -404 m 364 238 q 420 252 400 238 q 449 306 440 267 q 457 417 457 344 q 448 531 457 492 q 419 584 439 569 q 364 599 400 599 q 310 584 329 599 q 282 531 290 569 q 274 418 274 492 q 282 305 274 343 q 310 252 290 267 q 364 238 329 238 m 325 728 l 492 954 q 540 1000 517 989 q 588 1011 564 1011 q 642 992 624 1011 q 660 949 660 974 q 647 909 660 931 q 593 860 635 888 l 403 728 l 325 728 z "},"ğ":{"ha":763,"x_min":57,"x_max":775,"o":"m 356 -451 l 356 -451 q 201 -424 269 -451 q 95 -352 133 -397 q 57 -251 57 -307 q 92 -156 57 -197 q 182 -92 126 -115 l 182 -86 q 93 -28 125 -64 q 61 68 61 8 q 100 174 61 132 q 215 228 139 215 q 129 305 161 256 q 97 417 97 354 q 133 534 97 483 q 231 613 169 585 q 364 642 292 642 q 488 619 431 642 q 581 554 544 596 q 624 618 596 593 q 690 643 651 643 q 750 623 725 643 q 775 568 775 603 q 760 526 775 542 q 717 510 746 510 q 680 522 690 510 q 663 544 669 533 q 638 556 656 556 q 619 547 625 556 q 610 511 613 538 q 628 466 622 490 q 635 417 635 442 q 597 299 635 350 q 499 220 560 249 q 364 192 438 192 l 278 192 q 175 171 214 192 q 136 118 136 150 q 154 81 136 97 q 210 65 172 65 l 503 65 q 616 48 569 65 q 688 -12 663 31 q 713 -126 713 -54 q 664 -306 713 -233 q 535 -415 615 -378 q 356 -451 454 -451 m 378 -404 l 378 -404 q 503 -376 443 -404 q 603 -296 564 -347 q 642 -176 642 -244 q 621 -111 642 -132 q 554 -90 600 -90 l 239 -90 q 203 -153 217 -110 q 190 -235 190 -197 q 241 -356 190 -308 q 378 -404 292 -404 m 364 238 q 420 252 400 238 q 449 306 440 267 q 457 417 457 344 q 448 531 457 492 q 419 584 439 569 q 364 599 400 599 q 310 584 329 599 q 282 531 290 569 q 274 418 274 492 q 282 305 274 343 q 310 252 290 267 q 364 238 329 238 m 378 728 q 230 779 281 728 q 179 915 179 831 l 235 915 q 277 862 238 878 q 375 846 317 846 q 476 863 435 846 q 519 915 517 881 l 576 915 q 555 819 576 863 q 490 752 533 776 q 378 728 446 728 z "},"ĝ":{"ha":763,"x_min":57,"x_max":775,"o":"m 356 -451 l 356 -451 q 201 -424 269 -451 q 95 -352 133 -397 q 57 -251 57 -307 q 92 -156 57 -197 q 182 -92 126 -115 l 182 -86 q 93 -28 125 -64 q 61 68 61 8 q 100 174 61 132 q 215 228 139 215 q 129 305 161 256 q 97 417 97 354 q 133 534 97 483 q 231 613 169 585 q 364 642 292 642 q 488 619 431 642 q 581 554 544 596 q 624 618 596 593 q 690 643 651 643 q 750 623 725 643 q 775 568 775 603 q 760 526 775 542 q 717 510 746 510 q 680 522 690 510 q 663 544 669 533 q 638 556 656 556 q 619 547 625 556 q 610 511 613 538 q 628 466 622 490 q 635 417 635 442 q 597 299 635 350 q 499 220 560 249 q 364 192 438 192 l 278 192 q 175 171 214 192 q 136 118 136 150 q 154 81 136 97 q 210 65 172 65 l 503 65 q 616 48 569 65 q 688 -12 663 31 q 713 -126 713 -54 q 664 -306 713 -233 q 535 -415 615 -378 q 356 -451 454 -451 m 378 -404 l 378 -404 q 503 -376 443 -404 q 603 -296 564 -347 q 642 -176 642 -244 q 621 -111 642 -132 q 554 -90 600 -90 l 239 -90 q 203 -153 217 -110 q 190 -235 190 -197 q 241 -356 190 -308 q 378 -404 292 -404 m 364 238 q 420 252 400 238 q 449 306 440 267 q 457 417 457 344 q 448 531 457 492 q 419 584 439 569 q 364 599 400 599 q 310 584 329 599 q 282 531 290 569 q 274 418 274 492 q 282 305 274 343 q 310 252 290 267 q 364 238 329 238 m 133 728 l 335 1006 l 421 1006 l 621 728 l 561 728 l 378 857 l 193 728 l 133 728 z "},"ģ":{"ha":763,"x_min":57,"x_max":775,"o":"m 356 -451 l 356 -451 q 201 -424 269 -451 q 95 -352 133 -397 q 57 -251 57 -307 q 92 -156 57 -197 q 182 -92 126 -115 l 182 -86 q 93 -28 125 -64 q 61 68 61 8 q 100 174 61 132 q 215 228 139 215 q 129 305 161 256 q 97 417 97 354 q 133 534 97 483 q 231 613 169 585 q 364 642 292 642 q 488 619 431 642 q 581 554 544 596 q 624 618 596 593 q 690 643 651 643 q 750 623 725 643 q 775 568 775 603 q 760 526 775 542 q 717 510 746 510 q 680 522 690 510 q 663 544 669 533 q 638 556 656 556 q 619 547 625 556 q 610 511 613 538 q 628 466 622 490 q 635 417 635 442 q 597 299 635 350 q 499 220 560 249 q 364 192 438 192 l 278 192 q 175 171 214 192 q 136 118 136 150 q 154 81 136 97 q 210 65 172 65 l 503 65 q 616 48 569 65 q 688 -12 663 31 q 713 -126 713 -54 q 664 -306 713 -233 q 535 -415 615 -378 q 356 -451 454 -451 m 378 -404 l 378 -404 q 503 -376 443 -404 q 603 -296 564 -347 q 642 -176 642 -244 q 621 -111 642 -132 q 554 -90 600 -90 l 239 -90 q 203 -153 217 -110 q 190 -235 190 -197 q 241 -356 190 -308 q 378 -404 292 -404 m 364 238 q 420 252 400 238 q 449 306 440 267 q 457 417 457 344 q 448 531 457 492 q 419 584 439 569 q 364 599 400 599 q 310 584 329 599 q 282 531 290 569 q 274 418 274 492 q 282 305 274 343 q 310 252 290 267 q 364 238 329 238 m 432 1058 l 460 1028 q 354 956 386 989 q 322 882 322 922 q 328 862 322 867 q 339 857 333 857 q 355 867 346 857 q 378 888 364 878 q 418 899 393 899 q 474 874 454 899 q 494 817 494 850 q 467 751 494 778 q 393 725 439 725 q 302 767 333 725 q 271 865 271 808 q 312 975 271 931 q 432 1058 353 1019 z "}}}
